{
copyright = "Copyright(c) 2012 Abelardo Gonzalez (abbie@abbiecod.es), with Reserved Font Name \"Eulexia-BoldItalic";
customParameters = (
{
name = glyphOrder;
value = (
    ".notdef",
    NULL,
    uni000D,
    space,
    exclam,
    quotedbl,
    numbersign,
    dollar,
    percent,
    ampersand,
    quotesingle,
    parenleft,
    parenright,
    asterisk,
    plus,
    comma,
    hyphen,
    period,
    slash,
    zero,
    one,
    two,
    three,
    four,
    five,
    six,
    seven,
    eight,
    nine,
    colon,
    semicolon,
    less,
    equal,
    greater,
    question,
    at,
    A,
    B,
    C,
    D,
    E,
    F,
    G,
    H,
    I,
    J,
    K,
    L,
    M,
    N,
    O,
    P,
    Q,
    R,
    S,
    T,
    U,
    V,
    W,
    X,
    Y,
    Z,
    bracketleft,
    backslash,
    bracketright,
    asciicircum,
    underscore,
    grave,
    a,
    b,
    c,
    d,
    e,
    f,
    g,
    h,
    i,
    j,
    k,
    l,
    m,
    n,
    o,
    p,
    q,
    r,
    s,
    t,
    u,
    v,
    w,
    x,
    y,
    z,
    braceleft,
    bar,
    braceright,
    asciitilde,
    exclamdown,
    cent,
    sterling,
    currency,
    yen,
    brokenbar,
    section,
    dieresis,
    copyright,
    ordfeminine,
    guillemotleft,
    logicalnot,
    registered,
    macron,
    degree,
    plusminus,
    twosuperior,
    threesuperior,
    acute,
    mu1,
    paragraph,
    periodcentered,
    cedilla,
    onesuperior,
    ordmasculine,
    guillemotright,
    onequarter,
    onehalf,
    threequarters,
    questiondown,
    Agrave,
    Aacute,
    Acircumflex,
    Atilde,
    Adieresis,
    Aring,
    AE,
    Ccedilla,
    Egrave,
    Eacute,
    Ecircumflex,
    Edieresis,
    Igrave,
    Iacute,
    Icircumflex,
    Idieresis,
    Eth,
    Ntilde,
    Ograve,
    Oacute,
    Ocircumflex,
    Otilde,
    Odieresis,
    multiply,
    Oslash,
    Ugrave,
    Uacute,
    Ucircumflex,
    Udieresis,
    Yacute,
    Thorn,
    germandbls,

glyphs = (
{
glyphname = exclam;
lastChange = "2012-07-01 20:33:04 +0000";
layers = (
{
layerId = "0F287C55-347F-439B-BC0E-FB0B2C3C2256";
name = Bold;
paths = (
{
closed = 1;
nodes = (
"288 356 LINE",
"277 357 OFFCURVE",
"266 359 OFFCURVE",
"256 363 CURVE",
"236 370 OFFCURVE",
"218 376 OFFCURVE",
"202 381 CURVE SMOOTH",
"193 384 OFFCURVE",
"182 385 OFFCURVE",
"169 385 CURVE SMOOTH",
"149 385 OFFCURVE",
"118 384 OFFCURVE",
"99 383 CURVE",
"112 540 LINE SMOOTH",
"115 577 OFFCURVE",
"119 613 OFFCURVE",
"122 650 CURVE SMOOTH",
"125 686 OFFCURVE",
"129 723 OFFCURVE",
"132 760 CURVE SMOOTH",
"136 807 OFFCURVE",
"140 857 OFFCURVE",
"145 909 CURVE SMOOTH",
"154 1012 OFFCURVE",
"163 1119 OFFCURVE",
"171 1223 CURVE SMOOTH",
"175 1274 OFFCURVE",
"178 1324 OFFCURVE",
"181 1371 CURVE",
"228 1356 OFFCURVE",
"283 1350 OFFCURVE",
"344 1349 CURVE",
"342 1314 OFFCURVE",
"340 1273 OFFCURVE",
"337 1228 CURVE SMOOTH",
"334 1183 OFFCURVE",
"332 1136 OFFCURVE",
"329 1089 CURVE SMOOTH",
"324 994 OFFCURVE",
"318 899 OFFCURVE",
"313 830 CURVE SMOOTH",
"312 807 OFFCURVE",
"310 783 OFFCURVE",
"309 759 CURVE SMOOTH",
"308 734 OFFCURVE",
"306 710 OFFCURVE",
"305 687 CURVE SMOOTH",
"302 641 OFFCURVE",
"300 595 OFFCURVE",
"297 549 CURVE SMOOTH",
"294 502 OFFCURVE",
"291 456 OFFCURVE",
"289 410 CURVE SMOOTH"
);
},
{
closed = 1;
nodes = (
"81 34 LINE",
"84 87 LINE",
"80 74 LINE",
"81 105 OFFCURVE",
"82 135 OFFCURVE",
"85 164 CURVE SMOOTH",
"86 172 OFFCURVE",
"87 180 OFFCURVE",
"87 187 CURVE SMOOTH",
"87 201 OFFCURVE",
"87 215 OFFCURVE",
"90 243 CURVE SMOOTH",
"91 256 OFFCURVE",
"93 270 OFFCURVE",
"94 285 CURVE",
"127 285 LINE SMOOTH",
"171 285 OFFCURVE",
"217 280 OFFCURVE",
"269 272 CURVE",
"268 220 LINE",
"267 214 OFFCURVE",
"267 208 OFFCURVE",
"267 201 CURVE SMOOTH",
"267 194 OFFCURVE",
"267 187 OFFCURVE",
"266 181 CURVE",
"266 182 LINE",
"265 161 OFFCURVE",
"263 129 OFFCURVE",
"262 97 CURVE SMOOTH",
"261 81 OFFCURVE",
"261 65 OFFCURVE",
"260 50 CURVE SMOOTH",
"259 35 OFFCURVE",
"259 22 OFFCURVE",
"259 12 CURVE",
"204 28 OFFCURVE",
"150 34 OFFCURVE",
"94 34 CURVE SMOOTH"
);
}
);
width = 435;
}
);
unicode = 0021;
},
{
glyphname = quotedbl;
lastChange = "2012-07-01 20:33:04 +0000";
layers = (
{
layerId = "0F287C55-347F-439B-BC0E-FB0B2C3C2256";
name = Bold;
paths = (
{
closed = 1;
nodes = (
"655 869 LINE",
"631 881 OFFCURVE",
"582 883 OFFCURVE",
"533 883 CURVE SMOOTH",
"498 883 LINE",
"497 893 OFFCURVE",
"497 905 OFFCURVE",
"496 920 CURVE SMOOTH",
"494 948 OFFCURVE",
"492 980 OFFCURVE",
"492 1009 CURVE",
"491 1023 OFFCURVE",
"491 1035 OFFCURVE",
"491 1045 CURVE SMOOTH",
"491 1121 OFFCURVE",
"495 1201 OFFCURVE",
"500 1277 CURVE",
"500 1282 OFFCURVE",
"500 1287 OFFCURVE",
"501 1292 CURVE SMOOTH",
"502 1297 OFFCURVE",
"502 1302 OFFCURVE",
"502 1307 CURVE SMOOTH",
"502 1384 LINE",
"535 1384 OFFCURVE",
"577 1385 OFFCURVE",
"618 1386 CURVE SMOOTH",
"659 1387 OFFCURVE",
"700 1389 OFFCURVE",
"732 1390 CURVE",
"730 1382 OFFCURVE",
"727 1371 OFFCURVE",
"724 1358 CURVE SMOOTH",
"717 1331 OFFCURVE",
"711 1303 OFFCURVE",
"705 1276 CURVE SMOOTH",
"702 1263 OFFCURVE",
"699 1252 OFFCURVE",
"698 1244 CURVE",
"677 1147 OFFCURVE",
"666 1056 OFFCURVE",
"666 970 CURVE SMOOTH",
"666 960 OFFCURVE",
"666 950 OFFCURVE",
"666 941 CURVE SMOOTH",
"666 932 OFFCURVE",
"666 922 OFFCURVE",
"667 912 CURVE"
);
},
{
closed = 1;
nodes = (
"328 884 LINE",
"322 884 OFFCURVE",
"315 884 OFFCURVE",
"308 884 CURVE",
"300 883 OFFCURVE",
"293 883 OFFCURVE",
"287 883 CURVE",
"267 882 OFFCURVE",
"245 882 OFFCURVE",
"220 882 CURVE",
"195 881 OFFCURVE",
"173 881 OFFCURVE",
"152 880 CURVE",
"169 1001 OFFCURVE",
"179 1104 OFFCURVE",
"179 1188 CURVE SMOOTH",
"179 1239 OFFCURVE",
"174 1304 OFFCURVE",
"163 1393 CURVE",
"239 1386 OFFCURVE",
"305 1384 OFFCURVE",
"384 1384 CURVE",
"379 1321 OFFCURVE",
"371 1244 OFFCURVE",
"363 1168 CURVE SMOOTH",
"354 1091 OFFCURVE",
"345 1013 OFFCURVE",
"337 950 CURVE SMOOTH"
);
}
);
width = 867;
}
);
unicode = 0022;
},
{
glyphname = numbersign;
lastChange = "2012-07-01 20:33:04 +0000";
layers = (
{
layerId = "0F287C55-347F-439B-BC0E-FB0B2C3C2256";
name = Bold;
paths = (
{
closed = 1;
nodes = (
"925 803 LINE",
"928 822 LINE",
"918 790 OFFCURVE",
"909 758 OFFCURVE",
"900 726 CURVE SMOOTH",
"891 693 OFFCURVE",
"881 661 OFFCURVE",
"872 628 CURVE",
"872 630 LINE",
"871 626 OFFCURVE",
"870 622 OFFCURVE",
"869 618 CURVE SMOOTH",
"868 614 OFFCURVE",
"866 610 OFFCURVE",
"865 606 CURVE SMOOTH",
"858 578 LINE",
"926 578 OFFCURVE",
"1000 577 OFFCURVE",
"1065 574 CURVE",
"1055 366 LINE",
"1014 368 OFFCURVE",
"972 370 OFFCURVE",
"929 371 CURVE SMOOTH",
"886 372 OFFCURVE",
"844 373 OFFCURVE",
"803 374 CURVE",
"788 318 OFFCURVE",
"772 254 OFFCURVE",
"756 191 CURVE SMOOTH",
"740 127 OFFCURVE",
"725 65 OFFCURVE",
"713 12 CURVE",
"702 13 OFFCURVE",
"691 13 OFFCURVE",
"681 13 CURVE SMOOTH",
"671 13 OFFCURVE",
"661 13 OFFCURVE",
"652 13 CURVE SMOOTH",
"645 13 OFFCURVE",
"639 13 OFFCURVE",
"633 14 CURVE",
"626 14 OFFCURVE",
"619 14 OFFCURVE",
"612 14 CURVE SMOOTH",
"599 14 LINE SMOOTH",
"596 14 OFFCURVE",
"589 14 OFFCURVE",
"579 15 CURVE",
"568 15 OFFCURVE",
"562 15 OFFCURVE",
"559 15 CURVE",
"590 136 OFFCURVE",
"623 255 OFFCURVE",
"656 376 CURVE",
"619 376 LINE SMOOTH",
"608 376 OFFCURVE",
"598 376 OFFCURVE",
"587 377 CURVE",
"576 377 OFFCURVE",
"566 377 OFFCURVE",
"557 377 CURVE SMOOTH",
"504 377 OFFCURVE",
"445 376 OFFCURVE",
"390 375 CURVE",
"374 318 OFFCURVE",
"355 254 OFFCURVE",
"336 191 CURVE SMOOTH",
"326 160 OFFCURVE",
"316 129 OFFCURVE",
"307 98 CURVE SMOOTH",
"298 67 OFFCURVE",
"289 39 OFFCURVE",
"280 12 CURVE",
"188 12 LINE",
"190 13 LINE",
"183 10 OFFCURVE",
"178 9 OFFCURVE",
"175 9 CURVE",
"172 8 OFFCURVE",
"169 8 OFFCURVE",
"166 8 CURVE",
"167 9 LINE",
"166 9 OFFCURVE",
"163 9 OFFCURVE",
"159 8 CURVE",
"154 7 OFFCURVE",
"149 6 OFFCURVE",
"144 5 CURVE SMOOTH",
"139 4 OFFCURVE",
"134 4 OFFCURVE",
"129 3 CURVE SMOOTH",
"124 2 OFFCURVE",
"121 1 OFFCURVE",
"120 1 CURVE",
"163 124 OFFCURVE",
"206 248 OFFCURVE",
"242 372 CURVE",
"202 372 LINE",
"193 371 OFFCURVE",
"182 370 OFFCURVE",
"171 370 CURVE SMOOTH",
"147 370 OFFCURVE",
"133 369 OFFCURVE",
"110 368 CURVE",
"98 367 OFFCURVE",
"88 367 OFFCURVE",
"81 366 CURVE",
"81 368 OFFCURVE",
"82 373 OFFCURVE",
"83 381 CURVE SMOOTH",
"84 388 OFFCURVE",
"84 396 OFFCURVE",
"85 405 CURVE SMOOTH",
"86 413 OFFCURVE",
"87 421 OFFCURVE",
"88 428 CURVE SMOOTH",
"89 435 OFFCURVE",
"89 440 OFFCURVE",
"89 442 CURVE",
"96 477 OFFCURVE",
"98 509 OFFCURVE",
"102 574 CURVE",
"131 574 LINE",
"146 575 OFFCURVE",
"162 575 OFFCURVE",
"179 575 CURVE SMOOTH",
"196 575 OFFCURVE",
"212 575 OFFCURVE",
"229 575 CURVE SMOOTH",
"266 575 LINE SMOOTH",
"273 575 OFFCURVE",
"279 575 OFFCURVE",
"286 576 CURVE",
"292 576 OFFCURVE",
"298 576 OFFCURVE",
"303 576 CURVE",
"294 543 LINE",
"301 567 OFFCURVE",
"308 589 OFFCURVE",
"314 610 CURVE SMOOTH",
"319 630 OFFCURVE",
"325 650 OFFCURVE",
"331 669 CURVE SMOOTH",
"342 708 OFFCURVE",
"353 747 OFFCURVE",
"366 796 CURVE",
"302 797 OFFCURVE",
"228 800 OFFCURVE",
"165 803 CURVE",
"166 819 OFFCURVE",
"169 846 OFFCURVE",
"171 873 CURVE SMOOTH",
"173 900 OFFCURVE",
"174 926 OFFCURVE",
"174 941 CURVE SMOOTH",
"174 944 OFFCURVE",
"174 948 OFFCURVE",
"174 955 CURVE SMOOTH",
"174 962 OFFCURVE",
"174 969 OFFCURVE",
"175 977 CURVE",
"175 984 OFFCURVE",
"175 991 OFFCURVE",
"175 998 CURVE SMOOTH",
"175 1005 OFFCURVE",
"175 1009 OFFCURVE",
"175 1011 CURVE",
"255 1004 OFFCURVE",
"340 1002 OFFCURVE",
"420 1001 CURVE",
"419 996 LINE",
"440 1077 OFFCURVE",
"461 1161 OFFCURVE",
"481 1244 CURVE",
"483 1251 OFFCURVE",
"485 1260 OFFCURVE",
"488 1271 CURVE SMOOTH",
"491 1282 OFFCURVE",
"494 1293 OFFCURVE",
"497 1304 CURVE SMOOTH",
"500 1315 OFFCURVE",
"502 1326 OFFCURVE",
"505 1337 CURVE",
"507 1347 OFFCURVE",
"509 1355 OFFCURVE",
"511 1362 CURVE",
"558 1361 OFFCURVE",
"622 1360 OFFCURVE",
"667 1360 CURVE",
"659 1329 OFFCURVE",
"647 1288 OFFCURVE",
"635 1246 CURVE SMOOTH",
"623 1204 OFFCURVE",
"611 1161 OFFCURVE",
"603 1132 CURVE",
"599 1113 OFFCURVE",
"593 1093 OFFCURVE",
"588 1074 CURVE",
"588 1075 LINE",
"585 1064 OFFCURVE",
"582 1055 OFFCURVE",
"581 1050 CURVE",
"578 1038 OFFCURVE",
"577 1032 OFFCURVE",
"574 1021 CURVE",
"573 1016 OFFCURVE",
"571 1008 OFFCURVE",
"568 998 CURVE",
"587 997 OFFCURVE",
"607 997 OFFCURVE",
"628 998 CURVE",
"649 998 OFFCURVE",
"669 998 OFFCURVE",
"688 998 CURVE SMOOTH",
"710 998 OFFCURVE",
"734 998 OFFCURVE",
"760 998 CURVE SMOOTH",
"785 998 OFFCURVE",
"809 998 OFFCURVE",
"832 999 CURVE",
"825 974 LINE",
"836 1009 OFFCURVE",
"846 1043 OFFCURVE",
"857 1078 CURVE SMOOTH",
"864 1099 OFFCURVE",
"871 1121 OFFCURVE",
"879 1146 CURVE SMOOTH",
"894 1194 OFFCURVE",
"910 1246 OFFCURVE",
"926 1295 CURVE SMOOTH",
"934 1320 OFFCURVE",
"942 1342 OFFCURVE",
"949 1362 CURVE",
"1053 1362 LINE",
"1050 1359 LINE",
"1059 1362 OFFCURVE",
"1064 1364 OFFCURVE",
"1065 1365 CURVE",
"1066 1365 OFFCURVE",
"1067 1365 OFFCURVE",
"1068 1365 CURVE",
"1067 1363 LINE",
"1068 1363 OFFCURVE",
"1070 1364 OFFCURVE",
"1075 1366 CURVE",
"1080 1367 OFFCURVE",
"1085 1369 OFFCURVE",
"1090 1371 CURVE",
"1095 1372 OFFCURVE",
"1100 1374 OFFCURVE",
"1105 1376 CURVE",
"1110 1377 OFFCURVE",
"1112 1378 OFFCURVE",
"1113 1378 CURVE",
"1107 1361 OFFCURVE",
"1100 1341 OFFCURVE",
"1091 1318 CURVE SMOOTH",
"1074 1271 OFFCURVE",
"1056 1221 OFFCURVE",
"1040 1175 CURVE SMOOTH",
"1032 1152 OFFCURVE",
"1026 1132 OFFCURVE",
"1021 1116 CURVE SMOOTH",
"1015 1097 OFFCURVE",
"1009 1078 OFFCURVE",
"1002 1059 CURVE SMOOTH",
"995 1040 OFFCURVE",
"989 1021 OFFCURVE",
"983 1002 CURVE",
"989 1002 OFFCURVE",
"995 1002 OFFCURVE",
"1001 1002 CURVE SMOOTH",
"1007 1002 OFFCURVE",
"1013 1002 OFFCURVE",
"1020 1003 CURVE",
"1040 1004 OFFCURVE",
"1062 1004 OFFCURVE",
"1087 1005 CURVE SMOOTH",
"1112 1006 OFFCURVE",
"1133 1007 OFFCURVE",
"1152 1008 CURVE",
"1127 802 LINE",
"1112 802 OFFCURVE",
"1093 801 OFFCURVE",
"1082 800 CURVE",
"1032 798 OFFCURVE",
"981 797 OFFCURVE",
"929 797 CURVE",
"934 807 LINE"
);
},
{
closed = 1;
nodes = (
"812 408 LINE",
"811 403 OFFCURVE",
"809 397 OFFCURVE",
"808 391 CURVE",
"806 385 OFFCURVE",
"804 379 OFFCURVE",
"803 374 CURVE"
);
},
{
closed = 1;
nodes = (
"517 795 LINE",
"521 820 LINE",
"514 796 OFFCURVE",
"508 774 OFFCURVE",
"503 755 CURVE SMOOTH",
"492 716 OFFCURVE",
"483 682 OFFCURVE",
"472 643 CURVE SMOOTH",
"466 624 OFFCURVE",
"459 602 OFFCURVE",
"452 578 CURVE",
"640 578 LINE SMOOTH",
"653 578 OFFCURVE",
"665 578 OFFCURVE",
"677 579 CURVE",
"689 579 OFFCURVE",
"701 579 OFFCURVE",
"712 579 CURVE",
"703 545 LINE",
"718 597 OFFCURVE",
"728 634 OFFCURVE",
"739 671 CURVE SMOOTH",
"744 689 OFFCURVE",
"750 708 OFFCURVE",
"756 728 CURVE SMOOTH",
"761 747 OFFCURVE",
"768 770 OFFCURVE",
"775 795 CURVE",
"733 794 OFFCURVE",
"691 794 OFFCURVE",
"648 794 CURVE SMOOTH",
"605 794 OFFCURVE",
"563 794 OFFCURVE",
"523 794 CURVE",
"528 804 LINE"
);
}
);
width = 1231;
}
);
unicode = 0023;
},
{
glyphname = dollar;
lastChange = "2012-07-01 20:33:04 +0000";
layers = (
{
layerId = "0F287C55-347F-439B-BC0E-FB0B2C3C2256";
name = Bold;
paths = (
{
closed = 1;
nodes = (
"486 35 LINE",
"480 35 LINE SMOOTH",
"376 35 OFFCURVE",
"277 73 OFFCURVE",
"204 144 CURVE SMOOTH",
"131 215 OFFCURVE",
"82 317 OFFCURVE",
"77 445 CURVE",
"267 490 LINE",
"278 423 OFFCURVE",
"300 357 OFFCURVE",
"345 318 CURVE SMOOTH",
"376 291 OFFCURVE",
"439 280 OFFCURVE",
"503 273 CURVE",
"506 307 OFFCURVE",
"508 342 OFFCURVE",
"511 379 CURVE SMOOTH",
"514 415 OFFCURVE",
"516 449 OFFCURVE",
"519 481 CURVE",
"520 509 OFFCURVE",
"522 527 OFFCURVE",
"523 544 CURVE",
"524 552 OFFCURVE",
"524 561 OFFCURVE",
"525 571 CURVE SMOOTH",
"526 580 OFFCURVE",
"527 592 OFFCURVE",
"528 606 CURVE",
"523 607 OFFCURVE",
"519 609 OFFCURVE",
"514 610 CURVE SMOOTH",
"509 611 OFFCURVE",
"505 612 OFFCURVE",
"500 613 CURVE",
"453 626 OFFCURVE",
"402 640 OFFCURVE",
"334 677 CURVE",
"309 693 OFFCURVE",
"276 724 OFFCURVE",
"241 763 CURVE SMOOTH",
"198 814 OFFCURVE",
"182 888 OFFCURVE",
"182 972 CURVE SMOOTH",
"182 977 OFFCURVE",
"182 982 OFFCURVE",
"182 989 CURVE SMOOTH",
"182 996 OFFCURVE",
"182 1001 OFFCURVE",
"183 1006 CURVE",
"184 1019 OFFCURVE",
"186 1031 OFFCURVE",
"187 1042 CURVE SMOOTH",
"188 1053 OFFCURVE",
"189 1062 OFFCURVE",
"191 1071 CURVE SMOOTH",
"207 1147 OFFCURVE",
"239 1222 OFFCURVE",
"292 1259 CURVE SMOOTH",
"385 1323 OFFCURVE",
"482 1340 OFFCURVE",
"574 1343 CURVE",
"575 1363 OFFCURVE",
"576 1384 OFFCURVE",
"577 1407 CURVE SMOOTH",
"578 1430 OFFCURVE",
"578 1448 OFFCURVE",
"579 1461 CURVE",
"582 1461 OFFCURVE",
"587 1461 OFFCURVE",
"594 1461 CURVE",
"601 1460 OFFCURVE",
"606 1460 OFFCURVE",
"610 1460 CURVE SMOOTH",
"628 1460 LINE SMOOTH",
"645 1460 OFFCURVE",
"663 1460 OFFCURVE",
"684 1460 CURVE",
"705 1459 OFFCURVE",
"723 1459 OFFCURVE",
"740 1459 CURVE",
"740 1455 OFFCURVE",
"740 1449 OFFCURVE",
"739 1440 CURVE SMOOTH",
"738 1431 OFFCURVE",
"738 1422 OFFCURVE",
"738 1412 CURVE",
"737 1392 OFFCURVE",
"735 1373 OFFCURVE",
"734 1366 CURVE",
"734 1368 LINE",
"733 1363 OFFCURVE",
"733 1359 OFFCURVE",
"733 1355 CURVE",
"732 1350 OFFCURVE",
"732 1345 OFFCURVE",
"731 1340 CURVE",
"815 1333 OFFCURVE",
"901 1311 OFFCURVE",
"972 1260 CURVE",
"1004 1235 OFFCURVE",
"1030 1192 OFFCURVE",
"1051 1140 CURVE SMOOTH",
"1071 1088 OFFCURVE",
"1085 1027 OFFCURVE",
"1096 964 CURVE",
"1063 957 LINE",
"1056 956 OFFCURVE",
"1049 954 OFFCURVE",
"1042 953 CURVE",
"1035 951 OFFCURVE",
"1029 949 OFFCURVE",
"1022 948 CURVE",
"1002 944 OFFCURVE",
"982 940 OFFCURVE",
"961 936 CURVE",
"940 931 OFFCURVE",
"919 927 OFFCURVE",
"898 923 CURVE",
"890 967 OFFCURVE",
"870 1011 OFFCURVE",
"839 1045 CURVE SMOOTH",
"808 1079 OFFCURVE",
"767 1102 OFFCURVE",
"716 1105 CURVE",
"712 1054 OFFCURVE",
"708 1010 OFFCURVE",
"704 965 CURVE SMOOTH",
"700 920 OFFCURVE",
"696 874 OFFCURVE",
"692 819 CURVE",
"756 804 OFFCURVE",
"819 785 OFFCURVE",
"880 760 CURVE",
"917 737 OFFCURVE",
"957 714 OFFCURVE",
"997 669 CURVE SMOOTH",
"1044 614 OFFCURVE",
"1063 531 OFFCURVE",
"1063 439 CURVE SMOOTH",
"1063 434 OFFCURVE",
"1063 428 OFFCURVE",
"1063 421 CURVE SMOOTH",
"1063 414 OFFCURVE",
"1063 409 OFFCURVE",
"1062 404 CURVE",
"1061 377 OFFCURVE",
"1059 355 OFFCURVE",
"1055 336 CURVE",
"1055 337 LINE",
"1036 257 OFFCURVE",
"996 177 OFFCURVE",
"943 132 CURVE",
"896 97 OFFCURVE",
"844 75 OFFCURVE",
"792 59 CURVE SMOOTH",
"740 43 OFFCURVE",
"689 36 OFFCURVE",
"642 33 CURVE",
"641 8 OFFCURVE",
"640 -17 OFFCURVE",
"639 -44 CURVE SMOOTH",
"638 -71 OFFCURVE",
"637 -93 OFFCURVE",
"636 -112 CURVE",
"611 -111 OFFCURVE",
"584 -110 OFFCURVE",
"556 -110 CURVE SMOOTH",
"527 -110 OFFCURVE",
"501 -110 OFFCURVE",
"476 -110 CURVE",
"476 -105 OFFCURVE",
"476 -98 OFFCURVE",
"477 -89 CURVE SMOOTH",
"478 -80 OFFCURVE",
"478 -70 OFFCURVE",
"479 -59 CURVE SMOOTH",
"480 -49 OFFCURVE",
"480 -39 OFFCURVE",
"481 -30 CURVE SMOOTH",
"482 -21 OFFCURVE",
"482 -14 OFFCURVE",
"482 -9 CURVE",
"483 1 OFFCURVE",
"484 12 OFFCURVE",
"485 24 CURVE SMOOTH"
);
},
{
closed = 1;
nodes = (
"872 423 LINE SMOOTH",
"872 424 OFFCURVE",
"872 426 OFFCURVE",
"873 428 CURVE",
"873 429 OFFCURVE",
"873 431 OFFCURVE",
"873 432 CURVE SMOOTH",
"873 459 OFFCURVE",
"867 490 OFFCURVE",
"804 527 CURVE SMOOTH",
"783 540 OFFCURVE",
"746 551 OFFCURVE",
"703 562 CURVE",
"694 563 OFFCURVE",
"684 566 OFFCURVE",
"675 569 CURVE",
"674 560 OFFCURVE",
"673 551 OFFCURVE",
"673 542 CURVE",
"672 533 OFFCURVE",
"672 523 OFFCURVE",
"671 514 CURVE SMOOTH",
"669 491 OFFCURVE",
"667 469 OFFCURVE",
"666 450 CURVE",
"662 411 OFFCURVE",
"660 376 OFFCURVE",
"657 337 CURVE SMOOTH",
"656 318 OFFCURVE",
"654 296 OFFCURVE",
"653 273 CURVE",
"709 276 OFFCURVE",
"768 289 OFFCURVE",
"803 313 CURVE",
"840 342 OFFCURVE",
"864 368 OFFCURVE",
"869 391 CURVE SMOOTH",
"870 396 OFFCURVE",
"870 401 OFFCURVE",
"871 406 CURVE SMOOTH",
"872 411 OFFCURVE",
"872 414 OFFCURVE",
"872 415 CURVE SMOOTH"
);
},
{
closed = 1;
nodes = (
"372 987 LINE",
"371 984 OFFCURVE",
"371 981 OFFCURVE",
"371 980 CURVE SMOOTH",
"371 978 OFFCURVE",
"371 976 OFFCURVE",
"371 975 CURVE SMOOTH",
"371 943 OFFCURVE",
"393 917 OFFCURVE",
"425 897 CURVE SMOOTH",
"457 876 OFFCURVE",
"501 860 OFFCURVE",
"545 851 CURVE",
"548 874 OFFCURVE",
"549 892 OFFCURVE",
"550 915 CURVE",
"551 924 OFFCURVE",
"551 932 OFFCURVE",
"552 940 CURVE",
"552 956 OFFCURVE",
"555 984 OFFCURVE",
"557 1006 CURVE SMOOTH",
"559 1028 OFFCURVE",
"560 1047 OFFCURVE",
"561 1069 CURVE",
"562 1080 OFFCURVE",
"562 1093 OFFCURVE",
"563 1109 CURVE",
"518 1106 OFFCURVE",
"477 1101 OFFCURVE",
"450 1088 CURVE",
"451 1089 LINE",
"400 1060 OFFCURVE",
"380 1033 OFFCURVE",
"376 1012 CURVE",
"376 1020 LINE",
"375 1019 OFFCURVE",
"375 1017 OFFCURVE",
"375 1015 CURVE SMOOTH",
"375 1012 LINE",
"373 1001 OFFCURVE",
"372 994 OFFCURVE",
"372 993 CURVE SMOOTH"
);
}
);
width = 1191;
}
);
unicode = 0024;
},
{
glyphname = percent;
lastChange = "2012-07-01 20:33:04 +0000";
layers = (
{
layerId = "0F287C55-347F-439B-BC0E-FB0B2C3C2256";
name = Bold;
paths = (
{
closed = 1;
nodes = (
"1592 442 LINE",
"1589 382 OFFCURVE",
"1586 319 OFFCURVE",
"1574 264 CURVE SMOOTH",
"1561 205 OFFCURVE",
"1544 152 OFFCURVE",
"1521 113 CURVE SMOOTH",
"1497 70 OFFCURVE",
"1465 41 OFFCURVE",
"1430 22 CURVE SMOOTH",
"1394 3 OFFCURVE",
"1357 -5 OFFCURVE",
"1324 -5 CURVE SMOOTH",
"1299 -5 LINE",
"1291 -5 LINE SMOOTH",
"1192 -5 OFFCURVE",
"1118 44 OFFCURVE",
"1070 117 CURVE SMOOTH",
"1021 189 OFFCURVE",
"997 287 OFFCURVE",
"997 387 CURVE SMOOTH",
"997 412 OFFCURVE",
"999 439 OFFCURVE",
"1002 460 CURVE",
"1005 508 OFFCURVE",
"1010 553 OFFCURVE",
"1018 594 CURVE",
"1028 637 OFFCURVE",
"1039 673 OFFCURVE",
"1051 704 CURVE",
"1079 767 OFFCURVE",
"1121 817 OFFCURVE",
"1169 852 CURVE SMOOTH",
"1216 887 OFFCURVE",
"1267 906 OFFCURVE",
"1312 906 CURVE SMOOTH",
"1313 906 OFFCURVE",
"1314 906 OFFCURVE",
"1315 906 CURVE",
"1316 905 OFFCURVE",
"1318 905 OFFCURVE",
"1319 905 CURVE SMOOTH",
"1342 905 LINE SMOOTH",
"1387 905 OFFCURVE",
"1431 889 OFFCURVE",
"1468 861 CURVE SMOOTH",
"1505 833 OFFCURVE",
"1536 793 OFFCURVE",
"1555 745 CURVE SMOOTH",
"1586 661 OFFCURVE",
"1593 572 OFFCURVE",
"1593 487 CURVE SMOOTH",
"1593 483 OFFCURVE",
"1593 479 OFFCURVE",
"1593 476 CURVE",
"1592 472 OFFCURVE",
"1592 468 OFFCURVE",
"1592 465 CURVE SMOOTH"
);
},
{
closed = 1;
nodes = (
"771 408 OFFCURVE",
"635 216 OFFCURVE",
"488 29 CURVE",
"489 15 LINE",
"474 15 OFFCURVE",
"456 15 OFFCURVE",
"434 14 CURVE SMOOTH",
"411 13 OFFCURVE",
"388 13 OFFCURVE",
"365 13 CURVE SMOOTH",
"317 12 OFFCURVE",
"269 10 OFFCURVE",
"240 9 CURVE",
"320 106 OFFCURVE",
"410 223 OFFCURVE",
"499 340 CURVE SMOOTH",
"587 456 OFFCURVE",
"674 574 OFFCURVE",
"746 675 CURVE SMOOTH",
"755 688 OFFCURVE",
"764 700 OFFCURVE",
"773 713 CURVE",
"782 725 OFFCURVE",
"791 737 OFFCURVE",
"800 750 CURVE SMOOTH",
"836 800 OFFCURVE",
"873 851 OFFCURVE",
"911 904 CURVE SMOOTH",
"986 1008 OFFCURVE",
"1063 1114 OFFCURVE",
"1141 1217 CURVE SMOOTH",
"1180 1268 OFFCURVE",
"1218 1318 OFFCURVE",
"1257 1367 CURVE",
"1310 1367 LINE",
"1321 1368 OFFCURVE",
"1332 1369 OFFCURVE",
"1344 1369 CURVE SMOOTH",
"1368 1369 OFFCURVE",
"1378 1370 OFFCURVE",
"1401 1371 CURVE",
"1412 1372 OFFCURVE",
"1424 1372 OFFCURVE",
"1437 1373 CURVE SMOOTH",
"1450 1374 OFFCURVE",
"1462 1374 OFFCURVE",
"1473 1375 CURVE SMOOTH",
"1484 1376 OFFCURVE",
"1492 1376 OFFCURVE",
"1496 1376 CURVE",
"1409 1271 OFFCURVE",
"1310 1143 OFFCURVE",
"1214 1015 CURVE SMOOTH",
"1117 887 OFFCURVE",
"1021 758 OFFCURVE",
"942 649 CURVE",
"937 641 OFFCURVE",
"931 633 OFFCURVE",
"925 625 CURVE SMOOTH",
"919 617 OFFCURVE",
"913 609 OFFCURVE",
"908 601 CURVE"
);
},
{
closed = 1;
nodes = (
"444 1386 LINE SMOOTH",
"541 1386 OFFCURVE",
"614 1337 OFFCURVE",
"662 1264 CURVE SMOOTH",
"709 1191 OFFCURVE",
"732 1093 OFFCURVE",
"732 994 CURVE SMOOTH",
"732 969 OFFCURVE",
"731 943 OFFCURVE",
"728 922 CURVE",
"724 875 OFFCURVE",
"719 833 OFFCURVE",
"711 794 CURVE",
"711 795 LINE",
"695 719 OFFCURVE",
"673 652 OFFCURVE",
"634 599 CURVE",
"605 556 OFFCURVE",
"567 526 OFFCURVE",
"527 506 CURVE SMOOTH",
"487 486 OFFCURVE",
"446 476 OFFCURVE",
"409 476 CURVE SMOOTH",
"403 476 LINE",
"393 476 LINE",
"385 476 LINE SMOOTH",
"289 476 OFFCURVE",
"228 527 OFFCURVE",
"189 603 CURVE SMOOTH",
"150 678 OFFCURVE",
"136 775 OFFCURVE",
"136 870 CURVE SMOOTH",
"136 885 OFFCURVE",
"137 903 OFFCURVE",
"138 919 CURVE",
"138 922 OFFCURVE",
"138 926 OFFCURVE",
"139 930 CURVE",
"139 933 OFFCURVE",
"139 937 OFFCURVE",
"139 940 CURVE",
"142 1008 OFFCURVE",
"145 1075 OFFCURVE",
"158 1135 CURVE",
"158 1133 LINE",
"165 1166 OFFCURVE",
"169 1182 OFFCURVE",
"174 1198 CURVE SMOOTH",
"194 1262 OFFCURVE",
"230 1310 OFFCURVE",
"271 1342 CURVE SMOOTH",
"312 1374 OFFCURVE",
"359 1389 OFFCURVE",
"402 1389 CURVE SMOOTH",
"409 1389 OFFCURVE",
"417 1388 OFFCURVE",
"436 1385 CURVE",
"435 1386 LINE"
);
},
{
closed = 1;
nodes = (
"1422 533 LINE SMOOTH",
"1422 576 OFFCURVE",
"1422 621 OFFCURVE",
"1407 661 CURVE",
"1407 660 LINE",
"1399 681 OFFCURVE",
"1370 699 OFFCURVE",
"1323 699 CURVE SMOOTH",
"1316 699 LINE SMOOTH",
"1269 699 OFFCURVE",
"1229 682 OFFCURVE",
"1216 655 CURVE SMOOTH",
"1200 622 OFFCURVE",
"1192 598 OFFCURVE",
"1187 578 CURVE SMOOTH",
"1184 565 OFFCURVE",
"1182 552 OFFCURVE",
"1181 541 CURVE SMOOTH",
"1180 530 OFFCURVE",
"1178 519 OFFCURVE",
"1177 508 CURVE",
"1176 501 OFFCURVE",
"1176 494 OFFCURVE",
"1176 487 CURVE",
"1175 480 OFFCURVE",
"1174 473 OFFCURVE",
"1173 466 CURVE SMOOTH",
"1170 444 LINE",
"1170 433 LINE SMOOTH",
"1170 389 OFFCURVE",
"1173 338 OFFCURVE",
"1190 294 CURVE SMOOTH",
"1206 250 OFFCURVE",
"1236 214 OFFCURVE",
"1291 202 CURVE",
"1290 203 LINE",
"1295 203 LINE SMOOTH",
"1346 203 OFFCURVE",
"1389 239 OFFCURVE",
"1398 272 CURVE SMOOTH",
"1401 283 OFFCURVE",
"1404 292 OFFCURVE",
"1405 300 CURVE",
"1418 359 OFFCURVE",
"1422 406 OFFCURVE",
"1422 451 CURVE SMOOTH"
);
},
{
closed = 1;
nodes = (
"558 945 LINE SMOOTH",
"559 965 OFFCURVE",
"560 985 OFFCURVE",
"560 1005 CURVE SMOOTH",
"560 1048 OFFCURVE",
"555 1091 OFFCURVE",
"535 1134 CURVE SMOOTH",
"524 1158 OFFCURVE",
"493 1176 OFFCURVE",
"442 1179 CURVE",
"439 1179 LINE SMOOTH",
"419 1179 OFFCURVE",
"396 1174 OFFCURVE",
"377 1165 CURVE SMOOTH",
"358 1156 OFFCURVE",
"342 1143 OFFCURVE",
"337 1130 CURVE",
"328 1113 OFFCURVE",
"324 1098 OFFCURVE",
"321 1083 CURVE SMOOTH",
"317 1064 OFFCURVE",
"314 1047 OFFCURVE",
"313 1031 CURVE SMOOTH",
"312 1014 OFFCURVE",
"310 999 OFFCURVE",
"309 984 CURVE",
"309 981 OFFCURVE",
"309 979 OFFCURVE",
"309 976 CURVE",
"308 973 OFFCURVE",
"308 971 OFFCURVE",
"308 968 CURVE",
"306 927 LINE",
"304 907 OFFCURVE",
"303 888 OFFCURVE",
"303 871 CURVE SMOOTH",
"303 836 OFFCURVE",
"306 799 OFFCURVE",
"314 759 CURVE",
"314 760 LINE",
"322 717 OFFCURVE",
"350 684 OFFCURVE",
"410 684 CURVE SMOOTH",
"417 684 LINE SMOOTH",
"473 684 OFFCURVE",
"513 718 OFFCURVE",
"525 753 CURVE",
"524 751 LINE",
"533 782 OFFCURVE",
"538 799 OFFCURVE",
"541 814 CURVE SMOOTH",
"552 861 OFFCURVE",
"556 899 OFFCURVE",
"557 932 CURVE"
);
}
);
width = 1730;
}
);
unicode = 0025;
},
{
glyphname = ampersand;
lastChange = "2012-07-01 20:33:04 +0000";
layers = (
{
layerId = "0F287C55-347F-439B-BC0E-FB0B2C3C2256";
name = Bold;
paths = (
{
closed = 1;
nodes = (
"1000 -2 OFFCURVE",
"906 37 OFFCURVE",
"829 118 CURVE",
"769 69 OFFCURVE",
"723 49 OFFCURVE",
"680 33 CURVE SMOOTH",
"612 9 OFFCURVE",
"544 -1 OFFCURVE",
"485 -2 CURVE SMOOTH",
"468 -2 LINE SMOOTH",
"416 -2 OFFCURVE",
"364 3 OFFCURVE",
"313 18 CURVE SMOOTH",
"261 33 OFFCURVE",
"213 57 OFFCURVE",
"172 94 CURVE SMOOTH",
"119 145 OFFCURVE",
"95 228 OFFCURVE",
"95 323 CURVE SMOOTH",
"95 350 OFFCURVE",
"97 375 OFFCURVE",
"101 398 CURVE",
"102 409 OFFCURVE",
"103 419 OFFCURVE",
"104 426 CURVE SMOOTH",
"105 433 OFFCURVE",
"106 439 OFFCURVE",
"107 446 CURVE",
"124 527 OFFCURVE",
"164 604 OFFCURVE",
"217 668 CURVE SMOOTH",
"270 731 OFFCURVE",
"338 781 OFFCURVE",
"411 812 CURVE",
"403 840 OFFCURVE",
"396 870 OFFCURVE",
"389 898 CURVE",
"382 942 OFFCURVE",
"375 991 OFFCURVE",
"375 1048 CURVE SMOOTH",
"375 1107 OFFCURVE",
"385 1161 OFFCURVE",
"420 1227 CURVE SMOOTH",
"437 1260 OFFCURVE",
"461 1289 OFFCURVE",
"490 1314 CURVE",
"558 1362 OFFCURVE",
"634 1373 OFFCURVE",
"702 1373 CURVE SMOOTH",
"717 1373 LINE SMOOTH",
"797 1373 OFFCURVE",
"881 1351 OFFCURVE",
"949 1291 CURVE",
"949 1292 LINE",
"997 1253 OFFCURVE",
"1023 1183 OFFCURVE",
"1023 1099 CURVE SMOOTH",
"1023 1092 OFFCURVE",
"1023 1085 OFFCURVE",
"1023 1078 CURVE SMOOTH",
"1023 1071 OFFCURVE",
"1022 1064 OFFCURVE",
"1021 1059 CURVE",
"1021 1040 OFFCURVE",
"1019 1033 OFFCURVE",
"1016 1022 CURVE",
"1016 1023 LINE",
"997 935 OFFCURVE",
"945 867 OFFCURVE",
"880 812 CURVE SMOOTH",
"815 756 OFFCURVE",
"736 716 OFFCURVE",
"665 687 CURVE",
"709 602 OFFCURVE",
"765 517 OFFCURVE",
"836 426 CURVE",
"884 481 OFFCURVE",
"920 538 OFFCURVE",
"949 598 CURVE SMOOTH",
"977 657 OFFCURVE",
"999 716 OFFCURVE",
"1018 776 CURVE",
"1026 773 OFFCURVE",
"1034 771 OFFCURVE",
"1042 769 CURVE SMOOTH",
"1058 765 OFFCURVE",
"1071 761 OFFCURVE",
"1084 756 CURVE",
"1091 753 OFFCURVE",
"1097 751 OFFCURVE",
"1104 749 CURVE",
"1177 725 LINE",
"1121 550 OFFCURVE",
"1058 396 OFFCURVE",
"977 275 CURVE",
"1010 247 OFFCURVE",
"1054 228 OFFCURVE",
"1111 228 CURVE SMOOTH",
"1125 228 LINE SMOOTH",
"1160 228 OFFCURVE",
"1196 233 OFFCURVE",
"1232 243 CURVE",
"1232 239 OFFCURVE",
"1232 233 OFFCURVE",
"1233 224 CURVE SMOOTH",
"1234 215 OFFCURVE",
"1234 205 OFFCURVE",
"1235 196 CURVE",
"1235 187 OFFCURVE",
"1235 178 OFFCURVE",
"1236 169 CURVE",
"1236 160 OFFCURVE",
"1236 154 OFFCURVE",
"1236 150 CURVE SMOOTH",
"1236 133 OFFCURVE",
"1238 106 OFFCURVE",
"1240 79 CURVE SMOOTH",
"1241 66 OFFCURVE",
"1241 53 OFFCURVE",
"1242 40 CURVE SMOOTH",
"1243 27 OFFCURVE",
"1243 16 OFFCURVE",
"1244 7 CURVE",
"1197 -8 OFFCURVE",
"1163 -10 OFFCURVE",
"1127 -10 CURVE SMOOTH",
"1122 -10 OFFCURVE",
"1117 -10 OFFCURVE",
"1112 -10 CURVE SMOOTH",
"1107 -10 OFFCURVE",
"1101 -10 OFFCURVE",
"1096 -9 CURVE"
);
},
{
closed = 1;
nodes = (
"844 1075 LINE",
"845 1078 OFFCURVE",
"845 1081 OFFCURVE",
"845 1084 CURVE SMOOTH",
"845 1105 OFFCURVE",
"830 1124 OFFCURVE",
"807 1137 CURVE",
"783 1149 OFFCURVE",
"751 1156 OFFCURVE",
"718 1156 CURVE SMOOTH",
"706 1156 LINE SMOOTH",
"663 1156 OFFCURVE",
"620 1150 OFFCURVE",
"597 1129 CURVE",
"597 1132 LINE",
"583 1116 OFFCURVE",
"573 1103 OFFCURVE",
"567 1093 CURVE",
"560 1083 OFFCURVE",
"556 1074 OFFCURVE",
"555 1067 CURVE",
"552 1055 OFFCURVE",
"551 1046 OFFCURVE",
"551 1039 CURVE SMOOTH",
"551 1022 LINE SMOOTH",
"551 979 OFFCURVE",
"560 932 OFFCURVE",
"579 883 CURVE",
"582 884 OFFCURVE",
"586 886 OFFCURVE",
"589 888 CURVE",
"592 889 OFFCURVE",
"596 891 OFFCURVE",
"599 892 CURVE",
"599 891 LINE",
"650 911 OFFCURVE",
"708 936 OFFCURVE",
"756 966 CURVE SMOOTH",
"803 996 OFFCURVE",
"839 1030 OFFCURVE",
"844 1073 CURVE"
);
},
{
closed = 1;
nodes = (
"610 263 LINE SMOOTH",
"637 265 OFFCURVE",
"661 271 OFFCURVE",
"682 282 CURVE",
"614 377 OFFCURVE",
"550 482 OFFCURVE",
"493 607 CURVE",
"445 588 OFFCURVE",
"400 559 OFFCURVE",
"364 527 CURVE SMOOTH",
"328 494 OFFCURVE",
"303 457 OFFCURVE",
"295 421 CURVE SMOOTH",
"293 413 OFFCURVE",
"292 406 OFFCURVE",
"291 399 CURVE SMOOTH",
"290 392 OFFCURVE",
"290 386 OFFCURVE",
"289 382 CURVE",
"289 377 LINE SMOOTH",
"289 354 OFFCURVE",
"310 327 OFFCURVE",
"337 300 CURVE SMOOTH",
"368 268 OFFCURVE",
"430 257 OFFCURVE",
"497 257 CURVE SMOOTH",
"516 257 LINE SMOOTH",
"534 257 OFFCURVE",
"554 258 OFFCURVE",
"575 260 CURVE SMOOTH"
);
},
{
closed = 1;
nodes = (
"703 274 LINE",
"706 299 LINE",
"699 292 OFFCURVE",
"691 287 OFFCURVE",
"682 282 CURVE",
"686 277 OFFCURVE",
"690 271 OFFCURVE",
"695 266 CURVE",
"699 260 OFFCURVE",
"703 254 OFFCURVE",
"707 249 CURVE",
"706 289 LINE"
);
}
);
width = 1352;
}
);
unicode = 0026;
},
{
glyphname = quotesingle;
lastChange = "2012-07-01 20:33:04 +0000";
layers = (
{
layerId = "0F287C55-347F-439B-BC0E-FB0B2C3C2256";
name = Bold;
paths = (
{
closed = 1;
nodes = (
"368 892 LINE",
"371 858 LINE",
"323 864 OFFCURVE",
"274 867 OFFCURVE",
"224 867 CURVE SMOOTH",
"204 867 OFFCURVE",
"171 866 OFFCURVE",
"150 865 CURVE",
"154 926 OFFCURVE",
"158 1000 OFFCURVE",
"162 1073 CURVE SMOOTH",
"165 1145 OFFCURVE",
"167 1217 OFFCURVE",
"167 1277 CURVE SMOOTH",
"167 1284 OFFCURVE",
"167 1294 OFFCURVE",
"167 1306 CURVE",
"166 1318 OFFCURVE",
"166 1331 OFFCURVE",
"166 1344 CURVE",
"165 1357 OFFCURVE",
"165 1369 OFFCURVE",
"165 1381 CURVE",
"164 1393 OFFCURVE",
"164 1403 OFFCURVE",
"164 1410 CURVE",
"213 1403 OFFCURVE",
"260 1401 OFFCURVE",
"308 1401 CURVE SMOOTH",
"344 1401 OFFCURVE",
"398 1403 OFFCURVE",
"435 1406 CURVE",
"400 1215 OFFCURVE",
"373 1038 OFFCURVE",
"369 891 CURVE"
);
}
);
width = 537;
}
);
unicode = 0027;
},
{
glyphname = parenleft;
lastChange = "2012-07-01 20:33:04 +0000";
layers = (
{
layerId = "0F287C55-347F-439B-BC0E-FB0B2C3C2256";
name = Bold;
paths = (
{
closed = 1;
nodes = (
"101 547 LINE",
"108 614 OFFCURVE",
"117 674 OFFCURVE",
"129 730 CURVE",
"129 729 LINE",
"152 836 OFFCURVE",
"183 934 OFFCURVE",
"227 1026 CURVE SMOOTH",
"303 1183 OFFCURVE",
"407 1315 OFFCURVE",
"527 1423 CURVE",
"566 1420 OFFCURVE",
"595 1418 OFFCURVE",
"634 1418 CURVE SMOOTH",
"641 1418 OFFCURVE",
"652 1418 OFFCURVE",
"667 1419 CURVE",
"682 1419 OFFCURVE",
"699 1419 OFFCURVE",
"716 1420 CURVE",
"733 1420 OFFCURVE",
"750 1420 OFFCURVE",
"766 1421 CURVE SMOOTH",
"781 1422 OFFCURVE",
"792 1422 OFFCURVE",
"798 1422 CURVE",
"714 1338 OFFCURVE",
"635 1254 OFFCURVE",
"569 1175 CURVE SMOOTH",
"503 1095 OFFCURVE",
"450 1021 OFFCURVE",
"418 956 CURVE",
"418 957 LINE",
"373 860 OFFCURVE",
"340 766 OFFCURVE",
"321 673 CURVE SMOOTH",
"309 620 OFFCURVE",
"302 572 OFFCURVE",
"298 528 CURVE SMOOTH",
"294 483 OFFCURVE",
"292 438 OFFCURVE",
"292 394 CURVE SMOOTH",
"292 295 OFFCURVE",
"303 195 OFFCURVE",
"327 94 CURVE SMOOTH",
"344 22 OFFCURVE",
"381 -60 OFFCURVE",
"428 -146 CURVE SMOOTH",
"475 -232 OFFCURVE",
"530 -323 OFFCURVE",
"586 -412 CURVE",
"489 -389 OFFCURVE",
"414 -377 OFFCURVE",
"353 -370 CURVE",
"257 -246 OFFCURVE",
"169 -106 OFFCURVE",
"128 63 CURVE SMOOTH",
"105 159 OFFCURVE",
"95 270 OFFCURVE",
"95 386 CURVE SMOOTH",
"95 439 OFFCURVE",
"96 493 OFFCURVE",
"101 542 CURVE"
);
}
);
width = 833;
}
);
unicode = 0028;
},
{
glyphname = parenright;
lastChange = "2012-07-01 20:33:04 +0000";
layers = (
{
layerId = "0F287C55-347F-439B-BC0E-FB0B2C3C2256";
name = Bold;
paths = (
{
closed = 1;
nodes = (
"729 515 LINE",
"734 514 LINE",
"726 450 OFFCURVE",
"717 391 OFFCURVE",
"706 338 CURVE SMOOTH",
"683 231 OFFCURVE",
"652 126 OFFCURVE",
"607 33 CURVE SMOOTH",
"534 -120 OFFCURVE",
"430 -251 OFFCURVE",
"310 -360 CURVE",
"279 -357 OFFCURVE",
"237 -357 OFFCURVE",
"194 -357 CURVE SMOOTH",
"182 -357 OFFCURVE",
"148 -358 OFFCURVE",
"114 -359 CURVE SMOOTH",
"97 -360 OFFCURVE",
"80 -360 OFFCURVE",
"65 -361 CURVE SMOOTH",
"50 -362 OFFCURVE",
"39 -362 OFFCURVE",
"33 -362 CURVE",
"117 -281 OFFCURVE",
"197 -196 OFFCURVE",
"264 -116 CURVE SMOOTH",
"331 -37 OFFCURVE",
"383 39 OFFCURVE",
"415 104 CURVE SMOOTH",
"458 193 OFFCURVE",
"492 301 OFFCURVE",
"511 382 CURVE SMOOTH",
"523 437 OFFCURVE",
"531 487 OFFCURVE",
"535 531 CURVE SMOOTH",
"540 579 OFFCURVE",
"541 625 OFFCURVE",
"541 669 CURVE SMOOTH",
"541 765 OFFCURVE",
"530 871 OFFCURVE",
"507 967 CURVE SMOOTH",
"490 1031 OFFCURVE",
"461 1100 OFFCURVE",
"427 1169 CURVE SMOOTH",
"410 1204 OFFCURVE",
"392 1238 OFFCURVE",
"373 1272 CURVE SMOOTH",
"354 1305 OFFCURVE",
"335 1338 OFFCURVE",
"317 1370 CURVE",
"318 1369 LINE",
"317 1371 OFFCURVE",
"313 1377 OFFCURVE",
"306 1388 CURVE SMOOTH",
"299 1399 OFFCURVE",
"292 1410 OFFCURVE",
"285 1423 CURVE",
"277 1436 OFFCURVE",
"270 1447 OFFCURVE",
"263 1458 CURVE SMOOTH",
"256 1469 OFFCURVE",
"252 1475 OFFCURVE",
"251 1477 CURVE",
"347 1450 OFFCURVE",
"419 1438 OFFCURVE",
"483 1431 CURVE",
"530 1371 OFFCURVE",
"574 1301 OFFCURVE",
"613 1228 CURVE SMOOTH",
"652 1155 OFFCURVE",
"684 1076 OFFCURVE",
"704 996 CURVE SMOOTH",
"728 899 OFFCURVE",
"739 780 OFFCURVE",
"739 660 CURVE SMOOTH",
"739 613 OFFCURVE",
"738 572 OFFCURVE",
"735 528 CURVE",
"735 526 LINE SMOOTH",
"735 525 OFFCURVE",
"735 525 OFFCURVE",
"736 525 CURVE"
);
}
);
width = 834;
}
);
unicode = 0029;
},
{
glyphname = asterisk;
lastChange = "2012-07-01 20:33:04 +0000";
layers = (
{
layerId = "0F287C55-347F-439B-BC0E-FB0B2C3C2256";
name = Bold;
paths = (
{
closed = 1;
nodes = (
"517 1130 LINE",
"588 1155 OFFCURVE",
"668 1187 OFFCURVE",
"736 1214 CURVE",
"737 1209 OFFCURVE",
"738 1202 OFFCURVE",
"740 1194 CURVE SMOOTH",
"742 1185 OFFCURVE",
"744 1177 OFFCURVE",
"746 1168 CURVE SMOOTH",
"750 1150 OFFCURVE",
"754 1131 OFFCURVE",
"757 1122 CURVE",
"758 1109 OFFCURVE",
"762 1094 OFFCURVE",
"767 1075 CURVE",
"769 1066 OFFCURVE",
"771 1056 OFFCURVE",
"773 1045 CURVE SMOOTH",
"777 1024 OFFCURVE",
"781 1003 OFFCURVE",
"784 994 CURVE",
"717 975 OFFCURVE",
"637 955 OFFCURVE",
"565 936 CURVE",
"576 920 OFFCURVE",
"587 902 OFFCURVE",
"600 883 CURVE SMOOTH",
"625 844 OFFCURVE",
"651 806 OFFCURVE",
"675 771 CURVE SMOOTH",
"687 753 OFFCURVE",
"698 738 OFFCURVE",
"707 725 CURVE",
"700 721 OFFCURVE",
"692 716 OFFCURVE",
"682 710 CURVE SMOOTH",
"672 704 OFFCURVE",
"662 698 OFFCURVE",
"652 692 CURVE SMOOTH",
"631 679 OFFCURVE",
"609 667 OFFCURVE",
"597 660 CURVE",
"590 655 OFFCURVE",
"582 651 OFFCURVE",
"574 646 CURVE",
"565 641 OFFCURVE",
"557 635 OFFCURVE",
"549 630 CURVE",
"506 701 OFFCURVE",
"462 782 OFFCURVE",
"427 859 CURVE",
"415 842 OFFCURVE",
"403 823 OFFCURVE",
"390 804 CURVE SMOOTH",
"377 785 OFFCURVE",
"363 765 OFFCURVE",
"350 746 CURVE",
"336 727 OFFCURVE",
"323 708 OFFCURVE",
"310 689 CURVE SMOOTH",
"297 670 OFFCURVE",
"284 652 OFFCURVE",
"272 636 CURVE",
"271 637 OFFCURVE",
"269 638 OFFCURVE",
"266 640 CURVE SMOOTH",
"263 642 OFFCURVE",
"257 646 OFFCURVE",
"248 652 CURVE",
"249 651 LINE",
"246 652 OFFCURVE",
"242 654 OFFCURVE",
"239 657 CURVE",
"236 659 OFFCURVE",
"232 661 OFFCURVE",
"228 663 CURVE",
"189 688 LINE",
"189 687 LINE",
"182 691 OFFCURVE",
"166 701 OFFCURVE",
"150 712 CURVE",
"142 717 OFFCURVE",
"134 723 OFFCURVE",
"127 728 CURVE",
"119 733 OFFCURVE",
"114 736 OFFCURVE",
"111 738 CURVE",
"120 748 OFFCURVE",
"130 760 OFFCURVE",
"143 775 CURVE SMOOTH",
"155 789 OFFCURVE",
"168 804 OFFCURVE",
"181 819 CURVE SMOOTH",
"207 849 OFFCURVE",
"233 879 OFFCURVE",
"249 899 CURVE SMOOTH",
"282 938 LINE",
"222 954 OFFCURVE",
"153 975 OFFCURVE",
"81 998 CURVE",
"112 1081 LINE",
"112 1080 LINE",
"115 1087 OFFCURVE",
"117 1095 OFFCURVE",
"120 1102 CURVE",
"122 1109 OFFCURVE",
"124 1116 OFFCURVE",
"127 1123 CURVE",
"127 1121 LINE",
"129 1127 OFFCURVE",
"132 1134 OFFCURVE",
"135 1143 CURVE",
"141 1159 OFFCURVE",
"148 1179 OFFCURVE",
"153 1196 CURVE",
"156 1204 OFFCURVE",
"158 1211 OFFCURVE",
"160 1217 CURVE",
"227 1184 OFFCURVE",
"298 1155 OFFCURVE",
"365 1128 CURVE",
"367 1127 OFFCURVE",
"368 1126 OFFCURVE",
"369 1126 CURVE",
"369 1126 OFFCURVE",
"371 1125 OFFCURVE",
"374 1124 CURVE",
"375 1140 OFFCURVE",
"375 1156 OFFCURVE",
"375 1172 CURVE SMOOTH",
"375 1188 OFFCURVE",
"375 1205 OFFCURVE",
"375 1222 CURVE SMOOTH",
"375 1229 OFFCURVE",
"375 1237 OFFCURVE",
"375 1245 CURVE",
"374 1252 OFFCURVE",
"374 1259 OFFCURVE",
"374 1266 CURVE SMOOTH",
"374 1318 LINE SMOOTH",
"374 1319 OFFCURVE",
"374 1322 OFFCURVE",
"374 1328 CURVE SMOOTH",
"374 1334 OFFCURVE",
"374 1341 OFFCURVE",
"374 1348 CURVE",
"373 1355 OFFCURVE",
"373 1361 OFFCURVE",
"373 1367 CURVE SMOOTH",
"373 1373 OFFCURVE",
"373 1377 OFFCURVE",
"373 1378 CURVE",
"384 1377 OFFCURVE",
"397 1377 OFFCURVE",
"410 1377 CURVE SMOOTH",
"423 1377 OFFCURVE",
"435 1377 OFFCURVE",
"445 1377 CURVE SMOOTH",
"544 1377 LINE",
"542 1317 LINE"
);
}
);
width = 866;
}
);
unicode = 002A;
},
{
glyphname = plus;
lastChange = "2012-07-01 20:33:04 +0000";
layers = (
{
layerId = "0F287C55-347F-439B-BC0E-FB0B2C3C2256";
name = Bold;
paths = (
{
closed = 1;
nodes = (
"727 549 OFFCURVE",
"653 548 OFFCURVE",
"568 541 CURVE",
"564 482 OFFCURVE",
"561 417 OFFCURVE",
"558 353 CURVE SMOOTH",
"555 289 OFFCURVE",
"553 226 OFFCURVE",
"552 173 CURVE",
"537 174 OFFCURVE",
"522 174 OFFCURVE",
"507 174 CURVE SMOOTH",
"491 174 OFFCURVE",
"476 174 OFFCURVE",
"463 174 CURVE SMOOTH",
"371 174 LINE",
"379 301 OFFCURVE",
"387 424 OFFCURVE",
"398 551 CURVE",
"380 551 OFFCURVE",
"361 551 OFFCURVE",
"341 551 CURVE SMOOTH",
"300 551 OFFCURVE",
"258 550 OFFCURVE",
"218 550 CURVE",
"198 549 OFFCURVE",
"179 549 OFFCURVE",
"161 549 CURVE SMOOTH",
"152 549 OFFCURVE",
"142 549 OFFCURVE",
"133 549 CURVE",
"123 548 OFFCURVE",
"113 548 OFFCURVE",
"104 548 CURVE SMOOTH",
"34 548 LINE",
"37 573 OFFCURVE",
"41 622 OFFCURVE",
"45 670 CURVE SMOOTH",
"47 693 OFFCURVE",
"49 716 OFFCURVE",
"51 738 CURVE SMOOTH",
"53 760 OFFCURVE",
"54 778 OFFCURVE",
"55 791 CURVE",
"135 788 OFFCURVE",
"221 788 OFFCURVE",
"302 788 CURVE SMOOTH",
"417 788 LINE",
"421 847 OFFCURVE",
"424 914 OFFCURVE",
"428 980 CURVE SMOOTH",
"429 1013 OFFCURVE",
"431 1045 OFFCURVE",
"432 1077 CURVE SMOOTH",
"433 1108 OFFCURVE",
"435 1138 OFFCURVE",
"436 1165 CURVE",
"524 1165 LINE",
"617 1165 LINE",
"604 998 LINE SMOOTH",
"603 981 OFFCURVE",
"601 963 OFFCURVE",
"600 946 CURVE",
"596 911 OFFCURVE",
"593 877 OFFCURVE",
"593 862 CURVE",
"592 854 OFFCURVE",
"592 847 OFFCURVE",
"591 840 CURVE",
"590 826 OFFCURVE",
"588 812 OFFCURVE",
"587 788 CURVE",
"646 789 OFFCURVE",
"707 789 OFFCURVE",
"770 790 CURVE SMOOTH",
"832 790 OFFCURVE",
"893 791 OFFCURVE",
"954 792 CURVE",
"951 765 OFFCURVE",
"947 717 OFFCURVE",
"943 669 CURVE SMOOTH",
"941 645 OFFCURVE",
"939 622 OFFCURVE",
"937 600 CURVE SMOOTH",
"935 578 OFFCURVE",
"934 561 OFFCURVE",
"933 548 CURVE",
"912 549 OFFCURVE",
"890 549 OFFCURVE",
"868 549 CURVE SMOOTH",
"845 549 OFFCURVE",
"824 549 OFFCURVE",
"803 549 CURVE SMOOTH"
);
}
);
width = 988;
}
);
unicode = 002B;
},
{
glyphname = comma;
lastChange = "2012-07-01 20:33:04 +0000";
layers = (
{
layerId = "0F287C55-347F-439B-BC0E-FB0B2C3C2256";
name = Bold;
paths = (
{
closed = 1;
nodes = (
"382 206 LINE SMOOTH",
"381 199 OFFCURVE",
"380 193 OFFCURVE",
"380 186 CURVE",
"380 187 LINE",
"378 170 OFFCURVE",
"376 153 OFFCURVE",
"374 137 CURVE SMOOTH",
"372 120 OFFCURVE",
"370 104 OFFCURVE",
"369 87 CURVE SMOOTH",
"366 48 OFFCURVE",
"362 5 OFFCURVE",
"355 -27 CURVE SMOOTH",
"347 -60 OFFCURVE",
"344 -73 OFFCURVE",
"340 -86 CURVE SMOOTH",
"325 -137 OFFCURVE",
"298 -193 OFFCURVE",
"267 -242 CURVE",
"258 -241 OFFCURVE",
"248 -240 OFFCURVE",
"237 -240 CURVE SMOOTH",
"226 -240 OFFCURVE",
"213 -240 OFFCURVE",
"199 -240 CURVE SMOOTH",
"188 -240 OFFCURVE",
"159 -241 OFFCURVE",
"131 -242 CURVE SMOOTH",
"116 -243 OFFCURVE",
"103 -243 OFFCURVE",
"90 -244 CURVE SMOOTH",
"77 -245 OFFCURVE",
"67 -245 OFFCURVE",
"62 -245 CURVE",
"95 -201 OFFCURVE",
"129 -155 OFFCURVE",
"157 -114 CURVE SMOOTH",
"185 -73 OFFCURVE",
"206 -36 OFFCURVE",
"217 -9 CURVE",
"149 -9 LINE",
"152 27 OFFCURVE",
"155 87 OFFCURVE",
"159 147 CURVE SMOOTH",
"162 207 OFFCURVE",
"165 266 OFFCURVE",
"165 301 CURVE",
"207 295 OFFCURVE",
"248 292 OFFCURVE",
"289 292 CURVE SMOOTH",
"325 292 OFFCURVE",
"359 295 OFFCURVE",
"394 311 CURVE"
);
}
);
width = 499;
}
);
unicode = 002C;
},
{
glyphname = hyphen;
lastChange = "2012-07-01 20:33:04 +0000";
layers = (
{
layerId = "0F287C55-347F-439B-BC0E-FB0B2C3C2256";
name = Bold;
paths = (
{
closed = 1;
nodes = (
"389 420 OFFCURVE",
"368 420 OFFCURVE",
"345 420 CURVE SMOOTH",
"299 420 OFFCURVE",
"250 419 OFFCURVE",
"205 419 CURVE",
"182 418 OFFCURVE",
"161 418 OFFCURVE",
"141 417 CURVE",
"169 469 LINE",
"178 488 OFFCURVE",
"183 505 OFFCURVE",
"185 518 CURVE",
"190 538 OFFCURVE",
"192 555 OFFCURVE",
"192 570 CURVE SMOOTH",
"192 581 OFFCURVE",
"185 615 OFFCURVE",
"170 673 CURVE",
"258 670 OFFCURVE",
"355 669 OFFCURVE",
"444 669 CURVE SMOOTH",
"463 669 OFFCURVE",
"484 669 OFFCURVE",
"507 670 CURVE",
"530 670 OFFCURVE",
"553 670 OFFCURVE",
"576 671 CURVE",
"622 671 OFFCURVE",
"667 672 OFFCURVE",
"706 673 CURVE",
"698 653 OFFCURVE",
"692 637 OFFCURVE",
"687 625 CURVE SMOOTH",
"682 612 OFFCURVE",
"678 602 OFFCURVE",
"675 595 CURVE SMOOTH",
"672 588 OFFCURVE",
"670 582 OFFCURVE",
"669 579 CURVE",
"668 575 OFFCURVE",
"667 572 OFFCURVE",
"666 569 CURVE",
"666 570 LINE",
"665 561 OFFCURVE",
"663 552 OFFCURVE",
"662 543 CURVE SMOOTH",
"661 534 OFFCURVE",
"660 527 OFFCURVE",
"660 520 CURVE SMOOTH",
"660 515 OFFCURVE",
"662 503 OFFCURVE",
"666 485 CURVE",
"669 467 OFFCURVE",
"675 444 OFFCURVE",
"682 416 CURVE",
"594 419 OFFCURVE",
"498 420 OFFCURVE",
"409 420 CURVE SMOOTH"
);
}
);
width = 860;
}
);
unicode = 002D;
},
{
glyphname = period;
lastChange = "2012-07-01 20:33:04 +0000";
layers = (
{
layerId = "0F287C55-347F-439B-BC0E-FB0B2C3C2256";
name = Bold;
paths = (
{
closed = 1;
nodes = (
"150 57 LINE",
"163 141 OFFCURVE",
"174 218 OFFCURVE",
"174 291 CURVE SMOOTH",
"174 295 OFFCURVE",
"174 301 OFFCURVE",
"174 310 CURVE",
"173 319 OFFCURVE",
"173 328 OFFCURVE",
"173 338 CURVE",
"172 347 OFFCURVE",
"172 356 OFFCURVE",
"171 365 CURVE SMOOTH",
"170 374 OFFCURVE",
"170 380 OFFCURVE",
"170 384 CURVE",
"225 379 OFFCURVE",
"274 378 OFFCURVE",
"322 378 CURVE SMOOTH",
"357 378 OFFCURVE",
"411 379 OFFCURVE",
"447 382 CURVE",
"428 269 OFFCURVE",
"416 174 OFFCURVE",
"416 107 CURVE SMOOTH",
"416 104 OFFCURVE",
"417 96 OFFCURVE",
"418 88 CURVE",
"418 65 LINE SMOOTH",
"418 50 OFFCURVE",
"418 37 OFFCURVE",
"417 28 CURVE SMOOTH",
"416 18 OFFCURVE",
"412 13 OFFCURVE",
"406 13 CURVE SMOOTH",
"402 13 LINE SMOOTH",
"395 13 OFFCURVE",
"383 13 OFFCURVE",
"367 13 CURVE SMOOTH",
"350 13 OFFCURVE",
"334 13 OFFCURVE",
"319 14 CURVE",
"312 14 OFFCURVE",
"303 14 OFFCURVE",
"293 15 CURVE",
"283 15 OFFCURVE",
"277 15 OFFCURVE",
"276 15 CURVE SMOOTH",
"233 15 OFFCURVE",
"193 14 OFFCURVE",
"162 5 CURVE"
);
}
);
width = 575;
}
);
unicode = 002E;
},
{
glyphname = slash;
lastChange = "2012-07-01 20:33:04 +0000";
layers = (
{
layerId = "0F287C55-347F-439B-BC0E-FB0B2C3C2256";
name = Bold;
paths = (
{
closed = 1;
nodes = (
"20 -62 LINE",
"71 71 OFFCURVE",
"127 228 OFFCURVE",
"182 384 CURVE SMOOTH",
"237 540 OFFCURVE",
"291 697 OFFCURVE",
"338 832 CURVE SMOOTH",
"343 847 OFFCURVE",
"349 862 OFFCURVE",
"354 877 CURVE SMOOTH",
"359 892 OFFCURVE",
"364 908 OFFCURVE",
"369 923 CURVE SMOOTH",
"376 942 OFFCURVE",
"383 962 OFFCURVE",
"389 982 CURVE SMOOTH",
"395 1001 OFFCURVE",
"402 1021 OFFCURVE",
"409 1042 CURVE SMOOTH",
"419 1071 OFFCURVE",
"430 1103 OFFCURVE",
"441 1136 CURVE SMOOTH",
"464 1203 OFFCURVE",
"487 1271 OFFCURVE",
"511 1338 CURVE SMOOTH",
"522 1371 OFFCURVE",
"533 1403 OFFCURVE",
"543 1432 CURVE",
"603 1433 OFFCURVE",
"670 1441 OFFCURVE",
"751 1464 CURVE",
"704 1340 OFFCURVE",
"655 1202 OFFCURVE",
"607 1064 CURVE SMOOTH",
"582 995 OFFCURVE",
"559 926 OFFCURVE",
"536 858 CURVE SMOOTH",
"513 790 OFFCURVE",
"491 726 OFFCURVE",
"470 665 CURVE SMOOTH",
"460 636 OFFCURVE",
"450 607 OFFCURVE",
"441 579 CURVE SMOOTH",
"431 550 OFFCURVE",
"421 521 OFFCURVE",
"411 492 CURVE SMOOTH",
"398 454 OFFCURVE",
"384 414 OFFCURVE",
"370 372 CURVE SMOOTH",
"342 288 OFFCURVE",
"312 202 OFFCURVE",
"284 119 CURVE SMOOTH",
"269 77 OFFCURVE",
"256 37 OFFCURVE",
"243 -1 CURVE",
"215 -1 LINE SMOOTH",
"192 -1 OFFCURVE",
"174 -1 OFFCURVE",
"155 -4 CURVE SMOOTH",
"136 -7 OFFCURVE",
"117 -10 OFFCURVE",
"92 -17 CURVE",
"95 -11 LINE"
);
}
);
width = 770;
}
);
unicode = 002F;
},
{
glyphname = zero;
lastChange = "2012-07-01 20:33:04 +0000";
layers = (
{
layerId = "0F287C55-347F-439B-BC0E-FB0B2C3C2256";
name = Bold;
paths = (
{
closed = 1;
nodes = (
"978 687 LINE",
"971 607 OFFCURVE",
"962 525 OFFCURVE",
"947 452 CURVE",
"947 453 LINE",
"927 358 OFFCURVE",
"895 269 OFFCURVE",
"854 194 CURVE",
"811 131 OFFCURVE",
"759 86 OFFCURVE",
"703 57 CURVE SMOOTH",
"647 28 OFFCURVE",
"589 14 OFFCURVE",
"537 14 CURVE SMOOTH",
"527 14 LINE SMOOTH",
"525 14 OFFCURVE",
"523 14 OFFCURVE",
"522 15 CURVE",
"520 15 OFFCURVE",
"518 15 OFFCURVE",
"517 15 CURVE SMOOTH",
"457 15 OFFCURVE",
"397 29 OFFCURVE",
"343 56 CURVE SMOOTH",
"289 83 OFFCURVE",
"241 123 OFFCURVE",
"208 175 CURVE",
"148 291 OFFCURVE",
"132 427 OFFCURVE",
"132 562 CURVE SMOOTH",
"132 607 OFFCURVE",
"132 655 OFFCURVE",
"137 696 CURVE SMOOTH",
"138 705 OFFCURVE",
"139 714 OFFCURVE",
"140 723 CURVE",
"140 732 OFFCURVE",
"141 740 OFFCURVE",
"142 749 CURVE SMOOTH",
"150 821 OFFCURVE",
"160 893 OFFCURVE",
"172 954 CURVE SMOOTH",
"191 1038 OFFCURVE",
"222 1130 OFFCURVE",
"261 1199 CURVE",
"304 1260 OFFCURVE",
"358 1304 OFFCURVE",
"415 1330 CURVE SMOOTH",
"472 1356 OFFCURVE",
"533 1367 OFFCURVE",
"586 1367 CURVE SMOOTH",
"603 1367 LINE SMOOTH",
"663 1367 OFFCURVE",
"724 1353 OFFCURVE",
"779 1326 CURVE SMOOTH",
"834 1298 OFFCURVE",
"882 1258 OFFCURVE",
"915 1205 CURVE",
"971 1097 OFFCURVE",
"984 975 OFFCURVE",
"984 848 CURVE SMOOTH",
"984 805 OFFCURVE",
"983 761 OFFCURVE",
"980 718 CURVE",
"979 713 OFFCURVE",
"979 707 OFFCURVE",
"979 702 CURVE SMOOTH",
"979 697 OFFCURVE",
"979 691 OFFCURVE",
"978 686 CURVE"
);
},
{
closed = 1;
nodes = (
"835 850 OFFCURVE",
"837 882 OFFCURVE",
"837 918 CURVE SMOOTH",
"837 985 OFFCURVE",
"829 1052 OFFCURVE",
"798 1113 CURVE",
"786 1140 OFFCURVE",
"759 1159 OFFCURVE",
"725 1171 CURVE SMOOTH",
"691 1183 OFFCURVE",
"648 1189 OFFCURVE",
"604 1189 CURVE SMOOTH",
"586 1189 LINE SMOOTH",
"547 1189 OFFCURVE",
"506 1184 OFFCURVE",
"470 1172 CURVE SMOOTH",
"433 1159 OFFCURVE",
"401 1139 OFFCURVE",
"381 1110 CURVE",
"382 1112 LINE",
"349 1056 OFFCURVE",
"332 1013 OFFCURVE",
"323 970 CURVE",
"323 971 LINE",
"312 918 OFFCURVE",
"308 870 OFFCURVE",
"304 823 CURVE",
"303 820 OFFCURVE",
"303 816 OFFCURVE",
"303 813 CURVE SMOOTH",
"303 810 OFFCURVE",
"303 806 OFFCURVE",
"303 803 CURVE",
"303 805 LINE",
"300 770 OFFCURVE",
"298 737 OFFCURVE",
"298 701 CURVE SMOOTH",
"298 661 OFFCURVE",
"302 620 OFFCURVE",
"309 577 CURVE SMOOTH",
"317 532 OFFCURVE",
"342 495 OFFCURVE",
"379 469 CURVE SMOOTH",
"415 443 OFFCURVE",
"464 428 OFFCURVE",
"520 428 CURVE SMOOTH",
"540 428 LINE SMOOTH",
"541 428 OFFCURVE",
"543 428 OFFCURVE",
"544 428 CURVE",
"545 427 OFFCURVE",
"547 427 OFFCURVE",
"548 427 CURVE SMOOTH",
"597 427 OFFCURVE",
"649 443 OFFCURVE",
"692 470 CURVE SMOOTH",
"735 497 OFFCURVE",
"768 535 OFFCURVE",
"781 578 CURVE",
"796 617 OFFCURVE",
"804 649 OFFCURVE",
"811 678 CURVE",
"821 729 OFFCURVE",
"828 775 OFFCURVE",
"832 815 CURVE SMOOTH"
);
}
);
width = 1115;
}
);
unicode = 0030;
},
{
glyphname = one;
lastChange = "2012-07-01 20:33:04 +0000";
layers = (
{
layerId = "0F287C55-347F-439B-BC0E-FB0B2C3C2256";
name = Bold;
paths = (
{
closed = 1;
nodes = (
"331 34 OFFCURVE",
"214 29 OFFCURVE",
"93 20 CURVE",
"96 73 LINE",
"91 64 LINE",
"94 84 OFFCURVE",
"97 106 OFFCURVE",
"100 130 CURVE SMOOTH",
"107 178 OFFCURVE",
"114 229 OFFCURVE",
"120 277 CURVE SMOOTH",
"123 301 OFFCURVE",
"125 323 OFFCURVE",
"128 343 CURVE",
"235 348 OFFCURVE",
"341 351 OFFCURVE",
"444 352 CURVE",
"444 358 LINE",
"455 493 OFFCURVE",
"465 620 OFFCURVE",
"474 746 CURVE SMOOTH",
"483 872 OFFCURVE",
"491 998 OFFCURVE",
"498 1130 CURVE",
"463 1107 OFFCURVE",
"422 1078 OFFCURVE",
"391 1057 CURVE SMOOTH",
"364 1040 OFFCURVE",
"335 1020 OFFCURVE",
"304 1000 CURVE SMOOTH",
"288 989 OFFCURVE",
"273 979 OFFCURVE",
"258 969 CURVE",
"243 958 OFFCURVE",
"229 949 OFFCURVE",
"216 940 CURVE",
"216 963 OFFCURVE",
"216 982 OFFCURVE",
"216 995 CURVE SMOOTH",
"216 1008 OFFCURVE",
"216 1018 OFFCURVE",
"217 1023 CURVE",
"218 1030 OFFCURVE",
"219 1035 OFFCURVE",
"219 1039 CURVE SMOOTH",
"219 1044 OFFCURVE",
"219 1049 OFFCURVE",
"220 1054 CURVE",
"220 1059 OFFCURVE",
"220 1063 OFFCURVE",
"220 1068 CURVE SMOOTH",
"220 1073 OFFCURVE",
"220 1079 OFFCURVE",
"221 1088 CURVE",
"221 1104 OFFCURVE",
"222 1123 OFFCURVE",
"222 1140 CURVE SMOOTH",
"222 1148 OFFCURVE",
"222 1154 OFFCURVE",
"222 1159 CURVE",
"527 1351 LINE",
"578 1351 LINE SMOOTH",
"585 1351 OFFCURVE",
"591 1351 OFFCURVE",
"598 1351 CURVE",
"604 1350 OFFCURVE",
"611 1350 OFFCURVE",
"618 1350 CURVE SMOOTH",
"639 1350 LINE SMOOTH",
"642 1350 OFFCURVE",
"648 1350 OFFCURVE",
"656 1350 CURVE",
"663 1349 OFFCURVE",
"669 1349 OFFCURVE",
"673 1349 CURVE",
"672 1327 OFFCURVE",
"670 1303 OFFCURVE",
"668 1276 CURVE SMOOTH",
"664 1223 OFFCURVE",
"660 1166 OFFCURVE",
"657 1112 CURVE SMOOTH",
"653 1058 OFFCURVE",
"649 1009 OFFCURVE",
"645 950 CURVE",
"642 921 OFFCURVE",
"640 891 OFFCURVE",
"639 860 CURVE",
"637 833 OFFCURVE",
"635 806 OFFCURVE",
"633 779 CURVE",
"630 752 OFFCURVE",
"628 725 OFFCURVE",
"627 697 CURVE SMOOTH",
"625 664 OFFCURVE",
"623 633 OFFCURVE",
"621 606 CURVE SMOOTH",
"616 550 OFFCURVE",
"612 497 OFFCURVE",
"609 442 CURVE SMOOTH",
"607 414 OFFCURVE",
"605 384 OFFCURVE",
"603 352 CURVE",
"626 351 OFFCURVE",
"650 351 OFFCURVE",
"675 350 CURVE SMOOTH",
"726 349 OFFCURVE",
"777 346 OFFCURVE",
"827 343 CURVE SMOOTH",
"852 342 OFFCURVE",
"875 340 OFFCURVE",
"898 339 CURVE",
"898 206 LINE",
"897 194 OFFCURVE",
"896 186 OFFCURVE",
"896 175 CURVE SMOOTH",
"896 136 OFFCURVE",
"897 101 OFFCURVE",
"898 62 CURVE SMOOTH",
"898 10 LINE",
"749 27 OFFCURVE",
"599 34 OFFCURVE",
"450 34 CURVE SMOOTH"
);
}
);
width = 997;
}
);
unicode = 0031;
},
{
glyphname = two;
lastChange = "2012-07-01 20:33:04 +0000";
layers = (
{
layerId = "0F287C55-347F-439B-BC0E-FB0B2C3C2256";
name = Bold;
paths = (
{
closed = 1;
nodes = (
"356 34 OFFCURVE",
"232 29 OFFCURVE",
"107 21 CURVE",
"110 75 LINE",
"105 66 LINE",
"108 89 OFFCURVE",
"112 111 OFFCURVE",
"115 133 CURVE SMOOTH",
"118 155 OFFCURVE",
"121 178 OFFCURVE",
"124 201 CURVE SMOOTH",
"139 314 LINE",
"146 323 LINE",
"153 330 OFFCURVE",
"160 338 OFFCURVE",
"167 345 CURVE",
"173 352 OFFCURVE",
"179 359 OFFCURVE",
"186 366 CURVE",
"213 397 OFFCURVE",
"240 427 OFFCURVE",
"267 455 CURVE",
"267 454 LINE",
"316 505 OFFCURVE",
"360 544 OFFCURVE",
"395 569 CURVE SMOOTH",
"420 586 OFFCURVE",
"446 604 OFFCURVE",
"471 623 CURVE",
"484 632 OFFCURVE",
"498 641 OFFCURVE",
"511 650 CURVE",
"524 658 OFFCURVE",
"536 667 OFFCURVE",
"548 676 CURVE SMOOTH",
"600 713 OFFCURVE",
"649 749 OFFCURVE",
"681 780 CURVE",
"726 820 OFFCURVE",
"758 855 OFFCURVE",
"779 882 CURVE SMOOTH",
"803 913 OFFCURVE",
"815 938 OFFCURVE",
"820 957 CURVE",
"821 959 OFFCURVE",
"821 961 OFFCURVE",
"821 964 CURVE SMOOTH",
"821 966 OFFCURVE",
"821 968 OFFCURVE",
"821 969 CURVE",
"821 968 LINE",
"822 973 OFFCURVE",
"823 978 OFFCURVE",
"824 982 CURVE",
"824 985 OFFCURVE",
"824 988 OFFCURVE",
"825 991 CURVE",
"827 1003 OFFCURVE",
"828 1013 OFFCURVE",
"828 1020 CURVE SMOOTH",
"828 1061 OFFCURVE",
"805 1097 OFFCURVE",
"769 1122 CURVE SMOOTH",
"733 1147 OFFCURVE",
"684 1162 OFFCURVE",
"629 1162 CURVE SMOOTH",
"609 1162 LINE SMOOTH",
"554 1162 OFFCURVE",
"493 1151 OFFCURVE",
"454 1122 CURVE SMOOTH",
"398 1078 OFFCURVE",
"366 1016 OFFCURVE",
"355 957 CURVE",
"350 958 OFFCURVE",
"340 959 OFFCURVE",
"325 962 CURVE SMOOTH",
"310 965 OFFCURVE",
"293 968 OFFCURVE",
"273 971 CURVE",
"274 968 LINE",
"252 974 LINE",
"245 975 OFFCURVE",
"236 977 OFFCURVE",
"225 978 CURVE SMOOTH",
"214 979 OFFCURVE",
"205 981 OFFCURVE",
"199 982 CURVE",
"200 994 OFFCURVE",
"203 1014 OFFCURVE",
"205 1030 CURVE SMOOTH",
"206 1038 OFFCURVE",
"206 1044 OFFCURVE",
"207 1049 CURVE",
"208 1053 OFFCURVE",
"208 1054 OFFCURVE",
"208 1051 CURVE",
"208 1060 OFFCURVE",
"209 1066 OFFCURVE",
"211 1068 CURVE",
"210 1057 LINE",
"219 1100 OFFCURVE",
"235 1144 OFFCURVE",
"256 1184 CURVE SMOOTH",
"277 1224 OFFCURVE",
"302 1260 OFFCURVE",
"333 1284 CURVE SMOOTH",
"420 1347 OFFCURVE",
"517 1367 OFFCURVE",
"598 1367 CURVE SMOOTH",
"620 1367 LINE",
"704 1364 OFFCURVE",
"787 1352 OFFCURVE",
"866 1308 CURVE SMOOTH",
"910 1284 OFFCURVE",
"941 1247 OFFCURVE",
"961 1201 CURVE SMOOTH",
"981 1155 OFFCURVE",
"991 1100 OFFCURVE",
"991 1043 CURVE SMOOTH",
"991 1022 OFFCURVE",
"990 1003 OFFCURVE",
"987 988 CURVE",
"986 981 OFFCURVE",
"986 974 OFFCURVE",
"986 968 CURVE",
"985 962 OFFCURVE",
"984 957 OFFCURVE",
"983 954 CURVE",
"963 858 OFFCURVE",
"923 805 OFFCURVE",
"891 761 CURVE SMOOTH",
"858 716 OFFCURVE",
"830 681 OFFCURVE",
"795 641 CURVE SMOOTH",
"777 621 OFFCURVE",
"759 601 OFFCURVE",
"741 580 CURVE SMOOTH",
"705 539 OFFCURVE",
"668 499 OFFCURVE",
"639 467 CURVE",
"609 444 LINE SMOOTH",
"574 417 OFFCURVE",
"542 392 OFFCURVE",
"507 361 CURVE",
"505 360 OFFCURVE",
"504 359 OFFCURVE",
"504 358 CURVE",
"503 357 OFFCURVE",
"502 356 OFFCURVE",
"501 355 CURVE",
"500 355 OFFCURVE",
"500 355 OFFCURVE",
"500 355 CURVE",
"500 354 OFFCURVE",
"500 354 OFFCURVE",
"499 354 CURVE",
"500 354 LINE",
"498 352 OFFCURVE",
"498 351 OFFCURVE",
"499 352 CURVE",
"500 352 OFFCURVE",
"502 353 OFFCURVE",
"504 354 CURVE",
"526 354 LINE SMOOTH",
"669 354 OFFCURVE",
"815 349 OFFCURVE",
"956 341 CURVE",
"956 288 LINE SMOOTH",
"956 279 OFFCURVE",
"956 270 OFFCURVE",
"956 261 CURVE",
"955 252 OFFCURVE",
"955 243 OFFCURVE",
"955 234 CURVE SMOOTH",
"955 183 LINE SMOOTH",
"955 173 OFFCURVE",
"955 160 OFFCURVE",
"956 145 CURVE",
"956 130 OFFCURVE",
"956 114 OFFCURVE",
"957 98 CURVE",
"957 65 OFFCURVE",
"959 31 OFFCURVE",
"960 10 CURVE",
"801 27 OFFCURVE",
"642 34 OFFCURVE",
"481 34 CURVE SMOOTH"
);
},
{
closed = 1;
nodes = (
"500 354 LINE",
"501 355 LINE",
"508 359 OFFCURVE",
"512 361 OFFCURVE",
"514 362 CURVE SMOOTH",
"516 363 OFFCURVE",
"517 363 OFFCURVE",
"516 362 CURVE SMOOTH",
"515 361 OFFCURVE",
"509 357 OFFCURVE",
"504 354 CURVE"
);
}
);
width = 1137;
}
);
unicode = 0032;
},
{
glyphname = three;
lastChange = "2012-07-01 20:33:04 +0000";
layers = (
{
layerId = "0F287C55-347F-439B-BC0E-FB0B2C3C2256";
name = Bold;
paths = (
{
closed = 1;
nodes = (
"944 366 OFFCURVE",
"942 334 OFFCURVE",
"935 307 CURVE",
"918 223 OFFCURVE",
"874 137 OFFCURVE",
"801 82 CURVE",
"754 54 OFFCURVE",
"705 37 OFFCURVE",
"656 28 CURVE SMOOTH",
"607 19 OFFCURVE",
"557 15 OFFCURVE",
"513 15 CURVE",
"509 14 OFFCURVE",
"504 14 OFFCURVE",
"499 14 CURVE SMOOTH",
"494 14 OFFCURVE",
"489 14 OFFCURVE",
"485 14 CURVE SMOOTH",
"386 14 OFFCURVE",
"291 45 OFFCURVE",
"220 103 CURVE SMOOTH",
"149 161 OFFCURVE",
"102 247 OFFCURVE",
"102 360 CURVE SMOOTH",
"102 418 LINE",
"286 455 LINE",
"297 406 OFFCURVE",
"329 372 OFFCURVE",
"371 352 CURVE SMOOTH",
"413 331 OFFCURVE",
"463 323 OFFCURVE",
"514 323 CURVE SMOOTH",
"522 323 LINE SMOOTH",
"585 323 OFFCURVE",
"655 325 OFFCURVE",
"703 356 CURVE",
"742 377 OFFCURVE",
"769 409 OFFCURVE",
"770 433 CURVE",
"770 446 LINE SMOOTH",
"770 495 OFFCURVE",
"738 530 OFFCURVE",
"691 554 CURVE SMOOTH",
"644 577 OFFCURVE",
"583 588 OFFCURVE",
"524 588 CURVE SMOOTH",
"522 588 OFFCURVE",
"520 588 OFFCURVE",
"519 588 CURVE",
"517 587 OFFCURVE",
"515 587 OFFCURVE",
"514 587 CURVE SMOOTH",
"414 587 LINE",
"420 695 LINE",
"420 700 OFFCURVE",
"420 708 OFFCURVE",
"421 717 CURVE SMOOTH",
"422 726 OFFCURVE",
"422 736 OFFCURVE",
"423 746 CURVE",
"424 766 OFFCURVE",
"426 786 OFFCURVE",
"427 797 CURVE",
"508 797 LINE SMOOTH",
"580 797 OFFCURVE",
"659 808 OFFCURVE",
"712 851 CURVE SMOOTH",
"759 890 OFFCURVE",
"785 929 OFFCURVE",
"792 962 CURVE",
"792 955 LINE",
"792 956 OFFCURVE",
"792 958 OFFCURVE",
"793 960 CURVE",
"793 962 OFFCURVE",
"793 964 OFFCURVE",
"793 965 CURVE",
"794 972 OFFCURVE",
"795 977 OFFCURVE",
"796 981 CURVE",
"796 984 OFFCURVE",
"796 988 OFFCURVE",
"797 991 CURVE",
"800 1003 OFFCURVE",
"801 1014 OFFCURVE",
"801 1021 CURVE SMOOTH",
"801 1064 OFFCURVE",
"775 1100 OFFCURVE",
"736 1125 CURVE SMOOTH",
"696 1149 OFFCURVE",
"643 1163 OFFCURVE",
"587 1163 CURVE SMOOTH",
"581 1163 LINE SMOOTH",
"524 1162 OFFCURVE",
"457 1154 OFFCURVE",
"416 1123 CURVE SMOOTH",
"352 1078 OFFCURVE",
"330 1012 OFFCURVE",
"319 951 CURVE",
"284 966 OFFCURVE",
"226 974 OFFCURVE",
"167 983 CURVE",
"169 1002 OFFCURVE",
"171 1020 OFFCURVE",
"174 1035 CURVE",
"176 1050 OFFCURVE",
"178 1060 OFFCURVE",
"179 1064 CURVE",
"187 1105 OFFCURVE",
"203 1149 OFFCURVE",
"224 1189 CURVE SMOOTH",
"244 1228 OFFCURVE",
"271 1263 OFFCURVE",
"300 1286 CURVE",
"388 1349 OFFCURVE",
"487 1367 OFFCURVE",
"571 1367 CURVE SMOOTH",
"587 1367 LINE SMOOTH",
"638 1366 OFFCURVE",
"690 1361 OFFCURVE",
"740 1346 CURVE SMOOTH",
"790 1331 OFFCURVE",
"838 1309 OFFCURVE",
"881 1273 CURVE",
"881 1274 LINE",
"937 1227 OFFCURVE",
"962 1144 OFFCURVE",
"962 1049 CURVE SMOOTH",
"962 1032 OFFCURVE",
"962 1012 OFFCURVE",
"959 999 CURVE",
"958 976 OFFCURVE",
"957 961 OFFCURVE",
"954 948 CURVE SMOOTH",
"931 848 OFFCURVE",
"867 754 OFFCURVE",
"782 701 CURVE",
"879 654 OFFCURVE",
"945 557 OFFCURVE",
"945 430 CURVE SMOOTH",
"945 398 LINE SMOOTH"
);
}
);
width = 1099;
}
);
unicode = 0033;
},
{
glyphname = four;
lastChange = "2012-07-01 20:33:04 +0000";
layers = (
{
layerId = "0F287C55-347F-439B-BC0E-FB0B2C3C2256";
name = Bold;
paths = (
{
closed = 1;
nodes = (
"800 317 LINE",
"804 232 OFFCURVE",
"811 136 OFFCURVE",
"826 16 CURVE",
"710 27 OFFCURVE",
"609 30 OFFCURVE",
"493 33 CURVE",
"506 126 OFFCURVE",
"520 221 OFFCURVE",
"536 314 CURVE",
"470 314 LINE SMOOTH",
"323 314 OFFCURVE",
"171 311 OFFCURVE",
"23 302 CURVE",
"31 395 LINE",
"32 399 OFFCURVE",
"32 404 OFFCURVE",
"33 409 CURVE",
"33 419 OFFCURVE",
"34 425 OFFCURVE",
"35 438 CURVE",
"36 444 OFFCURVE",
"37 450 OFFCURVE",
"38 457 CURVE SMOOTH",
"40 470 OFFCURVE",
"41 483 OFFCURVE",
"41 491 CURVE",
"62 521 OFFCURVE",
"84 551 OFFCURVE",
"106 581 CURVE SMOOTH",
"127 610 OFFCURVE",
"149 640 OFFCURVE",
"170 670 CURVE SMOOTH",
"189 697 OFFCURVE",
"211 727 OFFCURVE",
"231 754 CURVE",
"231 753 LINE",
"259 793 OFFCURVE",
"287 831 OFFCURVE",
"316 870 CURVE SMOOTH",
"373 947 OFFCURVE",
"431 1028 OFFCURVE",
"491 1111 CURVE SMOOTH",
"551 1194 OFFCURVE",
"610 1273 OFFCURVE",
"669 1349 CURVE",
"726 1349 LINE SMOOTH",
"758 1349 OFFCURVE",
"800 1350 OFFCURVE",
"835 1351 CURVE",
"818 1078 OFFCURVE",
"805 810 OFFCURVE",
"798 538 CURVE",
"931 538 LINE",
"930 510 OFFCURVE",
"928 464 OFFCURVE",
"927 418 CURVE SMOOTH",
"926 372 OFFCURVE",
"925 326 OFFCURVE",
"925 301 CURVE",
"916 302 OFFCURVE",
"906 302 OFFCURVE",
"897 303 CURVE",
"888 303 OFFCURVE",
"879 304 OFFCURVE",
"870 305 CURVE",
"869 305 OFFCURVE",
"868 305 OFFCURVE",
"867 306 CURVE",
"866 306 OFFCURVE",
"865 306 OFFCURVE",
"864 306 CURVE",
"854 307 OFFCURVE",
"844 308 OFFCURVE",
"833 309 CURVE SMOOTH",
"822 310 OFFCURVE",
"812 310 OFFCURVE",
"802 311 CURVE",
"809 323 LINE"
);
},
{
closed = 1;
nodes = (
"651 1112 LINE",
"647 1109 LINE",
"626 1075 LINE",
"619 1062 OFFCURVE",
"614 1053 OFFCURVE",
"610 1046 CURVE",
"605 1039 OFFCURVE",
"602 1034 OFFCURVE",
"599 1030 CURVE SMOOTH",
"540 950 OFFCURVE",
"479 868 OFFCURVE",
"417 785 CURVE SMOOTH",
"354 702 OFFCURVE",
"293 619 OFFCURVE",
"233 537 CURVE",
"322 540 OFFCURVE",
"413 540 OFFCURVE",
"500 540 CURVE SMOOTH",
"575 540 LINE"
);
}
);
width = 1049;
}
);
unicode = 0034;
},
{
glyphname = five;
lastChange = "2012-07-01 20:33:04 +0000";
layers = (
{
layerId = "0F287C55-347F-439B-BC0E-FB0B2C3C2256";
name = Bold;
paths = (
{
closed = 1;
nodes = (
"963 424 OFFCURVE",
"959 386 OFFCURVE",
"952 355 CURVE SMOOTH",
"933 267 OFFCURVE",
"898 181 OFFCURVE",
"842 126 CURVE",
"794 85 OFFCURVE",
"739 57 OFFCURVE",
"684 40 CURVE SMOOTH",
"629 23 OFFCURVE",
"573 16 OFFCURVE",
"525 16 CURVE SMOOTH",
"510 16 LINE",
"506 15 OFFCURVE",
"501 15 OFFCURVE",
"496 15 CURVE SMOOTH",
"491 15 OFFCURVE",
"486 15 OFFCURVE",
"482 15 CURVE SMOOTH",
"391 15 OFFCURVE",
"300 43 OFFCURVE",
"232 103 CURVE SMOOTH",
"163 162 OFFCURVE",
"116 251 OFFCURVE",
"113 375 CURVE",
"128 380 OFFCURVE",
"143 385 OFFCURVE",
"158 390 CURVE SMOOTH",
"188 400 OFFCURVE",
"209 405 OFFCURVE",
"226 410 CURVE",
"235 412 OFFCURVE",
"244 415 OFFCURVE",
"253 418 CURVE",
"253 417 LINE",
"261 420 OFFCURVE",
"270 423 OFFCURVE",
"280 426 CURVE SMOOTH",
"290 429 OFFCURVE",
"299 431 OFFCURVE",
"308 434 CURVE",
"320 391 OFFCURVE",
"354 364 OFFCURVE",
"397 347 CURVE SMOOTH",
"440 330 OFFCURVE",
"489 321 OFFCURVE",
"532 317 CURVE",
"596 324 OFFCURVE",
"667 333 OFFCURVE",
"714 356 CURVE",
"713 354 LINE",
"744 374 OFFCURVE",
"761 396 OFFCURVE",
"773 417 CURVE",
"784 438 OFFCURVE",
"788 460 OFFCURVE",
"792 480 CURVE SMOOTH",
"796 498 OFFCURVE",
"798 513 OFFCURVE",
"798 525 CURVE SMOOTH",
"798 602 OFFCURVE",
"739 662 OFFCURVE",
"675 681 CURVE SMOOTH",
"643 690 OFFCURVE",
"608 695 OFFCURVE",
"569 695 CURVE SMOOTH",
"559 695 LINE SMOOTH",
"475 695 OFFCURVE",
"386 665 OFFCURVE",
"321 606 CURVE",
"174 606 LINE",
"211 865 OFFCURVE",
"238 1121 OFFCURVE",
"249 1373 CURVE",
"398 1354 OFFCURVE",
"547 1348 OFFCURVE",
"699 1348 CURVE SMOOTH",
"788 1348 OFFCURVE",
"889 1351 OFFCURVE",
"978 1354 CURVE",
"958 1143 LINE",
"869 1139 OFFCURVE",
"783 1138 OFFCURVE",
"695 1138 CURVE SMOOTH",
"594 1138 OFFCURVE",
"488 1142 OFFCURVE",
"387 1146 CURVE",
"382 1089 OFFCURVE",
"377 1034 OFFCURVE",
"372 983 CURVE SMOOTH",
"367 931 OFFCURVE",
"361 875 OFFCURVE",
"354 815 CURVE",
"442 878 OFFCURVE",
"529 898 OFFCURVE",
"602 898 CURVE SMOOTH",
"606 898 LINE SMOOTH",
"705 898 OFFCURVE",
"807 860 OFFCURVE",
"879 777 CURVE",
"878 780 LINE",
"942 713 OFFCURVE",
"966 611 OFFCURVE",
"966 498 CURVE SMOOTH",
"966 463 LINE"
);
}
);
width = 1111;
}
);
unicode = 0035;
},
{
glyphname = six;
lastChange = "2012-07-01 20:33:04 +0000";
layers = (
{
layerId = "0F287C55-347F-439B-BC0E-FB0B2C3C2256";
name = Bold;
paths = (
{
closed = 1;
nodes = (
"924 422 OFFCURVE",
"921 383 OFFCURVE",
"914 348 CURVE SMOOTH",
"895 264 OFFCURVE",
"862 181 OFFCURVE",
"811 128 CURVE SMOOTH",
"768 84 OFFCURVE",
"720 55 OFFCURVE",
"672 39 CURVE SMOOTH",
"624 22 OFFCURVE",
"574 15 OFFCURVE",
"530 15 CURVE SMOOTH",
"513 15 LINE SMOOTH",
"453 15 OFFCURVE",
"394 27 OFFCURVE",
"340 54 CURVE SMOOTH",
"286 81 OFFCURVE",
"238 121 OFFCURVE",
"203 177 CURVE SMOOTH",
"142 273 OFFCURVE",
"125 398 OFFCURVE",
"125 529 CURVE SMOOTH",
"125 576 OFFCURVE",
"128 623 OFFCURVE",
"131 666 CURVE SMOOTH",
"139 746 OFFCURVE",
"149 833 OFFCURVE",
"164 905 CURVE SMOOTH",
"173 953 OFFCURVE",
"190 1004 OFFCURVE",
"208 1053 CURVE SMOOTH",
"226 1102 OFFCURVE",
"248 1148 OFFCURVE",
"272 1187 CURVE SMOOTH",
"311 1246 OFFCURVE",
"362 1290 OFFCURVE",
"418 1321 CURVE SMOOTH",
"473 1352 OFFCURVE",
"532 1367 OFFCURVE",
"584 1367 CURVE SMOOTH",
"587 1367 OFFCURVE",
"592 1367 OFFCURVE",
"597 1367 CURVE SMOOTH",
"602 1367 OFFCURVE",
"606 1367 OFFCURVE",
"609 1366 CURVE",
"610 1366 OFFCURVE",
"612 1366 OFFCURVE",
"615 1367 CURVE",
"618 1367 OFFCURVE",
"620 1367 OFFCURVE",
"621 1367 CURVE SMOOTH",
"632 1367 LINE SMOOTH",
"708 1367 OFFCURVE",
"783 1339 OFFCURVE",
"840 1284 CURVE SMOOTH",
"897 1229 OFFCURVE",
"939 1150 OFFCURVE",
"951 1047 CURVE",
"930 1042 OFFCURVE",
"901 1035 OFFCURVE",
"882 1032 CURVE",
"879 1031 OFFCURVE",
"876 1031 OFFCURVE",
"873 1030 CURVE SMOOTH",
"870 1029 OFFCURVE",
"866 1028 OFFCURVE",
"862 1027 CURVE",
"863 1028 LINE",
"853 1026 OFFCURVE",
"842 1024 OFFCURVE",
"831 1022 CURVE",
"819 1019 OFFCURVE",
"808 1017 OFFCURVE",
"798 1014 CURVE",
"789 1057 OFFCURVE",
"763 1093 OFFCURVE",
"728 1121 CURVE SMOOTH",
"692 1148 OFFCURVE",
"647 1164 OFFCURVE",
"602 1164 CURVE SMOOTH",
"590 1164 LINE SMOOTH",
"534 1164 OFFCURVE",
"481 1143 OFFCURVE",
"438 1111 CURVE SMOOTH",
"395 1079 OFFCURVE",
"362 1036 OFFCURVE",
"346 992 CURVE",
"346 993 LINE",
"331 950 OFFCURVE",
"319 909 OFFCURVE",
"311 870 CURVE",
"311 871 LINE",
"308 857 OFFCURVE",
"305 846 OFFCURVE",
"304 837 CURVE",
"302 828 OFFCURVE",
"300 819 OFFCURVE",
"299 811 CURVE",
"295 794 OFFCURVE",
"293 777 OFFCURVE",
"292 748 CURVE",
"293 748 LINE",
"285 724 LINE",
"318 784 OFFCURVE",
"367 831 OFFCURVE",
"420 862 CURVE SMOOTH",
"472 893 OFFCURVE",
"529 909 OFFCURVE",
"580 909 CURVE SMOOTH",
"598 909 LINE SMOOTH",
"694 909 OFFCURVE",
"784 870 OFFCURVE",
"851 790 CURVE",
"851 791 LINE",
"907 723 OFFCURVE",
"929 621 OFFCURVE",
"929 512 CURVE SMOOTH",
"929 497 OFFCURVE",
"928 480 OFFCURVE",
"927 465 CURVE SMOOTH"
);
},
{
closed = 1;
nodes = (
"794 569 LINE",
"795 574 OFFCURVE",
"796 579 OFFCURVE",
"796 583 CURVE SMOOTH",
"796 587 OFFCURVE",
"796 591 OFFCURVE",
"796 594 CURVE SMOOTH",
"796 639 OFFCURVE",
"772 678 OFFCURVE",
"733 705 CURVE SMOOTH",
"693 732 OFFCURVE",
"640 748 OFFCURVE",
"581 748 CURVE SMOOTH",
"567 748 LINE SMOOTH",
"507 747 OFFCURVE",
"434 734 OFFCURVE",
"390 703 CURVE SMOOTH",
"346 672 OFFCURVE",
"321 635 OFFCURVE",
"314 607 CURVE",
"314 608 LINE",
"313 602 OFFCURVE",
"312 597 OFFCURVE",
"312 594 CURVE",
"311 591 OFFCURVE",
"311 588 OFFCURVE",
"310 585 CURVE",
"310 586 LINE",
"309 575 OFFCURVE",
"308 564 OFFCURVE",
"308 557 CURVE SMOOTH",
"308 513 OFFCURVE",
"326 467 OFFCURVE",
"362 428 CURVE SMOOTH",
"397 391 OFFCURVE",
"455 370 OFFCURVE",
"530 370 CURVE SMOOTH",
"543 370 LINE SMOOTH",
"603 370 OFFCURVE",
"668 380 OFFCURVE",
"711 415 CURVE",
"710 412 LINE",
"761 457 OFFCURVE",
"781 496 OFFCURVE",
"788 527 CURVE",
"788 525 LINE",
"791 542 OFFCURVE",
"793 555 OFFCURVE",
"794 564 CURVE"
);
}
);
width = 1074;
}
);
unicode = 0036;
},
{
glyphname = seven;
lastChange = "2012-07-01 20:33:04 +0000";
layers = (
{
layerId = "0F287C55-347F-439B-BC0E-FB0B2C3C2256";
name = Bold;
paths = (
{
closed = 1;
nodes = (
"950 1207 LINE",
"967 1183 LINE",
"875 1028 OFFCURVE",
"785 867 OFFCURVE",
"701 710 CURVE SMOOTH",
"624 569 OFFCURVE",
"565 424 OFFCURVE",
"538 292 CURVE SMOOTH",
"521 212 OFFCURVE",
"510 131 OFFCURVE",
"509 28 CURVE",
"444 32 OFFCURVE",
"379 34 OFFCURVE",
"314 34 CURVE SMOOTH",
"233 34 LINE",
"238 69 OFFCURVE",
"242 102 OFFCURVE",
"246 133 CURVE SMOOTH",
"250 163 OFFCURVE",
"254 188 OFFCURVE",
"258 207 CURVE SMOOTH",
"289 346 OFFCURVE",
"336 473 OFFCURVE",
"399 590 CURVE SMOOTH",
"507 790 OFFCURVE",
"626 967 OFFCURVE",
"759 1144 CURVE",
"680 1141 OFFCURVE",
"598 1139 OFFCURVE",
"525 1139 CURVE SMOOTH",
"396 1139 OFFCURVE",
"267 1143 OFFCURVE",
"134 1158 CURVE",
"134 1264 LINE SMOOTH",
"134 1269 OFFCURVE",
"134 1276 OFFCURVE",
"134 1286 CURVE SMOOTH",
"134 1296 OFFCURVE",
"134 1307 OFFCURVE",
"135 1318 CURVE",
"135 1329 OFFCURVE",
"135 1339 OFFCURVE",
"135 1350 CURVE SMOOTH",
"135 1360 OFFCURVE",
"135 1368 OFFCURVE",
"135 1373 CURVE",
"275 1354 OFFCURVE",
"411 1348 OFFCURVE",
"552 1348 CURVE SMOOTH",
"695 1348 OFFCURVE",
"840 1357 OFFCURVE",
"993 1373 CURVE",
"979 1283 LINE SMOOTH",
"977 1268 OFFCURVE",
"975 1253 OFFCURVE",
"973 1240 CURVE",
"970 1226 OFFCURVE",
"968 1212 OFFCURVE",
"966 1197 CURVE",
"949 1220 LINE"
);
}
);
width = 1035;
}
);
unicode = 0037;
},
{
glyphname = eight;
lastChange = "2012-07-01 20:33:04 +0000";
layers = (
{
layerId = "0F287C55-347F-439B-BC0E-FB0B2C3C2256";
name = Bold;
paths = (
{
closed = 1;
nodes = (
"956 404 LINE SMOOTH",
"955 369 OFFCURVE",
"953 336 OFFCURVE",
"946 309 CURVE",
"929 228 OFFCURVE",
"899 152 OFFCURVE",
"843 107 CURVE SMOOTH",
"795 70 OFFCURVE",
"743 47 OFFCURVE",
"692 34 CURVE SMOOTH",
"640 21 OFFCURVE",
"590 17 OFFCURVE",
"543 17 CURVE SMOOTH",
"522 17 LINE SMOOTH",
"467 17 OFFCURVE",
"412 22 OFFCURVE",
"358 37 CURVE SMOOTH",
"304 52 OFFCURVE",
"251 74 OFFCURVE",
"206 113 CURVE SMOOTH",
"145 164 OFFCURVE",
"120 255 OFFCURVE",
"120 355 CURVE SMOOTH",
"120 378 OFFCURVE",
"121 398 OFFCURVE",
"123 415 CURVE",
"124 434 OFFCURVE",
"126 449 OFFCURVE",
"129 461 CURVE SMOOTH",
"145 533 OFFCURVE",
"171 598 OFFCURVE",
"210 642 CURVE SMOOTH",
"241 678 OFFCURVE",
"277 706 OFFCURVE",
"316 727 CURVE",
"261 768 OFFCURVE",
"225 831 OFFCURVE",
"210 896 CURVE SMOOTH",
"202 929 OFFCURVE",
"198 964 OFFCURVE",
"198 1002 CURVE SMOOTH",
"198 1013 LINE SMOOTH",
"198 1015 OFFCURVE",
"198 1017 OFFCURVE",
"199 1019 CURVE",
"199 1021 OFFCURVE",
"199 1023 OFFCURVE",
"199 1024 CURVE SMOOTH",
"199 1053 OFFCURVE",
"201 1076 OFFCURVE",
"206 1095 CURVE",
"206 1094 LINE",
"222 1171 OFFCURVE",
"253 1243 OFFCURVE",
"308 1284 CURVE SMOOTH",
"355 1319 OFFCURVE",
"404 1340 OFFCURVE",
"452 1352 CURVE SMOOTH",
"499 1364 OFFCURVE",
"546 1367 OFFCURVE",
"589 1367 CURVE SMOOTH",
"600 1367 LINE SMOOTH",
"701 1364 OFFCURVE",
"808 1343 OFFCURVE",
"893 1275 CURVE SMOOTH",
"949 1228 OFFCURVE",
"977 1140 OFFCURVE",
"977 1045 CURVE SMOOTH",
"977 1037 OFFCURVE",
"977 1030 OFFCURVE",
"977 1024 CURVE SMOOTH",
"977 1018 OFFCURVE",
"977 1012 OFFCURVE",
"976 1007 CURVE",
"970 969 LINE",
"955 902 OFFCURVE",
"933 844 OFFCURVE",
"898 801 CURVE",
"898 803 LINE",
"873 770 OFFCURVE",
"845 742 OFFCURVE",
"813 723 CURVE",
"848 703 OFFCURVE",
"878 674 OFFCURVE",
"905 639 CURVE",
"941 587 OFFCURVE",
"957 512 OFFCURVE",
"957 431 CURVE SMOOTH",
"957 428 OFFCURVE",
"957 426 OFFCURVE",
"957 424 CURVE",
"956 421 OFFCURVE",
"956 419 OFFCURVE",
"956 418 CURVE SMOOTH"
);
},
{
closed = 1;
nodes = (
"814 1049 LINE",
"817 1064 OFFCURVE",
"819 1075 OFFCURVE",
"819 1080 CURVE SMOOTH",
"819 1121 OFFCURVE",
"794 1156 OFFCURVE",
"757 1180 CURVE SMOOTH",
"720 1203 OFFCURVE",
"667 1216 OFFCURVE",
"614 1216 CURVE SMOOTH",
"613 1216 OFFCURVE",
"611 1216 OFFCURVE",
"610 1216 CURVE",
"608 1215 OFFCURVE",
"606 1215 OFFCURVE",
"605 1215 CURVE SMOOTH",
"597 1215 LINE SMOOTH",
"568 1215 OFFCURVE",
"536 1213 OFFCURVE",
"506 1209 CURVE SMOOTH",
"476 1204 OFFCURVE",
"448 1196 OFFCURVE",
"431 1183 CURVE",
"432 1186 LINE",
"384 1143 OFFCURVE",
"366 1111 OFFCURVE",
"361 1084 CURVE",
"356 1066 OFFCURVE",
"354 1052 OFFCURVE",
"354 1042 CURVE SMOOTH",
"354 1032 LINE",
"353 1027 OFFCURVE",
"353 1023 OFFCURVE",
"353 1020 CURVE SMOOTH",
"353 1016 OFFCURVE",
"353 1013 OFFCURVE",
"353 1012 CURVE SMOOTH",
"353 968 OFFCURVE",
"374 928 OFFCURVE",
"409 900 CURVE SMOOTH",
"444 872 OFFCURVE",
"494 854 OFFCURVE",
"550 854 CURVE SMOOTH",
"559 854 LINE SMOOTH",
"560 854 OFFCURVE",
"562 854 OFFCURVE",
"564 855 CURVE",
"565 855 OFFCURVE",
"567 855 OFFCURVE",
"568 855 CURVE SMOOTH",
"625 856 OFFCURVE",
"694 863 OFFCURVE",
"739 899 CURVE",
"738 896 LINE",
"782 937 OFFCURVE",
"802 972 OFFCURVE",
"807 1003 CURVE",
"809 1012 OFFCURVE",
"811 1020 OFFCURVE",
"812 1027 CURVE SMOOTH",
"813 1034 OFFCURVE",
"813 1039 OFFCURVE",
"814 1043 CURVE"
);
},
{
closed = 1;
nodes = (
"840 468 LINE",
"840 469 OFFCURVE",
"840 471 OFFCURVE",
"841 473 CURVE",
"841 474 OFFCURVE",
"841 475 OFFCURVE",
"841 476 CURVE",
"842 480 OFFCURVE",
"842 483 OFFCURVE",
"842 485 CURVE SMOOTH",
"842 487 OFFCURVE",
"842 489 OFFCURVE",
"842 490 CURVE SMOOTH",
"842 542 OFFCURVE",
"808 581 OFFCURVE",
"759 606 CURVE SMOOTH",
"710 631 OFFCURVE",
"645 644 OFFCURVE",
"582 644 CURVE SMOOTH",
"563 644 LINE",
"491 641 OFFCURVE",
"409 633 OFFCURVE",
"356 598 CURVE",
"357 598 LINE",
"297 558 OFFCURVE",
"267 515 OFFCURVE",
"259 478 CURVE",
"258 475 OFFCURVE",
"257 472 OFFCURVE",
"257 470 CURVE",
"256 467 OFFCURVE",
"256 464 OFFCURVE",
"255 461 CURVE",
"255 441 OFFCURVE",
"280 412 OFFCURVE",
"320 389 CURVE SMOOTH",
"360 365 OFFCURVE",
"416 346 OFFCURVE",
"477 346 CURVE SMOOTH",
"492 346 OFFCURVE",
"506 347 OFFCURVE",
"517 349 CURVE",
"537 349 LINE SMOOTH",
"612 350 OFFCURVE",
"691 350 OFFCURVE",
"764 381 CURVE",
"764 380 LINE",
"809 403 OFFCURVE",
"830 434 OFFCURVE",
"837 465 CURVE",
"837 466 OFFCURVE",
"837 467 OFFCURVE",
"838 468 CURVE SMOOTH",
"839 469 OFFCURVE",
"839 470 OFFCURVE",
"839 471 CURVE SMOOTH",
"839 472 OFFCURVE",
"839 472 OFFCURVE",
"840 473 CURVE"
);
}
);
width = 1113;
}
);
unicode = 0038;
},
{
glyphname = nine;
lastChange = "2012-07-01 20:33:04 +0000";
layers = (
{
layerId = "0F287C55-347F-439B-BC0E-FB0B2C3C2256";
name = Bold;
paths = (
{
closed = 1;
nodes = (
"942 686 LINE",
"942 687 LINE",
"934 602 OFFCURVE",
"925 516 OFFCURVE",
"908 440 CURVE",
"908 441 LINE",
"889 352 OFFCURVE",
"863 266 OFFCURVE",
"824 194 CURVE SMOOTH",
"788 127 OFFCURVE",
"734 82 OFFCURVE",
"675 54 CURVE SMOOTH",
"616 26 OFFCURVE",
"552 15 OFFCURVE",
"496 15 CURVE SMOOTH",
"491 15 OFFCURVE",
"486 15 OFFCURVE",
"481 15 CURVE SMOOTH",
"475 15 OFFCURVE",
"470 15 OFFCURVE",
"465 16 CURVE",
"460 15 OFFCURVE",
"455 15 OFFCURVE",
"450 15 CURVE SMOOTH",
"444 15 OFFCURVE",
"439 15 OFFCURVE",
"434 15 CURVE SMOOTH",
"355 15 OFFCURVE",
"282 44 OFFCURVE",
"225 100 CURVE SMOOTH",
"168 156 OFFCURVE",
"128 237 OFFCURVE",
"117 341 CURVE",
"238 380 LINE SMOOTH",
"251 384 OFFCURVE",
"263 388 OFFCURVE",
"275 391 CURVE SMOOTH",
"287 394 OFFCURVE",
"299 398 OFFCURVE",
"312 402 CURVE",
"336 355 OFFCURVE",
"391 340 OFFCURVE",
"451 340 CURVE SMOOTH",
"463 340 OFFCURVE",
"478 340 OFFCURVE",
"494 343 CURVE",
"530 346 OFFCURVE",
"569 349 OFFCURVE",
"605 359 CURVE SMOOTH",
"641 369 OFFCURVE",
"674 383 OFFCURVE",
"697 410 CURVE",
"697 406 LINE",
"740 470 OFFCURVE",
"757 532 OFFCURVE",
"770 589 CURVE SMOOTH",
"772 598 OFFCURVE",
"773 603 OFFCURVE",
"774 605 CURVE",
"774 609 OFFCURVE",
"775 611 OFFCURVE",
"776 616 CURVE",
"777 619 OFFCURVE",
"778 625 OFFCURVE",
"780 634 CURVE",
"745 605 OFFCURVE",
"721 594 OFFCURVE",
"700 583 CURVE",
"644 563 OFFCURVE",
"579 558 OFFCURVE",
"515 553 CURVE",
"513 553 OFFCURVE",
"511 553 OFFCURVE",
"509 553 CURVE",
"506 552 OFFCURVE",
"504 552 OFFCURVE",
"501 552 CURVE",
"503 553 LINE",
"498 552 OFFCURVE",
"494 552 OFFCURVE",
"492 552 CURVE SMOOTH",
"489 552 OFFCURVE",
"487 552 OFFCURVE",
"485 552 CURVE",
"402 557 OFFCURVE",
"317 578 OFFCURVE",
"256 629 CURVE",
"224 662 OFFCURVE",
"199 711 OFFCURVE",
"181 763 CURVE SMOOTH",
"163 815 OFFCURVE",
"152 871 OFFCURVE",
"149 922 CURVE",
"152 961 OFFCURVE",
"155 1013 OFFCURVE",
"162 1041 CURVE",
"162 1040 LINE",
"181 1125 OFFCURVE",
"211 1205 OFFCURVE",
"267 1256 CURVE",
"267 1255 LINE",
"312 1299 OFFCURVE",
"366 1327 OFFCURVE",
"419 1344 CURVE SMOOTH",
"471 1360 OFFCURVE",
"523 1367 OFFCURVE",
"570 1367 CURVE SMOOTH",
"577 1367 LINE SMOOTH",
"634 1367 OFFCURVE",
"692 1354 OFFCURVE",
"744 1330 CURVE SMOOTH",
"796 1305 OFFCURVE",
"841 1267 OFFCURVE",
"873 1219 CURVE",
"934 1107 OFFCURVE",
"950 981 OFFCURVE",
"950 854 CURVE SMOOTH",
"950 807 OFFCURVE",
"948 756 OFFCURVE",
"945 711 CURVE"
);
},
{
closed = 1;
nodes = (
"775 931 OFFCURVE",
"776 941 OFFCURVE",
"776 954 CURVE SMOOTH",
"776 1007 OFFCURVE",
"763 1063 OFFCURVE",
"726 1110 CURVE",
"695 1154 OFFCURVE",
"631 1179 OFFCURVE",
"551 1179 CURVE SMOOTH",
"471 1179 OFFCURVE",
"403 1161 OFFCURVE",
"359 1120 CURVE",
"359 1122 LINE",
"323 1083 OFFCURVE",
"303 1045 OFFCURVE",
"295 1012 CURVE",
"295 1014 LINE",
"291 990 OFFCURVE",
"287 967 OFFCURVE",
"286 951 CURVE",
"285 950 OFFCURVE",
"285 948 OFFCURVE",
"285 946 CURVE SMOOTH",
"285 938 LINE SMOOTH",
"285 906 OFFCURVE",
"306 870 OFFCURVE",
"341 838 CURVE SMOOTH",
"376 806 OFFCURVE",
"439 793 OFFCURVE",
"511 793 CURVE SMOOTH",
"555 793 OFFCURVE",
"604 802 OFFCURVE",
"639 817 CURVE",
"674 834 OFFCURVE",
"714 854 OFFCURVE",
"733 869 CURVE",
"733 868 LINE",
"760 888 OFFCURVE",
"771 907 OFFCURVE",
"774 919 CURVE"
);
}
);
width = 1081;
}
);
unicode = 0039;
},
{
glyphname = colon;
lastChange = "2012-07-01 20:33:04 +0000";
layers = (
{
layerId = "0F287C55-347F-439B-BC0E-FB0B2C3C2256";
name = Bold;
paths = (
{
closed = 1;
nodes = (
"167 752 LINE",
"170 800 OFFCURVE",
"172 856 OFFCURVE",
"175 913 CURVE SMOOTH",
"176 941 OFFCURVE",
"177 969 OFFCURVE",
"178 996 CURVE SMOOTH",
"179 1023 OFFCURVE",
"179 1049 OFFCURVE",
"180 1072 CURVE",
"244 1056 OFFCURVE",
"304 1054 OFFCURVE",
"368 1054 CURVE SMOOTH",
"391 1054 OFFCURVE",
"425 1055 OFFCURVE",
"448 1056 CURVE",
"445 1033 OFFCURVE",
"442 1000 OFFCURVE",
"439 966 CURVE SMOOTH",
"438 949 OFFCURVE",
"436 932 OFFCURVE",
"435 917 CURVE",
"433 901 OFFCURVE",
"432 888 OFFCURVE",
"431 877 CURVE SMOOTH",
"430 866 OFFCURVE",
"429 854 OFFCURVE",
"428 839 CURVE SMOOTH",
"427 824 OFFCURVE",
"425 808 OFFCURVE",
"424 792 CURVE SMOOTH",
"423 776 OFFCURVE",
"421 761 OFFCURVE",
"420 746 CURVE SMOOTH",
"419 731 OFFCURVE",
"418 718 OFFCURVE",
"417 707 CURVE",
"400 706 OFFCURVE",
"383 706 OFFCURVE",
"368 706 CURVE SMOOTH",
"353 706 OFFCURVE",
"337 706 OFFCURVE",
"320 706 CURVE SMOOTH",
"253 706 LINE SMOOTH",
"240 706 OFFCURVE",
"227 706 OFFCURVE",
"214 706 CURVE SMOOTH",
"201 706 OFFCURVE",
"189 705 OFFCURVE",
"177 704 CURVE"
);
},
{
closed = 1;
nodes = (
"112 66 LINE",
"113 93 OFFCURVE",
"115 121 OFFCURVE",
"118 148 CURVE",
"120 175 OFFCURVE",
"122 202 OFFCURVE",
"124 229 CURVE",
"125 237 OFFCURVE",
"125 246 OFFCURVE",
"126 255 CURVE SMOOTH",
"127 264 OFFCURVE",
"128 273 OFFCURVE",
"129 280 CURVE",
"130 285 OFFCURVE",
"130 292 OFFCURVE",
"131 301 CURVE",
"132 319 OFFCURVE",
"135 338 OFFCURVE",
"137 355 CURVE SMOOTH",
"138 363 OFFCURVE",
"138 369 OFFCURVE",
"139 374 CURVE",
"154 375 OFFCURVE",
"169 375 OFFCURVE",
"183 375 CURVE SMOOTH",
"196 375 OFFCURVE",
"211 375 OFFCURVE",
"226 375 CURVE SMOOTH",
"277 375 OFFCURVE",
"340 373 OFFCURVE",
"389 370 CURVE",
"386 323 OFFCURVE",
"384 258 OFFCURVE",
"381 191 CURVE SMOOTH",
"378 123 OFFCURVE",
"376 56 OFFCURVE",
"375 11 CURVE",
"311 24 OFFCURVE",
"249 27 OFFCURVE",
"182 27 CURVE SMOOTH",
"155 27 OFFCURVE",
"132 27 OFFCURVE",
"125 24 CURVE"
);
}
);
width = 551;
}
);
unicode = 003A;
},
{
glyphname = semicolon;
lastChange = "2012-07-01 20:33:04 +0000";
layers = (
{
layerId = "0F287C55-347F-439B-BC0E-FB0B2C3C2256";
name = Bold;
paths = (
{
closed = 1;
nodes = (
"425 365 LINE",
"424 360 OFFCURVE",
"423 352 OFFCURVE",
"422 341 CURVE",
"419 320 OFFCURVE",
"417 296 OFFCURVE",
"415 276 CURVE SMOOTH",
"414 265 OFFCURVE",
"413 258 OFFCURVE",
"412 253 CURVE",
"412 254 LINE",
"411 248 OFFCURVE",
"411 241 OFFCURVE",
"411 234 CURVE",
"410 226 OFFCURVE",
"410 219 OFFCURVE",
"409 213 CURVE",
"407 196 OFFCURVE",
"405 178 OFFCURVE",
"403 160 CURVE",
"400 142 OFFCURVE",
"398 124 OFFCURVE",
"397 107 CURVE",
"394 79 OFFCURVE",
"391 52 OFFCURVE",
"388 26 CURVE SMOOTH",
"382 -26 OFFCURVE",
"372 -60 OFFCURVE",
"364 -93 CURVE SMOOTH",
"360 -110 OFFCURVE",
"355 -125 OFFCURVE",
"350 -139 CURVE SMOOTH",
"327 -206 OFFCURVE",
"290 -273 OFFCURVE",
"251 -330 CURVE",
"212 -323 OFFCURVE",
"130 -321 OFFCURVE",
"42 -321 CURVE",
"94 -256 OFFCURVE",
"140 -191 OFFCURVE",
"176 -131 CURVE SMOOTH",
"211 -72 OFFCURVE",
"235 -21 OFFCURVE",
"246 19 CURVE",
"246 24 LINE",
"233 25 OFFCURVE",
"219 25 OFFCURVE",
"204 25 CURVE SMOOTH",
"189 25 OFFCURVE",
"176 25 OFFCURVE",
"163 25 CURVE SMOOTH",
"134 25 LINE",
"173 372 LINE",
"190 371 OFFCURVE",
"208 371 OFFCURVE",
"226 370 CURVE SMOOTH",
"244 369 OFFCURVE",
"261 369 OFFCURVE",
"277 368 CURVE",
"286 367 OFFCURVE",
"296 367 OFFCURVE",
"305 367 CURVE SMOOTH",
"314 367 OFFCURVE",
"324 367 OFFCURVE",
"334 366 CURVE"
);
},
{
closed = 1;
nodes = (
"204 767 LINE",
"219 852 OFFCURVE",
"229 959 OFFCURVE",
"237 1075 CURVE",
"301 1051 OFFCURVE",
"369 1044 OFFCURVE",
"440 1044 CURVE SMOOTH",
"447 1044 OFFCURVE",
"458 1044 OFFCURVE",
"471 1045 CURVE",
"484 1045 OFFCURVE",
"495 1045 OFFCURVE",
"504 1045 CURVE",
"503 1036 OFFCURVE",
"501 1025 OFFCURVE",
"500 1012 CURVE",
"498 998 OFFCURVE",
"496 984 OFFCURVE",
"494 969 CURVE SMOOTH",
"490 939 OFFCURVE",
"486 909 OFFCURVE",
"485 893 CURVE SMOOTH",
"484 882 OFFCURVE",
"482 870 OFFCURVE",
"481 859 CURVE",
"479 848 OFFCURVE",
"477 836 OFFCURVE",
"476 823 CURVE",
"460 697 LINE",
"449 696 OFFCURVE",
"439 696 OFFCURVE",
"430 696 CURVE SMOOTH",
"421 696 OFFCURVE",
"410 696 OFFCURVE",
"399 696 CURVE SMOOTH",
"336 696 OFFCURVE",
"276 701 OFFCURVE",
"212 714 CURVE"
);
}
);
width = 575;
}
);
unicode = 003B;
},
{
glyphname = less;
lastChange = "2012-07-01 20:33:04 +0000";
layers = (
{
layerId = "0F287C55-347F-439B-BC0E-FB0B2C3C2256";
name = Bold;
paths = (
{
closed = 1;
nodes = (
"255 403 OFFCURVE",
"124 475 OFFCURVE",
"13 540 CURVE",
"31 568 LINE SMOOTH",
"51 600 OFFCURVE",
"59 649 OFFCURVE",
"63 699 CURVE",
"64 724 OFFCURVE",
"65 748 OFFCURVE",
"66 773 CURVE",
"66 797 OFFCURVE",
"67 819 OFFCURVE",
"69 838 CURVE",
"263 896 LINE SMOOTH",
"382 932 OFFCURVE",
"519 973 OFFCURVE",
"655 1017 CURVE SMOOTH",
"791 1060 OFFCURVE",
"926 1105 OFFCURVE",
"1042 1148 CURVE",
"1028 1119 OFFCURVE",
"1016 1096 OFFCURVE",
"1007 1077 CURVE SMOOTH",
"998 1058 OFFCURVE",
"993 1047 OFFCURVE",
"993 1046 CURVE",
"990 1035 OFFCURVE",
"987 1022 OFFCURVE",
"984 1009 CURVE",
"980 996 OFFCURVE",
"976 982 OFFCURVE",
"973 968 CURVE SMOOTH",
"970 954 OFFCURVE",
"966 940 OFFCURVE",
"963 927 CURVE SMOOTH",
"960 913 OFFCURVE",
"957 901 OFFCURVE",
"955 890 CURVE",
"776 823 OFFCURVE",
"608 768 OFFCURVE",
"428 711 CURVE SMOOTH",
"295 668 LINE",
"336 645 OFFCURVE",
"377 622 OFFCURVE",
"416 599 CURVE SMOOTH",
"451 579 OFFCURVE",
"487 558 OFFCURVE",
"524 537 CURVE SMOOTH",
"599 494 OFFCURVE",
"676 449 OFFCURVE",
"749 405 CURVE SMOOTH",
"786 382 OFFCURVE",
"821 361 OFFCURVE",
"855 340 CURVE",
"855 262 LINE",
"854 250 OFFCURVE",
"853 236 OFFCURVE",
"852 219 CURVE SMOOTH",
"851 202 OFFCURVE",
"851 184 OFFCURVE",
"850 167 CURVE SMOOTH",
"848 131 OFFCURVE",
"846 95 OFFCURVE",
"846 71 CURVE",
"717 152 OFFCURVE",
"581 226 OFFCURVE",
"449 298 CURVE SMOOTH",
"436 305 OFFCURVE",
"422 313 OFFCURVE",
"409 320 CURVE SMOOTH",
"395 327 OFFCURVE",
"381 335 OFFCURVE",
"368 342 CURVE SMOOTH"
);
}
);
width = 1152;
}
);
unicode = 003C;
},
{
glyphname = equal;
lastChange = "2012-07-01 20:33:04 +0000";
layers = (
{
layerId = "0F287C55-347F-439B-BC0E-FB0B2C3C2256";
name = Bold;
paths = (
{
closed = 1;
nodes = (
"205 817 LINE",
"208 832 OFFCURVE",
"209 848 OFFCURVE",
"209 863 CURVE SMOOTH",
"209 890 OFFCURVE",
"203 941 OFFCURVE",
"194 1006 CURVE",
"355 997 OFFCURVE",
"519 992 OFFCURVE",
"682 992 CURVE SMOOTH",
"823 992 OFFCURVE",
"984 997 OFFCURVE",
"1128 1002 CURVE",
"1124 989 OFFCURVE",
"1118 964 OFFCURVE",
"1111 938 CURVE SMOOTH",
"1104 912 OFFCURVE",
"1099 885 OFFCURVE",
"1096 872 CURVE SMOOTH",
"1093 860 OFFCURVE",
"1089 839 OFFCURVE",
"1086 819 CURVE SMOOTH",
"1084 808 OFFCURVE",
"1082 798 OFFCURVE",
"1081 788 CURVE",
"1079 778 OFFCURVE",
"1078 770 OFFCURVE",
"1077 764 CURVE",
"925 760 OFFCURVE",
"783 759 OFFCURVE",
"632 759 CURVE SMOOTH",
"491 759 OFFCURVE",
"355 760 OFFCURVE",
"214 764 CURVE"
);
},
{
closed = 1;
nodes = (
"160 340 OFFCURVE",
"162 358 OFFCURVE",
"163 371 CURVE SMOOTH",
"164 384 OFFCURVE",
"165 395 OFFCURVE",
"166 402 CURVE SMOOTH",
"167 409 OFFCURVE",
"167 413 OFFCURVE",
"168 416 CURVE",
"169 418 OFFCURVE",
"169 420 OFFCURVE",
"169 421 CURVE",
"173 437 OFFCURVE",
"178 462 OFFCURVE",
"183 487 CURVE",
"187 512 OFFCURVE",
"191 537 OFFCURVE",
"194 553 CURVE",
"346 556 OFFCURVE",
"487 558 OFFCURVE",
"639 558 CURVE SMOOTH",
"778 558 OFFCURVE",
"916 556 OFFCURVE",
"1056 553 CURVE",
"1056 481 OFFCURVE",
"1061 410 OFFCURVE",
"1078 313 CURVE",
"915 322 OFFCURVE",
"751 325 OFFCURVE",
"587 325 CURVE SMOOTH",
"443 325 OFFCURVE",
"302 324 OFFCURVE",
"158 317 CURVE"
);
}
);
width = 1277;
}
);
unicode = 003D;
},
{
glyphname = greater;
lastChange = "2012-07-01 20:33:04 +0000";
layers = (
{
layerId = "0F287C55-347F-439B-BC0E-FB0B2C3C2256";
name = Bold;
paths = (
{
closed = 1;
nodes = (
"177 257 LINE",
"176 247 LINE",
"181 268 OFFCURVE",
"187 289 OFFCURVE",
"192 310 CURVE SMOOTH",
"197 330 OFFCURVE",
"202 351 OFFCURVE",
"207 372 CURVE",
"207 369 LINE",
"207 374 OFFCURVE",
"209 387 OFFCURVE",
"212 399 CURVE SMOOTH",
"215 411 OFFCURVE",
"217 423 OFFCURVE",
"217 426 CURVE",
"384 486 OFFCURVE",
"556 543 OFFCURVE",
"723 598 CURVE SMOOTH",
"760 610 OFFCURVE",
"778 616 OFFCURVE",
"798 623 CURVE SMOOTH",
"807 626 OFFCURVE",
"818 630 OFFCURVE",
"829 634 CURVE",
"840 637 OFFCURVE",
"856 642 OFFCURVE",
"876 649 CURVE",
"850 664 OFFCURVE",
"823 678 OFFCURVE",
"796 693 CURVE SMOOTH",
"768 708 OFFCURVE",
"742 722 OFFCURVE",
"719 735 CURVE SMOOTH",
"582 811 OFFCURVE",
"440 892 OFFCURVE",
"308 979 CURVE",
"308 982 OFFCURVE",
"308 986 OFFCURVE",
"309 993 CURVE SMOOTH",
"310 1000 OFFCURVE",
"310 1007 OFFCURVE",
"311 1015 CURVE",
"311 1022 OFFCURVE",
"311 1029 OFFCURVE",
"312 1036 CURVE SMOOTH",
"313 1043 OFFCURVE",
"313 1047 OFFCURVE",
"313 1050 CURVE",
"313 1049 LINE",
"314 1059 OFFCURVE",
"315 1071 OFFCURVE",
"316 1086 CURVE SMOOTH",
"318 1115 OFFCURVE",
"320 1147 OFFCURVE",
"321 1176 CURVE",
"322 1190 OFFCURVE",
"322 1202 OFFCURVE",
"322 1211 CURVE",
"481 1110 OFFCURVE",
"653 1017 OFFCURVE",
"820 928 CURVE",
"827 925 OFFCURVE",
"835 921 OFFCURVE",
"844 916 CURVE SMOOTH",
"853 911 OFFCURVE",
"861 906 OFFCURVE",
"868 903 CURVE",
"956 855 OFFCURVE",
"1054 800 OFFCURVE",
"1142 749 CURVE",
"1135 710 OFFCURVE",
"1127 653 OFFCURVE",
"1119 597 CURVE SMOOTH",
"1115 568 OFFCURVE",
"1111 541 OFFCURVE",
"1108 514 CURVE",
"1104 487 OFFCURVE",
"1101 464 OFFCURVE",
"1098 445 CURVE",
"968 405 LINE SMOOTH",
"944 397 OFFCURVE",
"919 389 OFFCURVE",
"894 382 CURVE SMOOTH",
"869 375 OFFCURVE",
"844 367 OFFCURVE",
"819 359 CURVE SMOOTH",
"710 326 OFFCURVE",
"585 287 OFFCURVE",
"461 248 CURVE SMOOTH",
"337 208 OFFCURVE",
"213 167 OFFCURVE",
"105 128 CURVE"
);
}
);
width = 1173;
}
);
unicode = 003E;
},
{
glyphname = question;
lastChange = "2012-07-01 20:33:04 +0000";
layers = (
{
layerId = "0F287C55-347F-439B-BC0E-FB0B2C3C2256";
name = Bold;
paths = (
{
closed = 1;
nodes = (
"951 961 OFFCURVE",
"949 946 OFFCURVE",
"946 935 CURVE",
"946 937 LINE",
"938 901 OFFCURVE",
"930 872 OFFCURVE",
"919 848 CURVE",
"896 803 OFFCURVE",
"876 763 OFFCURVE",
"857 742 CURVE SMOOTH",
"804 683 OFFCURVE",
"768 654 OFFCURVE",
"732 629 CURVE SMOOTH",
"663 579 LINE",
"665 587 LINE",
"626 542 OFFCURVE",
"606 512 OFFCURVE",
"587 487 CURVE",
"566 457 OFFCURVE",
"555 433 OFFCURVE",
"552 415 CURVE",
"550 409 OFFCURVE",
"549 392 OFFCURVE",
"549 363 CURVE",
"528 364 OFFCURVE",
"508 364 OFFCURVE",
"488 364 CURVE SMOOTH",
"467 364 OFFCURVE",
"447 364 OFFCURVE",
"426 364 CURVE SMOOTH",
"407 364 OFFCURVE",
"385 364 OFFCURVE",
"362 364 CURVE SMOOTH",
"338 364 OFFCURVE",
"317 364 OFFCURVE",
"298 363 CURVE",
"299 394 OFFCURVE",
"301 413 OFFCURVE",
"302 426 CURVE SMOOTH",
"303 439 OFFCURVE",
"304 446 OFFCURVE",
"307 454 CURVE",
"307 452 LINE",
"320 517 OFFCURVE",
"346 585 OFFCURVE",
"389 618 CURVE SMOOTH",
"439 658 LINE SMOOTH",
"443 661 OFFCURVE",
"444 661 OFFCURVE",
"442 658 CURVE",
"486 695 OFFCURVE",
"524 726 OFFCURVE",
"539 735 CURVE",
"539 734 LINE",
"596 773 OFFCURVE",
"651 812 OFFCURVE",
"683 839 CURVE SMOOTH",
"730 880 OFFCURVE",
"762 932 OFFCURVE",
"771 969 CURVE SMOOTH",
"774 982 OFFCURVE",
"775 988 OFFCURVE",
"776 999 CURVE",
"772 1038 OFFCURVE",
"758 1085 OFFCURVE",
"727 1125 CURVE SMOOTH",
"714 1142 OFFCURVE",
"690 1153 OFFCURVE",
"660 1158 CURVE SMOOTH",
"630 1163 OFFCURVE",
"594 1165 OFFCURVE",
"561 1165 CURVE SMOOTH",
"485 1165 OFFCURVE",
"404 1153 OFFCURVE",
"348 1108 CURVE SMOOTH",
"292 1061 OFFCURVE",
"258 992 OFFCURVE",
"243 924 CURVE",
"207 928 LINE SMOOTH",
"200 929 OFFCURVE",
"194 930 OFFCURVE",
"188 931 CURVE SMOOTH",
"182 932 OFFCURVE",
"176 933 OFFCURVE",
"169 934 CURVE",
"169 933 LINE",
"149 936 OFFCURVE",
"115 941 OFFCURVE",
"95 945 CURVE",
"98 969 OFFCURVE",
"101 987 OFFCURVE",
"102 998 CURVE SMOOTH",
"103 1009 OFFCURVE",
"105 1016 OFFCURVE",
"106 1019 CURVE",
"107 1020 OFFCURVE",
"107 1021 OFFCURVE",
"107 1022 CURVE",
"106 1022 OFFCURVE",
"106 1023 OFFCURVE",
"107 1024 CURVE",
"107 1023 LINE",
"118 1071 OFFCURVE",
"132 1120 OFFCURVE",
"153 1163 CURVE SMOOTH",
"174 1206 OFFCURVE",
"201 1242 OFFCURVE",
"237 1269 CURVE SMOOTH",
"294 1310 OFFCURVE",
"350 1335 OFFCURVE",
"403 1348 CURVE SMOOTH",
"456 1361 OFFCURVE",
"507 1364 OFFCURVE",
"555 1364 CURVE SMOOTH",
"610 1364 OFFCURVE",
"665 1358 OFFCURVE",
"718 1345 CURVE SMOOTH",
"771 1332 OFFCURVE",
"822 1309 OFFCURVE",
"869 1273 CURVE SMOOTH",
"928 1226 OFFCURVE",
"956 1140 OFFCURVE",
"956 1041 CURVE SMOOTH",
"956 1018 OFFCURVE",
"955 1000 OFFCURVE",
"952 981 CURVE"
);
},
{
closed = 1;
nodes = (
"437 654 OFFCURVE",
"435 653 OFFCURVE",
"434 652 CURVE",
"435 653 OFFCURVE",
"437 654 OFFCURVE",
"438 655 CURVE",
"439 655 OFFCURVE",
"439 656 OFFCURVE",
"440 657 CURVE"
);
},
{
closed = 1;
nodes = (
"237 -5 LINE",
"248 26 OFFCURVE",
"250 59 OFFCURVE",
"253 90 CURVE SMOOTH",
"254 102 OFFCURVE",
"255 116 OFFCURVE",
"256 133 CURVE SMOOTH",
"257 149 OFFCURVE",
"259 166 OFFCURVE",
"260 183 CURVE SMOOTH",
"263 218 OFFCURVE",
"265 251 OFFCURVE",
"268 275 CURVE",
"284 276 OFFCURVE",
"299 276 OFFCURVE",
"314 276 CURVE SMOOTH",
"328 276 OFFCURVE",
"343 276 OFFCURVE",
"358 276 CURVE SMOOTH",
"393 276 OFFCURVE",
"426 275 OFFCURVE",
"461 274 CURVE SMOOTH",
"469 274 OFFCURVE",
"480 274 OFFCURVE",
"494 274 CURVE",
"507 273 OFFCURVE",
"517 273 OFFCURVE",
"524 273 CURVE",
"521 237 OFFCURVE",
"519 191 OFFCURVE",
"517 146 CURVE SMOOTH",
"516 123 OFFCURVE",
"515 101 OFFCURVE",
"514 79 CURVE SMOOTH",
"513 57 OFFCURVE",
"513 37 OFFCURVE",
"512 20 CURVE",
"512 17 OFFCURVE",
"512 11 OFFCURVE",
"512 3 CURVE SMOOTH",
"512 -6 OFFCURVE",
"512 -14 OFFCURVE",
"512 -23 CURVE",
"511 -32 OFFCURVE",
"511 -41 OFFCURVE",
"511 -49 CURVE SMOOTH",
"511 -58 OFFCURVE",
"511 -64 OFFCURVE",
"511 -67 CURVE",
"475 -67 LINE SMOOTH",
"426 -66 OFFCURVE",
"383 -65 OFFCURVE",
"331 -65 CURVE SMOOTH",
"316 -65 OFFCURVE",
"302 -65 OFFCURVE",
"288 -65 CURVE SMOOTH",
"274 -65 OFFCURVE",
"260 -65 OFFCURVE",
"246 -66 CURVE"
);
}
);
width = 1013;
}
);
unicode = 003F;
},
{
glyphname = at;
lastChange = "2012-07-01 20:33:04 +0000";
layers = (
{
layerId = "0F287C55-347F-439B-BC0E-FB0B2C3C2256";
name = Bold;
paths = (
{
closed = 1;
nodes = (
"1642 733 LINE",
"1638 684 OFFCURVE",
"1631 639 OFFCURVE",
"1622 596 CURVE SMOOTH",
"1607 532 OFFCURVE",
"1590 469 OFFCURVE",
"1570 414 CURVE SMOOTH",
"1545 347 OFFCURVE",
"1503 279 OFFCURVE",
"1452 225 CURVE SMOOTH",
"1401 171 OFFCURVE",
"1341 131 OFFCURVE",
"1277 119 CURVE",
"1293 88 OFFCURVE",
"1310 55 OFFCURVE",
"1325 31 CURVE",
"1329 23 OFFCURVE",
"1339 5 OFFCURVE",
"1350 -14 CURVE SMOOTH",
"1355 -23 OFFCURVE",
"1361 -32 OFFCURVE",
"1366 -41 CURVE SMOOTH",
"1371 -50 OFFCURVE",
"1374 -56 OFFCURVE",
"1376 -60 CURVE",
"1163 -179 OFFCURVE",
"952 -220 OFFCURVE",
"763 -220 CURVE SMOOTH",
"632 -220 OFFCURVE",
"504 -196 OFFCURVE",
"385 -136 CURVE SMOOTH",
"296 -89 OFFCURVE",
"215 1 OFFCURVE",
"168 118 CURVE SMOOTH",
"137 202 OFFCURVE",
"124 311 OFFCURVE",
"124 419 CURVE SMOOTH",
"124 448 OFFCURVE",
"125 476 OFFCURVE",
"128 501 CURVE SMOOTH",
"135 557 OFFCURVE",
"141 617 OFFCURVE",
"152 664 CURVE SMOOTH",
"177 779 OFFCURVE",
"210 884 OFFCURVE",
"261 977 CURVE SMOOTH",
"297 1044 OFFCURVE",
"344 1108 OFFCURVE",
"397 1164 CURVE SMOOTH",
"449 1219 OFFCURVE",
"507 1267 OFFCURVE",
"567 1300 CURVE SMOOTH",
"716 1376 OFFCURVE",
"877 1410 OFFCURVE",
"1014 1410 CURVE SMOOTH",
"1033 1410 LINE SMOOTH",
"1120 1410 OFFCURVE",
"1208 1399 OFFCURVE",
"1289 1372 CURVE SMOOTH",
"1370 1344 OFFCURVE",
"1444 1301 OFFCURVE",
"1507 1240 CURVE SMOOTH",
"1608 1137 OFFCURVE",
"1648 991 OFFCURVE",
"1648 834 CURVE SMOOTH",
"1648 797 OFFCURVE",
"1646 763 OFFCURVE",
"1642 731 CURVE"
);
},
{
closed = 1;
nodes = (
"1086 76 OFFCURVE",
"1145 93 OFFCURVE",
"1198 117 CURVE",
"1158 121 OFFCURVE",
"1120 138 OFFCURVE",
"1092 169 CURVE SMOOTH",
"1064 200 OFFCURVE",
"1047 241 OFFCURVE",
"1047 293 CURVE SMOOTH",
"1047 304 OFFCURVE",
"1048 311 OFFCURVE",
"1049 318 CURVE",
"1051 338 LINE",
"1045 338 LINE",
"1053 363 LINE",
"1017 295 OFFCURVE",
"965 235 OFFCURVE",
"907 192 CURVE SMOOTH",
"849 148 OFFCURVE",
"784 122 OFFCURVE",
"723 122 CURVE SMOOTH",
"705 122 LINE SMOOTH",
"629 122 OFFCURVE",
"556 154 OFFCURVE",
"505 225 CURVE SMOOTH",
"465 281 OFFCURVE",
"451 363 OFFCURVE",
"451 450 CURVE SMOOTH",
"451 465 OFFCURVE",
"452 484 OFFCURVE",
"453 499 CURVE SMOOTH",
"456 539 OFFCURVE",
"461 574 OFFCURVE",
"466 602 CURVE",
"481 670 OFFCURVE",
"501 731 OFFCURVE",
"528 783 CURVE SMOOTH",
"575 872 OFFCURVE",
"630 949 OFFCURVE",
"694 992 CURVE SMOOTH",
"770 1044 OFFCURVE",
"848 1070 OFFCURVE",
"919 1070 CURVE SMOOTH",
"936 1070 LINE SMOOTH",
"989 1070 OFFCURVE",
"1041 1052 OFFCURVE",
"1083 1020 CURVE SMOOTH",
"1125 987 OFFCURVE",
"1157 939 OFFCURVE",
"1176 879 CURVE",
"1166 912 LINE",
"1185 912 LINE",
"1176 879 LINE",
"1181 898 OFFCURVE",
"1190 925 OFFCURVE",
"1198 946 CURVE",
"1199 949 OFFCURVE",
"1199 951 OFFCURVE",
"1200 954 CURVE",
"1200 957 OFFCURVE",
"1201 959 OFFCURVE",
"1202 961 CURVE",
"1202 958 LINE",
"1206 969 OFFCURVE",
"1213 987 OFFCURVE",
"1219 1006 CURVE SMOOTH",
"1225 1025 OFFCURVE",
"1231 1043 OFFCURVE",
"1235 1054 CURVE",
"1246 1054 OFFCURVE",
"1256 1054 OFFCURVE",
"1265 1054 CURVE SMOOTH",
"1274 1054 OFFCURVE",
"1283 1054 OFFCURVE",
"1292 1055 CURVE",
"1297 1055 OFFCURVE",
"1303 1055 OFFCURVE",
"1311 1055 CURVE SMOOTH",
"1318 1055 OFFCURVE",
"1326 1055 OFFCURVE",
"1335 1056 CURVE",
"1343 1056 OFFCURVE",
"1351 1056 OFFCURVE",
"1359 1056 CURVE SMOOTH",
"1367 1056 OFFCURVE",
"1374 1056 OFFCURVE",
"1379 1056 CURVE",
"1367 1019 OFFCURVE",
"1354 979 OFFCURVE",
"1340 936 CURVE SMOOTH",
"1312 850 OFFCURVE",
"1284 761 OFFCURVE",
"1257 675 CURVE SMOOTH",
"1243 632 OFFCURVE",
"1231 591 OFFCURVE",
"1220 554 CURVE",
"1205 515 OFFCURVE",
"1194 479 OFFCURVE",
"1186 445 CURVE",
"1186 446 LINE",
"1181 423 OFFCURVE",
"1177 400 OFFCURVE",
"1176 377 CURVE",
"1176 378 LINE",
"1176 377 LINE",
"1176 376 LINE",
"1177 359 OFFCURVE",
"1199 344 OFFCURVE",
"1236 344 CURVE SMOOTH",
"1246 344 LINE SMOOTH",
"1293 344 OFFCURVE",
"1337 353 OFFCURVE",
"1370 376 CURVE",
"1402 396 OFFCURVE",
"1422 418 OFFCURVE",
"1438 441 CURVE SMOOTH",
"1453 464 OFFCURVE",
"1463 487 OFFCURVE",
"1472 508 CURVE",
"1472 507 LINE",
"1488 551 OFFCURVE",
"1500 590 OFFCURVE",
"1507 625 CURVE SMOOTH",
"1516 666 OFFCURVE",
"1522 706 OFFCURVE",
"1525 738 CURVE SMOOTH",
"1526 749 OFFCURVE",
"1527 761 OFFCURVE",
"1527 772 CURVE SMOOTH",
"1527 783 OFFCURVE",
"1527 793 OFFCURVE",
"1527 803 CURVE SMOOTH",
"1527 871 OFFCURVE",
"1517 939 OFFCURVE",
"1490 1003 CURVE SMOOTH",
"1458 1082 OFFCURVE",
"1392 1137 OFFCURVE",
"1309 1173 CURVE SMOOTH",
"1226 1208 OFFCURVE",
"1126 1224 OFFCURVE",
"1025 1224 CURVE SMOOTH",
"1018 1224 LINE SMOOTH",
"887 1221 OFFCURVE",
"751 1203 OFFCURVE",
"630 1140 CURVE SMOOTH",
"509 1076 OFFCURVE",
"419 979 OFFCURVE",
"364 882 CURVE SMOOTH",
"315 793 OFFCURVE",
"284 705 OFFCURVE",
"268 628 CURVE SMOOTH",
"257 579 OFFCURVE",
"250 531 OFFCURVE",
"247 490 CURVE SMOOTH",
"245 471 OFFCURVE",
"244 453 OFFCURVE",
"244 436 CURVE SMOOTH",
"244 365 OFFCURVE",
"259 293 OFFCURVE",
"299 229 CURVE",
"298 229 LINE",
"333 174 OFFCURVE",
"393 125 OFFCURVE",
"480 93 CURVE SMOOTH",
"565 62 OFFCURVE",
"668 56 OFFCURVE",
"772 55 CURVE SMOOTH",
"853 55 OFFCURVE",
"945 60 OFFCURVE",
"1029 69 CURVE SMOOTH"
);
},
{
closed = 1;
nodes = (
"1078 788 LINE",
"1085 813 OFFCURVE",
"1088 837 OFFCURVE",
"1091 857 CURVE",
"1086 870 OFFCURVE",
"1065 886 OFFCURVE",
"1034 898 CURVE",
"1034 897 LINE",
"998 908 OFFCURVE",
"941 916 OFFCURVE",
"890 920 CURVE",
"892 921 LINE",
"828 908 OFFCURVE",
"772 887 OFFCURVE",
"731 858 CURVE",
"731 859 LINE",
"675 818 OFFCURVE",
"632 774 OFFCURVE",
"613 735 CURVE",
"613 736 LINE",
"594 697 OFFCURVE",
"577 653 OFFCURVE",
"570 625 CURVE",
"567 615 OFFCURVE",
"566 606 OFFCURVE",
"565 597 CURVE SMOOTH",
"564 588 OFFCURVE",
"563 580 OFFCURVE",
"562 574 CURVE",
"561 571 OFFCURVE",
"561 568 OFFCURVE",
"561 566 CURVE SMOOTH",
"561 563 OFFCURVE",
"561 561 OFFCURVE",
"561 559 CURVE SMOOTH",
"561 538 OFFCURVE",
"568 513 OFFCURVE",
"595 489 CURVE",
"606 478 OFFCURVE",
"626 472 OFFCURVE",
"650 467 CURVE SMOOTH",
"674 462 OFFCURVE",
"703 459 OFFCURVE",
"731 456 CURVE",
"730 456 LINE",
"734 456 OFFCURVE",
"738 456 OFFCURVE",
"742 455 CURVE",
"745 454 OFFCURVE",
"749 454 OFFCURVE",
"752 454 CURVE",
"751 454 LINE",
"823 465 OFFCURVE",
"891 498 OFFCURVE",
"945 545 CURVE SMOOTH",
"999 592 OFFCURVE",
"1040 649 OFFCURVE",
"1060 708 CURVE",
"1063 721 OFFCURVE",
"1066 735 OFFCURVE",
"1069 749 CURVE SMOOTH",
"1072 762 OFFCURVE",
"1075 776 OFFCURVE",
"1078 789 CURVE"
);
},
{
closed = 1;
nodes = (
"1091 855 OFFCURVE",
"1091 854 OFFCURVE",
"1092 853 CURVE",
"1092 865 LINE",
"1091 863 OFFCURVE",
"1091 860 OFFCURVE",
"1091 857 CURVE SMOOTH"
);
}
);
width = 1768;
}
);
unicode = 0040;
},
{
glyphname = A;
lastChange = "2012-07-01 20:33:04 +0000";
layers = (
{
anchors = (
{
name = ogonek;
position = "{1311, 10}";
},
{
name = top;
position = "{729, 1399}";
}
);
layerId = "0F287C55-347F-439B-BC0E-FB0B2C3C2256";
name = Bold;
paths = (
{
closed = 1;
nodes = (
"1097 21 LINE",
"1076 101 OFFCURVE",
"1057 187 OFFCURVE",
"1041 268 CURVE",
"949 269 OFFCURVE",
"855 270 OFFCURVE",
"766 270 CURVE SMOOTH",
"663 270 OFFCURVE",
"556 269 OFFCURVE",
"452 266 CURVE",
"354 27 LINE",
"349 26 OFFCURVE",
"345 26 OFFCURVE",
"342 26 CURVE SMOOTH",
"338 26 OFFCURVE",
"334 26 OFFCURVE",
"331 26 CURVE",
"311 25 OFFCURVE",
"289 23 OFFCURVE",
"264 22 CURVE SMOOTH",
"215 19 OFFCURVE",
"162 16 OFFCURVE",
"113 12 CURVE SMOOTH",
"88 10 OFFCURVE",
"66 8 OFFCURVE",
"46 7 CURVE",
"178 219 OFFCURVE",
"287 413 OFFCURVE",
"383 598 CURVE SMOOTH",
"479 783 OFFCURVE",
"563 959 OFFCURVE",
"647 1134 CURVE",
"647 1132 LINE",
"650 1139 OFFCURVE",
"654 1147 OFFCURVE",
"658 1155 CURVE",
"661 1163 OFFCURVE",
"665 1171 OFFCURVE",
"668 1178 CURVE",
"668 1177 LINE",
"675 1191 OFFCURVE",
"682 1207 OFFCURVE",
"691 1225 CURVE SMOOTH",
"700 1242 OFFCURVE",
"708 1260 OFFCURVE",
"717 1278 CURVE SMOOTH",
"726 1296 OFFCURVE",
"734 1314 OFFCURVE",
"743 1331 CURVE",
"751 1348 OFFCURVE",
"758 1363 OFFCURVE",
"765 1377 CURVE",
"829 1374 OFFCURVE",
"883 1374 OFFCURVE",
"948 1374 CURVE",
"971 1302 OFFCURVE",
"994 1221 OFFCURVE",
"1018 1140 CURVE SMOOTH",
"1041 1059 OFFCURVE",
"1064 977 OFFCURVE",
"1084 904 CURVE SMOOTH",
"1100 845 LINE",
"1100 846 LINE",
"1136 714 OFFCURVE",
"1171 584 OFFCURVE",
"1214 446 CURVE SMOOTH",
"1257 308 OFFCURVE",
"1305 164 OFFCURVE",
"1368 7 CURVE",
"1264 18 OFFCURVE",
"1193 21 OFFCURVE",
"1126 21 CURVE SMOOTH"
);
},
{
closed = 1;
nodes = (
"847 1171 LINE",
"844 1172 OFFCURVE",
"842 1173 OFFCURVE",
"841 1173 CURVE SMOOTH",
"839 1173 OFFCURVE",
"837 1174 OFFCURVE",
"835 1175 CURVE",
"820 1132 OFFCURVE",
"802 1095 OFFCURVE",
"786 1060 CURVE SMOOTH",
"773 1033 OFFCURVE",
"760 1008 OFFCURVE",
"749 980 CURVE",
"674 823 LINE SMOOTH",
"662 799 OFFCURVE",
"652 778 OFFCURVE",
"643 759 CURVE SMOOTH",
"625 722 OFFCURVE",
"609 689 OFFCURVE",
"590 652 CURVE SMOOTH",
"581 633 OFFCURVE",
"570 612 OFFCURVE",
"558 588 CURVE",
"631 589 OFFCURVE",
"705 589 OFFCURVE",
"779 589 CURVE SMOOTH",
"853 589 OFFCURVE",
"926 589 OFFCURVE",
"999 589 CURVE"
);
}
);
width = 1457;
}
);
unicode = 0041;
},
{
glyphname = B;
lastChange = "2012-07-01 20:33:04 +0000";
layers = (
{
layerId = "0F287C55-347F-439B-BC0E-FB0B2C3C2256";
name = Bold;
paths = (
{
closed = 1;
nodes = (
"1138 415 LINE SMOOTH",
"1137 383 OFFCURVE",
"1136 351 OFFCURVE",
"1129 324 CURVE SMOOTH",
"1110 240 OFFCURVE",
"1077 161 OFFCURVE",
"1016 117 CURVE",
"957 81 OFFCURVE",
"898 60 OFFCURVE",
"842 49 CURVE SMOOTH",
"785 37 OFFCURVE",
"731 35 OFFCURVE",
"686 35 CURVE SMOOTH",
"557 35 LINE SMOOTH",
"422 35 OFFCURVE",
"275 31 OFFCURVE",
"139 23 CURVE",
"199 440 OFFCURVE",
"242 844 OFFCURVE",
"242 1212 CURVE SMOOTH",
"242 1224 OFFCURVE",
"242 1238 OFFCURVE",
"242 1255 CURVE",
"241 1272 OFFCURVE",
"241 1289 OFFCURVE",
"241 1306 CURVE SMOOTH",
"241 1323 OFFCURVE",
"241 1340 OFFCURVE",
"241 1357 CURVE",
"240 1374 OFFCURVE",
"240 1388 OFFCURVE",
"240 1399 CURVE",
"396 1382 OFFCURVE",
"552 1375 OFFCURVE",
"709 1375 CURVE SMOOTH",
"785 1375 OFFCURVE",
"868 1364 OFFCURVE",
"941 1325 CURVE",
"941 1326 LINE",
"985 1303 OFFCURVE",
"1016 1268 OFFCURVE",
"1036 1224 CURVE SMOOTH",
"1056 1180 OFFCURVE",
"1066 1127 OFFCURVE",
"1066 1072 CURVE SMOOTH",
"1066 1055 OFFCURVE",
"1065 1040 OFFCURVE",
"1064 1025 CURVE",
"1064 1027 LINE",
"1061 1003 OFFCURVE",
"1059 980 OFFCURVE",
"1056 968 CURVE SMOOTH",
"1039 889 OFFCURVE",
"1007 812 OFFCURVE",
"955 757 CURVE",
"1011 734 OFFCURVE",
"1057 693 OFFCURVE",
"1090 641 CURVE SMOOTH",
"1122 588 OFFCURVE",
"1140 523 OFFCURVE",
"1140 452 CURVE SMOOTH",
"1140 447 OFFCURVE",
"1140 441 OFFCURVE",
"1140 436 CURVE SMOOTH",
"1140 431 OFFCURVE",
"1140 426 OFFCURVE",
"1139 421 CURVE",
"1139 424 LINE",
"1138 422 OFFCURVE",
"1138 420 OFFCURVE",
"1138 417 CURVE SMOOTH"
);
},
{
closed = 1;
nodes = (
"924 1043 LINE",
"925 1056 OFFCURVE",
"926 1063 OFFCURVE",
"926 1070 CURVE SMOOTH",
"926 1111 OFFCURVE",
"895 1142 OFFCURVE",
"851 1161 CURVE SMOOTH",
"807 1180 OFFCURVE",
"750 1189 OFFCURVE",
"697 1189 CURVE SMOOTH",
"685 1189 LINE SMOOTH",
"593 1189 OFFCURVE",
"502 1192 OFFCURVE",
"411 1196 CURVE",
"410 1139 OFFCURVE",
"409 1087 OFFCURVE",
"407 1033 CURVE SMOOTH",
"405 979 OFFCURVE",
"401 923 OFFCURVE",
"397 863 CURVE",
"439 862 OFFCURVE",
"482 862 OFFCURVE",
"527 862 CURVE SMOOTH",
"571 862 OFFCURVE",
"614 862 OFFCURVE",
"656 862 CURVE SMOOTH",
"721 862 OFFCURVE",
"788 869 OFFCURVE",
"837 902 CURVE",
"837 900 LINE",
"890 943 OFFCURVE",
"911 980 OFFCURVE",
"918 1012 CURVE",
"921 1022 OFFCURVE",
"922 1028 OFFCURVE",
"922 1030 CURVE",
"923 1033 OFFCURVE",
"923 1036 OFFCURVE",
"923 1039 CURVE SMOOTH",
"923 1042 OFFCURVE",
"923 1045 OFFCURVE",
"924 1047 CURVE"
);
},
{
closed = 1;
nodes = (
"973 496 LINE",
"973 497 OFFCURVE",
"973 498 OFFCURVE",
"974 499 CURVE",
"974 500 OFFCURVE",
"974 501 OFFCURVE",
"974 502 CURVE SMOOTH",
"974 509 LINE SMOOTH",
"974 557 OFFCURVE",
"938 588 OFFCURVE",
"887 605 CURVE SMOOTH",
"836 622 OFFCURVE",
"772 628 OFFCURVE",
"715 628 CURVE SMOOTH",
"699 628 LINE SMOOTH",
"646 628 OFFCURVE",
"594 628 OFFCURVE",
"541 628 CURVE SMOOTH",
"488 628 OFFCURVE",
"434 628 OFFCURVE",
"381 627 CURVE",
"374 538 OFFCURVE",
"368 452 OFFCURVE",
"357 355 CURVE",
"396 356 OFFCURVE",
"435 357 OFFCURVE",
"475 357 CURVE SMOOTH",
"515 357 OFFCURVE",
"554 357 OFFCURVE",
"591 357 CURVE SMOOTH",
"683 357 LINE",
"697 357 LINE",
"711 357 LINE",
"728 358 OFFCURVE",
"745 358 OFFCURVE",
"762 359 CURVE SMOOTH",
"797 360 OFFCURVE",
"829 366 OFFCURVE",
"860 375 CURVE",
"875 380 OFFCURVE",
"890 386 OFFCURVE",
"903 394 CURVE",
"903 393 LINE",
"942 418 OFFCURVE",
"964 445 OFFCURVE",
"969 468 CURVE"
);
}
);
width = 1264;
}
);
unicode = 0042;
},
{
glyphname = C;
lastChange = "2012-07-01 20:33:04 +0000";
layers = (
{
anchors = (
{
name = bottom;
position = "{660, 0}";
},
{
name = top;
position = "{660, 1399}";
}
);
layerId = "0F287C55-347F-439B-BC0E-FB0B2C3C2256";
name = Bold;
paths = (
{
closed = 1;
nodes = (
"758 1176 LINE SMOOTH",
"701 1176 OFFCURVE",
"638 1167 OFFCURVE",
"580 1147 CURVE SMOOTH",
"522 1127 OFFCURVE",
"468 1097 OFFCURVE",
"431 1054 CURVE SMOOTH",
"364 979 OFFCURVE",
"326 894 OFFCURVE",
"311 822 CURVE",
"311 823 LINE",
"306 804 OFFCURVE",
"303 785 OFFCURVE",
"302 767 CURVE SMOOTH",
"301 749 OFFCURVE",
"299 732 OFFCURVE",
"298 716 CURVE",
"298 715 OFFCURVE",
"298 713 OFFCURVE",
"298 712 CURVE",
"297 711 OFFCURVE",
"297 709 OFFCURVE",
"297 707 CURVE",
"301 660 OFFCURVE",
"307 611 OFFCURVE",
"323 565 CURVE SMOOTH",
"339 519 OFFCURVE",
"365 477 OFFCURVE",
"408 445 CURVE SMOOTH",
"444 418 OFFCURVE",
"490 402 OFFCURVE",
"542 390 CURVE SMOOTH",
"594 378 OFFCURVE",
"651 372 OFFCURVE",
"706 368 CURVE",
"707 368 OFFCURVE",
"709 368 OFFCURVE",
"711 368 CURVE",
"713 367 OFFCURVE",
"715 367 OFFCURVE",
"716 367 CURVE SMOOTH",
"728 367 LINE SMOOTH",
"795 367 OFFCURVE",
"865 385 OFFCURVE",
"929 418 CURVE SMOOTH",
"993 451 OFFCURVE",
"1053 498 OFFCURVE",
"1100 557 CURVE",
"1099 536 OFFCURVE",
"1098 514 OFFCURVE",
"1097 489 CURVE SMOOTH",
"1096 464 OFFCURVE",
"1095 439 OFFCURVE",
"1094 414 CURVE SMOOTH",
"1092 364 OFFCURVE",
"1091 314 OFFCURVE",
"1091 277 CURVE SMOOTH",
"1091 250 OFFCURVE",
"1092 226 OFFCURVE",
"1093 198 CURVE",
"1093 122 LINE",
"1037 79 OFFCURVE",
"980 40 OFFCURVE",
"933 29 CURVE SMOOTH",
"874 16 OFFCURVE",
"825 13 OFFCURVE",
"774 13 CURVE SMOOTH",
"745 13 LINE SMOOTH",
"740 13 OFFCURVE",
"736 13 OFFCURVE",
"732 14 CURVE",
"727 14 OFFCURVE",
"722 14 OFFCURVE",
"717 14 CURVE SMOOTH",
"691 14 LINE SMOOTH",
"610 15 OFFCURVE",
"528 28 OFFCURVE",
"453 56 CURVE SMOOTH",
"377 83 OFFCURVE",
"309 124 OFFCURVE",
"254 183 CURVE",
"207 243 OFFCURVE",
"173 315 OFFCURVE",
"152 392 CURVE SMOOTH",
"131 469 OFFCURVE",
"121 552 OFFCURVE",
"121 632 CURVE SMOOTH",
"121 659 OFFCURVE",
"122 687 OFFCURVE",
"125 714 CURVE",
"129 770 OFFCURVE",
"137 831 OFFCURVE",
"148 879 CURVE SMOOTH",
"161 940 OFFCURVE",
"180 1004 OFFCURVE",
"207 1062 CURVE SMOOTH",
"234 1120 OFFCURVE",
"267 1173 OFFCURVE",
"310 1216 CURVE SMOOTH",
"377 1283 OFFCURVE",
"456 1327 OFFCURVE",
"537 1355 CURVE SMOOTH",
"617 1382 OFFCURVE",
"700 1392 OFFCURVE",
"772 1392 CURVE SMOOTH",
"801 1392 LINE",
"830 1392 LINE SMOOTH",
"890 1392 OFFCURVE",
"949 1389 OFFCURVE",
"1013 1372 CURVE",
"1013 1373 LINE",
"1065 1361 OFFCURVE",
"1126 1330 OFFCURVE",
"1189 1282 CURVE",
"1161 1067 LINE",
"1094 1099 OFFCURVE",
"1025 1130 OFFCURVE",
"940 1154 CURVE SMOOTH",
"889 1169 OFFCURVE",
"831 1175 OFFCURVE",
"766 1176 CURVE SMOOTH"
);
}
);
width = 1319;
}
);
unicode = 0043;
},
{
glyphname = D;
lastChange = "2012-07-01 20:33:04 +0000";
layers = (
{
anchors = (
{
name = center;
position = "{706, 700}";
},
{
name = top;
position = "{706, 1399}";
}
);
layerId = "0F287C55-347F-439B-BC0E-FB0B2C3C2256";
name = Bold;
paths = (
{
closed = 1;
nodes = (
"1281 607 OFFCURVE",
"1261 499 OFFCURVE",
"1210 380 CURVE SMOOTH",
"1184 320 OFFCURVE",
"1151 267 OFFCURVE",
"1112 221 CURVE",
"1045 152 OFFCURVE",
"970 105 OFFCURVE",
"894 76 CURVE SMOOTH",
"817 47 OFFCURVE",
"738 35 OFFCURVE",
"669 35 CURVE SMOOTH",
"599 35 LINE SMOOTH",
"452 35 OFFCURVE",
"291 31 OFFCURVE",
"142 22 CURVE",
"206 426 OFFCURVE",
"249 811 OFFCURVE",
"249 1170 CURVE SMOOTH",
"249 1201 OFFCURVE",
"248 1242 OFFCURVE",
"247 1285 CURVE SMOOTH",
"246 1328 OFFCURVE",
"244 1369 OFFCURVE",
"243 1400 CURVE",
"387 1385 OFFCURVE",
"526 1379 OFFCURVE",
"670 1376 CURVE SMOOTH",
"759 1373 OFFCURVE",
"851 1363 OFFCURVE",
"937 1338 CURVE SMOOTH",
"1023 1313 OFFCURVE",
"1101 1271 OFFCURVE",
"1168 1207 CURVE SMOOTH",
"1215 1160 OFFCURVE",
"1246 1101 OFFCURVE",
"1266 1034 CURVE SMOOTH",
"1285 966 OFFCURVE",
"1293 890 OFFCURVE",
"1293 813 CURVE SMOOTH",
"1293 778 OFFCURVE",
"1291 746 OFFCURVE",
"1288 714 CURVE SMOOTH"
);
},
{
closed = 1;
nodes = (
"1129 807 LINE",
"1131 825 OFFCURVE",
"1132 841 OFFCURVE",
"1132 855 CURVE SMOOTH",
"1132 931 OFFCURVE",
"1105 1007 OFFCURVE",
"1037 1063 CURVE SMOOTH",
"990 1102 OFFCURVE",
"932 1125 OFFCURVE",
"868 1140 CURVE SMOOTH",
"803 1155 OFFCURVE",
"732 1160 OFFCURVE",
"663 1161 CURVE SMOOTH",
"622 1162 OFFCURVE",
"580 1164 OFFCURVE",
"539 1165 CURVE SMOOTH",
"497 1166 OFFCURVE",
"456 1167 OFFCURVE",
"415 1168 CURVE",
"411 912 OFFCURVE",
"391 665 OFFCURVE",
"368 417 CURVE",
"456 420 OFFCURVE",
"554 420 OFFCURVE",
"642 420 CURVE SMOOTH",
"647 420 LINE SMOOTH",
"703 420 OFFCURVE",
"760 426 OFFCURVE",
"816 440 CURVE SMOOTH",
"871 454 OFFCURVE",
"923 476 OFFCURVE",
"967 511 CURVE",
"966 509 LINE",
"1057 588 OFFCURVE",
"1103 671 OFFCURVE",
"1118 744 CURVE SMOOTH",
"1123 769 OFFCURVE",
"1128 791 OFFCURVE",
"1129 806 CURVE"
);
}
);
width = 1412;
}
);
unicode = 0044;
},
{
glyphname = E;
lastChange = "2012-07-01 20:33:04 +0000";
layers = (
{
anchors = (
{
name = bottom;
position = "{616, 0}";
},
{
name = ogonek;
position = "{1108, 10}";
},
{
name = top;
position = "{616, 1399}";
}
);
layerId = "0F287C55-347F-439B-BC0E-FB0B2C3C2256";
name = Bold;
paths = (
{
closed = 1;
nodes = (
"132 78 LINE",
"196 462 OFFCURVE",
"236 847 OFFCURVE",
"236 1226 CURVE SMOOTH",
"236 1237 OFFCURVE",
"236 1250 OFFCURVE",
"236 1265 CURVE",
"235 1280 OFFCURVE",
"235 1296 OFFCURVE",
"235 1313 CURVE",
"234 1330 OFFCURVE",
"234 1346 OFFCURVE",
"234 1361 CURVE",
"233 1376 OFFCURVE",
"233 1389 OFFCURVE",
"233 1399 CURVE",
"400 1380 OFFCURVE",
"571 1374 OFFCURVE",
"738 1374 CURVE SMOOTH",
"849 1374 OFFCURVE",
"979 1377 OFFCURVE",
"1091 1382 CURVE",
"1091 1379 OFFCURVE",
"1090 1373 OFFCURVE",
"1089 1364 CURVE SMOOTH",
"1088 1355 OFFCURVE",
"1086 1346 OFFCURVE",
"1085 1337 CURVE SMOOTH",
"1084 1327 OFFCURVE",
"1082 1318 OFFCURVE",
"1081 1310 CURVE",
"1078 1293 OFFCURVE",
"1078 1289 OFFCURVE",
"1078 1280 CURVE",
"1077 1275 OFFCURVE",
"1077 1271 OFFCURVE",
"1077 1266 CURVE",
"1063 1165 LINE",
"950 1160 OFFCURVE",
"847 1158 OFFCURVE",
"736 1158 CURVE SMOOTH",
"624 1158 OFFCURVE",
"513 1161 OFFCURVE",
"404 1166 CURVE",
"401 1050 OFFCURVE",
"396 949 OFFCURVE",
"388 828 CURVE",
"549 828 LINE SMOOTH",
"616 828 OFFCURVE",
"684 828 OFFCURVE",
"754 828 CURVE SMOOTH",
"823 828 OFFCURVE",
"891 828 OFFCURVE",
"958 829 CURVE",
"938 616 LINE",
"802 616 LINE SMOOTH",
"731 616 OFFCURVE",
"659 616 OFFCURVE",
"587 616 CURVE SMOOTH",
"514 616 OFFCURVE",
"442 616 OFFCURVE",
"371 615 CURVE",
"370 599 OFFCURVE",
"369 584 OFFCURVE",
"368 570 CURVE SMOOTH",
"356 445 LINE",
"431 446 OFFCURVE",
"511 447 OFFCURVE",
"586 447 CURVE SMOOTH",
"731 447 OFFCURVE",
"890 445 OFFCURVE",
"1035 438 CURVE",
"1034 410 OFFCURVE",
"1032 370 OFFCURVE",
"1031 331 CURVE SMOOTH",
"1030 291 OFFCURVE",
"1029 252 OFFCURVE",
"1029 224 CURVE SMOOTH",
"1029 196 OFFCURVE",
"1030 156 OFFCURVE",
"1031 117 CURVE SMOOTH",
"1032 77 OFFCURVE",
"1034 38 OFFCURVE",
"1035 11 CURVE",
"868 28 OFFCURVE",
"697 35 OFFCURVE",
"530 35 CURVE SMOOTH",
"401 35 OFFCURVE",
"273 31 OFFCURVE",
"142 24 CURVE"
);
}
);
width = 1231;
}
);
unicode = 0045;
},
{
glyphname = F;
lastChange = "2012-07-01 20:33:04 +0000";
layers = (
{
layerId = "0F287C55-347F-439B-BC0E-FB0B2C3C2256";
name = Bold;
paths = (
{
closed = 1;
nodes = (
"482 1160 LINE",
"479 1131 OFFCURVE",
"476 1103 OFFCURVE",
"473 1076 CURVE SMOOTH",
"467 1023 OFFCURVE",
"460 970 OFFCURVE",
"453 915 CURVE SMOOTH",
"449 887 OFFCURVE",
"445 857 OFFCURVE",
"440 826 CURVE",
"526 826 LINE SMOOTH",
"587 826 OFFCURVE",
"651 826 OFFCURVE",
"716 826 CURVE SMOOTH",
"781 826 OFFCURVE",
"844 827 OFFCURVE",
"906 828 CURVE",
"906 823 OFFCURVE",
"906 815 OFFCURVE",
"905 804 CURVE SMOOTH",
"904 793 OFFCURVE",
"904 782 OFFCURVE",
"903 771 CURVE",
"902 747 OFFCURVE",
"900 724 OFFCURVE",
"899 715 CURVE SMOOTH",
"896 688 LINE SMOOTH",
"895 680 OFFCURVE",
"895 672 OFFCURVE",
"894 663 CURVE SMOOTH",
"892 645 OFFCURVE",
"890 623 OFFCURVE",
"889 595 CURVE",
"888 581 OFFCURVE",
"888 564 OFFCURVE",
"887 545 CURVE",
"844 546 OFFCURVE",
"801 547 OFFCURVE",
"760 547 CURVE SMOOTH",
"718 547 OFFCURVE",
"675 547 OFFCURVE",
"631 547 CURVE SMOOTH",
"595 547 OFFCURVE",
"560 547 OFFCURVE",
"525 547 CURVE SMOOTH",
"490 547 OFFCURVE",
"454 547 OFFCURVE",
"419 546 CURVE",
"421 505 OFFCURVE",
"423 463 OFFCURVE",
"425 419 CURVE SMOOTH",
"428 330 OFFCURVE",
"432 241 OFFCURVE",
"436 154 CURVE SMOOTH",
"438 111 OFFCURVE",
"440 70 OFFCURVE",
"442 31 CURVE",
"397 54 OFFCURVE",
"342 54 OFFCURVE",
"307 54 CURVE SMOOTH",
"289 54 LINE SMOOTH",
"249 54 OFFCURVE",
"230 49 OFFCURVE",
"213 42 CURVE",
"193 35 OFFCURVE",
"170 25 OFFCURVE",
"127 22 CURVE",
"206 491 OFFCURVE",
"264 947 OFFCURVE",
"280 1399 CURVE",
"419 1380 OFFCURVE",
"553 1373 OFFCURVE",
"693 1373 CURVE SMOOTH",
"834 1373 OFFCURVE",
"980 1382 OFFCURVE",
"1135 1398 CURVE",
"1134 1393 OFFCURVE",
"1133 1386 OFFCURVE",
"1132 1376 CURVE",
"1128 1356 OFFCURVE",
"1125 1333 OFFCURVE",
"1122 1314 CURVE SMOOTH",
"1119 1295 OFFCURVE",
"1118 1287 OFFCURVE",
"1118 1276 CURVE",
"1117 1270 OFFCURVE",
"1116 1264 OFFCURVE",
"1115 1257 CURVE SMOOTH",
"1103 1177 LINE",
"960 1162 OFFCURVE",
"825 1157 OFFCURVE",
"685 1157 CURVE SMOOTH",
"617 1157 OFFCURVE",
"553 1158 OFFCURVE",
"488 1161 CURVE",
"494 1173 LINE"
);
}
);
width = 1164;
}
);
unicode = 0046;
},
{
glyphname = G;
lastChange = "2012-07-01 20:33:04 +0000";
layers = (
{
anchors = (
{
name = bottom;
position = "{704, 0}";
},
{
name = top;
position = "{704, 1399}";
}
);
layerId = "0F287C55-347F-439B-BC0E-FB0B2C3C2256";
name = Bold;
paths = (
{
closed = 1;
nodes = (
"136 774 OFFCURVE",
"144 838 OFFCURVE",
"155 889 CURVE SMOOTH",
"168 949 OFFCURVE",
"188 1012 OFFCURVE",
"214 1070 CURVE SMOOTH",
"240 1128 OFFCURVE",
"274 1180 OFFCURVE",
"315 1221 CURVE",
"315 1220 LINE",
"383 1288 OFFCURVE",
"463 1332 OFFCURVE",
"544 1358 CURVE SMOOTH",
"625 1384 OFFCURVE",
"707 1392 OFFCURVE",
"782 1392 CURVE SMOOTH",
"789 1392 LINE SMOOTH",
"894 1389 OFFCURVE",
"1006 1385 OFFCURVE",
"1106 1338 CURVE SMOOTH",
"1163 1309 OFFCURVE",
"1225 1239 OFFCURVE",
"1276 1143 CURVE",
"1265 1132 OFFCURVE",
"1249 1116 OFFCURVE",
"1233 1100 CURVE SMOOTH",
"1225 1092 OFFCURVE",
"1217 1084 OFFCURVE",
"1210 1076 CURVE",
"1202 1068 OFFCURVE",
"1195 1061 OFFCURVE",
"1189 1056 CURVE SMOOTH",
"1178 1047 OFFCURVE",
"1162 1032 OFFCURVE",
"1153 1023 CURVE",
"1128 1087 OFFCURVE",
"1079 1133 OFFCURVE",
"1017 1165 CURVE SMOOTH",
"955 1196 OFFCURVE",
"880 1210 OFFCURVE",
"804 1210 CURVE SMOOTH",
"769 1210 LINE SMOOTH",
"710 1210 OFFCURVE",
"647 1199 OFFCURVE",
"590 1176 CURVE SMOOTH",
"533 1152 OFFCURVE",
"480 1117 OFFCURVE",
"447 1070 CURVE",
"396 991 OFFCURVE",
"361 904 OFFCURVE",
"345 832 CURVE SMOOTH",
"334 783 OFFCURVE",
"328 742 OFFCURVE",
"325 705 CURVE",
"328 617 OFFCURVE",
"355 533 OFFCURVE",
"415 458 CURVE",
"415 459 LINE",
"443 424 OFFCURVE",
"488 399 OFFCURVE",
"541 381 CURVE SMOOTH",
"593 363 OFFCURVE",
"653 351 OFFCURVE",
"712 343 CURVE",
"740 343 LINE SMOOTH",
"843 343 OFFCURVE",
"949 384 OFFCURVE",
"1022 456 CURVE",
"1022 461 OFFCURVE",
"1022 465 OFFCURVE",
"1023 468 CURVE SMOOTH",
"1024 471 OFFCURVE",
"1024 475 OFFCURVE",
"1024 479 CURVE SMOOTH",
"1024 482 LINE",
"1024 485 LINE",
"982 486 OFFCURVE",
"938 486 OFFCURVE",
"892 486 CURVE SMOOTH",
"846 486 OFFCURVE",
"802 486 OFFCURVE",
"761 486 CURVE",
"770 620 LINE SMOOTH",
"771 635 OFFCURVE",
"774 660 OFFCURVE",
"776 685 CURVE SMOOTH",
"778 710 OFFCURVE",
"780 735 OFFCURVE",
"781 750 CURVE",
"1010 750 LINE SMOOTH",
"1048 750 OFFCURVE",
"1088 750 OFFCURVE",
"1130 750 CURVE SMOOTH",
"1171 750 OFFCURVE",
"1211 750 OFFCURVE",
"1249 751 CURVE",
"1244 679 OFFCURVE",
"1238 596 OFFCURVE",
"1234 513 CURVE SMOOTH",
"1230 430 OFFCURVE",
"1227 348 OFFCURVE",
"1227 277 CURVE SMOOTH",
"1227 235 LINE",
"1207 188 OFFCURVE",
"1177 151 OFFCURVE",
"1144 123 CURVE SMOOTH",
"1111 95 OFFCURVE",
"1073 75 OFFCURVE",
"1038 63 CURVE SMOOTH",
"934 28 OFFCURVE",
"832 15 OFFCURVE",
"737 15 CURVE SMOOTH",
"714 15 LINE SMOOTH",
"630 15 OFFCURVE",
"546 27 OFFCURVE",
"467 55 CURVE SMOOTH",
"388 83 OFFCURVE",
"317 128 OFFCURVE",
"257 192 CURVE SMOOTH",
"208 245 OFFCURVE",
"175 311 OFFCURVE",
"155 383 CURVE SMOOTH",
"134 454 OFFCURVE",
"126 532 OFFCURVE",
"126 612 CURVE SMOOTH",
"126 648 OFFCURVE",
"128 681 OFFCURVE",
"131 714 CURVE SMOOTH"
);
}
);
width = 1407;
}
);
unicode = 0047;
},
{
glyphname = H;
lastChange = "2012-07-01 20:33:04 +0000";
layers = (
{
anchors = (
{
name = center;
position = "{715, 700}";
},
{
name = top;
position = "{715, 1399}";
}
);
layerId = "0F287C55-347F-439B-BC0E-FB0B2C3C2256";
name = Bold;
paths = (
{
closed = 1;
nodes = (
"1022 25 OFFCURVE",
"1014 25 OFFCURVE",
"1007 26 CURVE",
"999 26 OFFCURVE",
"991 26 OFFCURVE",
"982 27 CURVE",
"987 83 LINE",
"980 67 LINE",
"981 148 OFFCURVE",
"984 218 OFFCURVE",
"988 288 CURVE SMOOTH",
"992 358 OFFCURVE",
"998 428 OFFCURVE",
"1006 511 CURVE",
"959 512 OFFCURVE",
"912 512 OFFCURVE",
"865 512 CURVE SMOOTH",
"818 512 OFFCURVE",
"771 512 OFFCURVE",
"724 512 CURVE SMOOTH",
"676 512 OFFCURVE",
"627 512 OFFCURVE",
"578 512 CURVE SMOOTH",
"529 512 OFFCURVE",
"480 512 OFFCURVE",
"432 511 CURVE",
"431 494 OFFCURVE",
"429 477 OFFCURVE",
"428 460 CURVE SMOOTH",
"427 443 OFFCURVE",
"426 425 OFFCURVE",
"425 407 CURVE SMOOTH",
"423 379 OFFCURVE",
"421 349 OFFCURVE",
"419 317 CURVE SMOOTH",
"416 284 OFFCURVE",
"414 252 OFFCURVE",
"412 219 CURVE SMOOTH",
"408 153 OFFCURVE",
"403 85 OFFCURVE",
"399 32 CURVE",
"315 29 OFFCURVE",
"209 24 OFFCURVE",
"125 19 CURVE",
"217 476 OFFCURVE",
"273 912 OFFCURVE",
"273 1320 CURVE SMOOTH",
"273 1400 LINE",
"305 1396 LINE",
"362 1391 OFFCURVE",
"434 1386 OFFCURVE",
"490 1383 CURVE",
"485 1187 OFFCURVE",
"474 992 OFFCURVE",
"454 793 CURVE",
"547 793 OFFCURVE",
"643 793 OFFCURVE",
"741 793 CURVE SMOOTH",
"838 793 OFFCURVE",
"934 793 OFFCURVE",
"1027 794 CURVE",
"1031 886 OFFCURVE",
"1037 987 OFFCURVE",
"1044 1087 CURVE SMOOTH",
"1051 1187 OFFCURVE",
"1057 1287 OFFCURVE",
"1064 1376 CURVE",
"1133 1377 OFFCURVE",
"1209 1379 OFFCURVE",
"1280 1383 CURVE",
"1247 1058 OFFCURVE",
"1220 745 OFFCURVE",
"1220 460 CURVE SMOOTH",
"1220 325 OFFCURVE",
"1227 177 OFFCURVE",
"1242 9 CURVE",
"1171 16 OFFCURVE",
"1097 21 OFFCURVE",
"1029 24 CURVE"
);
}
);
width = 1430;
}
);
unicode = 0048;
},
{
glyphname = I;
lastChange = "2012-07-01 20:33:04 +0000";
layers = (
{
anchors = (
{
name = ogonek;
position = "{463, 10}";
},
{
name = top;
position = "{258, 1399}";
}
);
layerId = "0F287C55-347F-439B-BC0E-FB0B2C3C2256";
name = Bold;
paths = (
{
closed = 1;
nodes = (
"98 304 LINE",
"98 302 LINE",
"119 477 OFFCURVE",
"141 663 OFFCURVE",
"161 850 CURVE SMOOTH",
"181 1037 OFFCURVE",
"200 1223 OFFCURVE",
"213 1396 CURVE",
"264 1377 OFFCURVE",
"334 1375 OFFCURVE",
"402 1374 CURVE",
"398 1299 OFFCURVE",
"393 1206 OFFCURVE",
"389 1114 CURVE SMOOTH",
"384 1021 OFFCURVE",
"377 927 OFFCURVE",
"372 854 CURVE SMOOTH",
"364 723 OFFCURVE",
"355 578 OFFCURVE",
"348 433 CURVE SMOOTH",
"340 288 OFFCURVE",
"334 141 OFFCURVE",
"330 12 CURVE",
"273 27 OFFCURVE",
"207 35 OFFCURVE",
"143 35 CURVE SMOOTH",
"119 35 OFFCURVE",
"78 33 OFFCURVE",
"55 30 CURVE"
);
}
);
width = 515;
}
);
unicode = 0049;
},
{
glyphname = J;
lastChange = "2012-07-01 20:33:04 +0000";
layers = (
{
anchors = (
{
name = top;
position = "{480, 1399}";
}
);
layerId = "0F287C55-347F-439B-BC0E-FB0B2C3C2256";
name = Bold;
paths = (
{
closed = 1;
nodes = (
"264 -442 LINE SMOOTH",
"262 -442 OFFCURVE",
"260 -442 OFFCURVE",
"259 -442 CURVE",
"257 -443 OFFCURVE",
"255 -443 OFFCURVE",
"253 -443 CURVE SMOOTH",
"187 -443 LINE SMOOTH",
"186 -443 OFFCURVE",
"185 -443 OFFCURVE",
"185 -443 CURVE",
"184 -444 OFFCURVE",
"183 -444 OFFCURVE",
"182 -444 CURVE",
"186 -440 LINE",
"183 -441 OFFCURVE",
"180 -442 OFFCURVE",
"179 -442 CURVE",
"178 -443 OFFCURVE",
"176 -443 OFFCURVE",
"175 -444 CURVE",
"173 -445 LINE",
"170 -445 OFFCURVE",
"166 -445 OFFCURVE",
"161 -445 CURVE SMOOTH",
"156 -445 OFFCURVE",
"152 -445 OFFCURVE",
"149 -444 CURVE",
"147 -444 OFFCURVE",
"145 -444 OFFCURVE",
"143 -443 CURVE",
"140 -443 OFFCURVE",
"138 -443 OFFCURVE",
"137 -443 CURVE SMOOTH",
"117 -443 OFFCURVE",
"102 -442 OFFCURVE",
"86 -440 CURVE SMOOTH",
"69 -438 OFFCURVE",
"50 -434 OFFCURVE",
"25 -423 CURVE",
"45 -225 LINE SMOOTH",
"46 -210 OFFCURVE",
"48 -192 OFFCURVE",
"50 -172 CURVE SMOOTH",
"52 -153 OFFCURVE",
"54 -133 OFFCURVE",
"56 -112 CURVE SMOOTH",
"58 -91 OFFCURVE",
"60 -71 OFFCURVE",
"62 -51 CURVE SMOOTH",
"64 -32 OFFCURVE",
"66 -14 OFFCURVE",
"67 1 CURVE",
"90 -18 OFFCURVE",
"118 -39 OFFCURVE",
"157 -50 CURVE",
"172 -57 OFFCURVE",
"194 -57 OFFCURVE",
"218 -57 CURVE SMOOTH",
"223 -57 OFFCURVE",
"228 -57 OFFCURVE",
"233 -57 CURVE SMOOTH",
"238 -57 OFFCURVE",
"242 -57 OFFCURVE",
"246 -56 CURVE",
"297 -55 OFFCURVE",
"346 -38 OFFCURVE",
"379 -15 CURVE",
"377 -26 LINE",
"430 46 OFFCURVE",
"453 114 OFFCURVE",
"468 179 CURVE SMOOTH",
"473 202 OFFCURVE",
"478 227 OFFCURVE",
"481 254 CURVE",
"482 259 OFFCURVE",
"483 265 OFFCURVE",
"484 270 CURVE",
"484 275 OFFCURVE",
"485 280 OFFCURVE",
"486 287 CURVE",
"486 281 LINE",
"486 282 OFFCURVE",
"486 284 OFFCURVE",
"487 286 CURVE",
"487 287 OFFCURVE",
"487 288 OFFCURVE",
"487 289 CURVE",
"490 308 OFFCURVE",
"494 326 OFFCURVE",
"497 345 CURVE SMOOTH",
"500 364 OFFCURVE",
"503 382 OFFCURVE",
"507 399 CURVE",
"507 397 LINE",
"518 474 OFFCURVE",
"529 554 OFFCURVE",
"541 636 CURVE SMOOTH",
"553 717 OFFCURVE",
"565 799 OFFCURVE",
"577 882 CURVE SMOOTH",
"601 1046 OFFCURVE",
"625 1212 OFFCURVE",
"648 1367 CURVE",
"685 1364 OFFCURVE",
"716 1364 OFFCURVE",
"757 1364 CURVE SMOOTH",
"794 1364 OFFCURVE",
"849 1366 OFFCURVE",
"886 1369 CURVE",
"842 1141 OFFCURVE",
"797 896 OFFCURVE",
"757 652 CURVE SMOOTH",
"716 407 OFFCURVE",
"679 163 OFFCURVE",
"647 -65 CURVE",
"640 -96 LINE SMOOTH",
"629 -144 OFFCURVE",
"617 -196 OFFCURVE",
"597 -241 CURVE SMOOTH",
"577 -286 OFFCURVE",
"550 -326 OFFCURVE",
"514 -353 CURVE SMOOTH",
"430 -413 OFFCURVE",
"341 -435 OFFCURVE",
"265 -442 CURVE"
);
}
);
width = 960;
}
);
unicode = 004A;
},
{
glyphname = K;
lastChange = "2012-07-01 20:33:04 +0000";
layers = (
{
anchors = (
{
name = bottom;
position = "{726, 0}";
},
{
name = top;
position = "{726, 1399}";
}
);
layerId = "0F287C55-347F-439B-BC0E-FB0B2C3C2256";
name = Bold;
paths = (
{
closed = 1;
nodes = (
"1232 10 OFFCURVE",
"1138 17 OFFCURVE",
"1044 22 CURVE SMOOTH",
"950 27 OFFCURVE",
"855 31 OFFCURVE",
"779 34 CURVE",
"780 63 LINE",
"778 50 LINE",
"663 215 OFFCURVE",
"552 388 OFFCURVE",
"456 540 CURVE",
"445 537 OFFCURVE",
"435 533 OFFCURVE",
"426 529 CURVE SMOOTH",
"417 525 OFFCURVE",
"407 521 OFFCURVE",
"397 518 CURVE",
"395 480 OFFCURVE",
"393 440 OFFCURVE",
"390 399 CURVE SMOOTH",
"387 357 OFFCURVE",
"384 315 OFFCURVE",
"381 273 CURVE SMOOTH",
"378 230 OFFCURVE",
"375 189 OFFCURVE",
"372 148 CURVE SMOOTH",
"369 107 OFFCURVE",
"366 68 OFFCURVE",
"363 31 CURVE",
"358 31 OFFCURVE",
"353 31 OFFCURVE",
"347 31 CURVE",
"340 30 OFFCURVE",
"335 30 OFFCURVE",
"331 30 CURVE",
"267 27 OFFCURVE",
"191 23 OFFCURVE",
"126 19 CURVE",
"215 480 OFFCURVE",
"274 919 OFFCURVE",
"274 1331 CURVE SMOOTH",
"274 1400 LINE",
"279 1399 OFFCURVE",
"284 1399 OFFCURVE",
"291 1398 CURVE SMOOTH",
"298 1397 OFFCURVE",
"303 1397 OFFCURVE",
"306 1396 CURVE",
"308 1395 OFFCURVE",
"315 1395 OFFCURVE",
"326 1395 CURVE",
"343 1394 OFFCURVE",
"361 1392 OFFCURVE",
"380 1390 CURVE SMOOTH",
"399 1388 OFFCURVE",
"417 1386 OFFCURVE",
"434 1385 CURVE",
"427 1154 OFFCURVE",
"410 950 OFFCURVE",
"389 753 CURVE",
"493 854 OFFCURVE",
"603 962 OFFCURVE",
"715 1068 CURVE SMOOTH",
"827 1174 OFFCURVE",
"938 1279 OFFCURVE",
"1045 1375 CURVE",
"1081 1376 OFFCURVE",
"1138 1378 OFFCURVE",
"1195 1381 CURVE SMOOTH",
"1224 1382 OFFCURVE",
"1251 1384 OFFCURVE",
"1278 1385 CURVE SMOOTH",
"1304 1386 OFFCURVE",
"1326 1387 OFFCURVE",
"1344 1388 CURVE",
"1241 1293 OFFCURVE",
"1119 1177 OFFCURVE",
"998 1061 CURVE SMOOTH",
"877 944 OFFCURVE",
"757 827 OFFCURVE",
"658 730 CURVE",
"658 731 LINE",
"651 724 OFFCURVE",
"645 718 OFFCURVE",
"642 715 CURVE",
"639 711 OFFCURVE",
"636 708 OFFCURVE",
"633 705 CURVE SMOOTH",
"630 702 OFFCURVE",
"626 698 OFFCURVE",
"623 694 CURVE",
"619 690 OFFCURVE",
"613 685 OFFCURVE",
"606 678 CURVE",
"766 521 OFFCURVE",
"931 363 OFFCURVE",
"1094 207 CURVE SMOOTH",
"1106 196 OFFCURVE",
"1122 180 OFFCURVE",
"1142 161 CURVE SMOOTH",
"1162 142 OFFCURVE",
"1183 122 OFFCURVE",
"1204 102 CURVE SMOOTH",
"1225 81 OFFCURVE",
"1246 62 OFFCURVE",
"1265 44 CURVE SMOOTH",
"1284 25 OFFCURVE",
"1298 12 OFFCURVE",
"1308 3 CURVE"
);
}
);
width = 1451;
}
);
unicode = 004B;
},
{
glyphname = L;
lastChange = "2012-07-01 20:33:04 +0000";
layers = (
{
anchors = (
{
name = bottom;
position = "{503, 0}";
},
{
name = top;
position = "{503, 1399}";
}
);
layerId = "0F287C55-347F-439B-BC0E-FB0B2C3C2256";
name = Bold;
paths = (
{
closed = 1;
nodes = (
"366 35 OFFCURVE",
"225 31 OFFCURVE",
"101 22 CURVE",
"116 76 LINE SMOOTH",
"171 275 OFFCURVE",
"204 492 OFFCURVE",
"224 716 CURVE SMOOTH",
"244 940 OFFCURVE",
"252 1171 OFFCURVE",
"256 1399 CURVE",
"317 1391 OFFCURVE",
"379 1385 OFFCURVE",
"444 1381 CURVE",
"429 1040 OFFCURVE",
"396 702 OFFCURVE",
"353 357 CURVE",
"383 358 OFFCURVE",
"413 358 OFFCURVE",
"444 358 CURVE SMOOTH",
"475 358 OFFCURVE",
"505 358 OFFCURVE",
"534 358 CURVE SMOOTH",
"677 358 OFFCURVE",
"827 355 OFFCURVE",
"968 344 CURVE",
"968 335 OFFCURVE",
"968 325 OFFCURVE",
"968 312 CURVE",
"967 299 OFFCURVE",
"967 285 OFFCURVE",
"967 271 CURVE",
"966 256 OFFCURVE",
"966 243 OFFCURVE",
"966 230 CURVE",
"965 217 OFFCURVE",
"965 206 OFFCURVE",
"965 197 CURVE SMOOTH",
"965 186 OFFCURVE",
"965 172 OFFCURVE",
"966 155 CURVE",
"966 138 OFFCURVE",
"966 121 OFFCURVE",
"967 104 CURVE",
"967 87 OFFCURVE",
"967 70 OFFCURVE",
"968 53 CURVE SMOOTH",
"969 36 OFFCURVE",
"969 22 OFFCURVE",
"969 10 CURVE",
"810 29 OFFCURVE",
"650 35 OFFCURVE",
"489 35 CURVE SMOOTH"
);
}
);
width = 1005;
}
);
unicode = 004C;
},
{
glyphname = M;
lastChange = "2012-07-01 20:33:04 +0000";
layers = (
{
layerId = "0F287C55-347F-439B-BC0E-FB0B2C3C2256";
name = Bold;
paths = (
{
closed = 1;
nodes = (
"1503 17 OFFCURVE",
"1403 21 OFFCURVE",
"1304 25 CURVE",
"1307 77 LINE",
"1303 64 LINE",
"1304 411 OFFCURVE",
"1350 753 OFFCURVE",
"1409 1100 CURVE",
"1408 1100 LINE",
"1335 951 OFFCURVE",
"1261 786 OFFCURVE",
"1189 618 CURVE SMOOTH",
"1117 450 OFFCURVE",
"1046 277 OFFCURVE",
"981 113 CURVE",
"946 114 OFFCURVE",
"912 114 OFFCURVE",
"880 114 CURVE SMOOTH",
"848 114 OFFCURVE",
"814 114 OFFCURVE",
"779 114 CURVE",
"760 175 OFFCURVE",
"741 245 OFFCURVE",
"722 314 CURVE SMOOTH",
"712 349 OFFCURVE",
"702 383 OFFCURVE",
"693 417 CURVE SMOOTH",
"684 451 OFFCURVE",
"675 484 OFFCURVE",
"666 515 CURVE",
"659 545 LINE",
"659 542 LINE",
"645 592 OFFCURVE",
"632 640 OFFCURVE",
"619 687 CURVE SMOOTH",
"594 780 OFFCURVE",
"568 872 OFFCURVE",
"540 964 CURVE SMOOTH",
"525 1010 OFFCURVE",
"509 1057 OFFCURVE",
"492 1106 CURVE",
"490 1105 OFFCURVE",
"489 1105 OFFCURVE",
"489 1106 CURVE",
"488 1106 OFFCURVE",
"486 1105 OFFCURVE",
"483 1104 CURVE",
"484 1076 OFFCURVE",
"485 1049 OFFCURVE",
"485 1022 CURVE SMOOTH",
"485 995 OFFCURVE",
"485 968 OFFCURVE",
"485 941 CURVE SMOOTH",
"485 645 OFFCURVE",
"464 342 OFFCURVE",
"433 29 CURVE",
"422 28 OFFCURVE",
"410 28 OFFCURVE",
"397 28 CURVE",
"384 27 OFFCURVE",
"373 27 OFFCURVE",
"362 26 CURVE",
"327 25 OFFCURVE",
"290 23 OFFCURVE",
"249 22 CURVE SMOOTH",
"208 21 OFFCURVE",
"169 19 OFFCURVE",
"133 17 CURVE",
"135 26 OFFCURVE",
"138 37 OFFCURVE",
"141 52 CURVE",
"148 80 OFFCURVE",
"155 111 OFFCURVE",
"161 139 CURVE SMOOTH",
"164 153 OFFCURVE",
"166 164 OFFCURVE",
"168 172 CURVE",
"171 187 OFFCURVE",
"174 203 OFFCURVE",
"178 219 CURVE",
"178 218 LINE",
"250 555 OFFCURVE",
"288 882 OFFCURVE",
"288 1203 CURVE SMOOTH",
"288 1227 OFFCURVE",
"287 1264 OFFCURVE",
"286 1301 CURVE SMOOTH",
"285 1319 OFFCURVE",
"285 1337 OFFCURVE",
"285 1354 CURVE",
"284 1371 OFFCURVE",
"284 1386 OFFCURVE",
"283 1398 CURVE",
"380 1390 OFFCURVE",
"473 1385 OFFCURVE",
"569 1381 CURVE",
"673 1146 OFFCURVE",
"758 904 OFFCURVE",
"842 660 CURVE SMOOTH",
"900 497 LINE",
"914 524 OFFCURVE",
"928 550 OFFCURVE",
"941 576 CURVE SMOOTH",
"954 601 OFFCURVE",
"967 627 OFFCURVE",
"981 654 CURVE SMOOTH",
"1038 769 OFFCURVE",
"1103 894 OFFCURVE",
"1169 1018 CURVE SMOOTH",
"1235 1142 OFFCURVE",
"1302 1264 OFFCURVE",
"1369 1376 CURVE",
"1386 1376 OFFCURVE",
"1402 1376 OFFCURVE",
"1417 1377 CURVE SMOOTH",
"1431 1378 OFFCURVE",
"1446 1378 OFFCURVE",
"1463 1379 CURVE SMOOTH",
"1502 1382 OFFCURVE",
"1542 1383 OFFCURVE",
"1581 1383 CURVE SMOOTH",
"1584 1383 OFFCURVE",
"1588 1383 OFFCURVE",
"1592 1383 CURVE SMOOTH",
"1595 1383 OFFCURVE",
"1599 1383 OFFCURVE",
"1602 1384 CURVE",
"1606 1384 OFFCURVE",
"1613 1384 OFFCURVE",
"1623 1385 CURVE",
"1632 1385 OFFCURVE",
"1639 1385 OFFCURVE",
"1643 1385 CURVE",
"1598 1072 OFFCURVE",
"1566 768 OFFCURVE",
"1566 491 CURVE SMOOTH",
"1566 350 OFFCURVE",
"1576 192 OFFCURVE",
"1600 9 CURVE"
);
}
);
width = 1794;
}
);
unicode = 004D;
},
{
glyphname = N;
lastChange = "2012-07-01 20:33:04 +0000";
layers = (
{
anchors = (
{
name = bottom;
position = "{755, 0}";
},
{
name = top;
position = "{755, 1399}";
}
);
layerId = "0F287C55-347F-439B-BC0E-FB0B2C3C2256";
name = Bold;
paths = (
{
closed = 1;
nodes = (
"980 28 LINE SMOOTH",
"978 28 OFFCURVE",
"976 28 OFFCURVE",
"974 29 CURVE",
"972 29 OFFCURVE",
"970 29 OFFCURVE",
"968 29 CURVE",
"967 49 LINE",
"859 248 OFFCURVE",
"765 456 OFFCURVE",
"672 664 CURVE SMOOTH",
"467 1101 LINE",
"464 1100 OFFCURVE",
"463 1099 OFFCURVE",
"463 1099 CURVE SMOOTH",
"463 1099 OFFCURVE",
"461 1099 OFFCURVE",
"458 1098 CURVE",
"459 1072 OFFCURVE",
"459 1045 OFFCURVE",
"459 1016 CURVE SMOOTH",
"459 987 OFFCURVE",
"459 959 OFFCURVE",
"459 933 CURVE SMOOTH",
"459 792 OFFCURVE",
"455 638 OFFCURVE",
"449 483 CURVE SMOOTH",
"443 328 OFFCURVE",
"435 173 OFFCURVE",
"427 32 CURVE",
"331 29 OFFCURVE",
"222 25 OFFCURVE",
"127 18 CURVE",
"224 487 OFFCURVE",
"284 950 OFFCURVE",
"284 1399 CURVE",
"360 1391 OFFCURVE",
"429 1386 OFFCURVE",
"506 1382 CURVE",
"581 1274 OFFCURVE",
"660 1151 OFFCURVE",
"737 1028 CURVE SMOOTH",
"813 904 OFFCURVE",
"889 780 OFFCURVE",
"957 667 CURVE SMOOTH",
"981 628 OFFCURVE",
"1006 588 OFFCURVE",
"1031 547 CURVE SMOOTH",
"1056 506 OFFCURVE",
"1080 465 OFFCURVE",
"1104 426 CURVE",
"1093 445 LINE",
"1097 446 OFFCURVE",
"1101 448 OFFCURVE",
"1105 450 CURVE",
"1121 753 OFFCURVE",
"1149 1054 OFFCURVE",
"1192 1378 CURVE",
"1219 1379 OFFCURVE",
"1251 1381 OFFCURVE",
"1283 1382 CURVE",
"1298 1383 OFFCURVE",
"1314 1384 OFFCURVE",
"1329 1385 CURVE SMOOTH",
"1344 1386 OFFCURVE",
"1358 1386 OFFCURVE",
"1371 1387 CURVE",
"1307 996 OFFCURVE",
"1263 624 OFFCURVE",
"1263 284 CURVE SMOOTH",
"1263 245 OFFCURVE",
"1265 197 OFFCURVE",
"1267 147 CURVE SMOOTH",
"1269 97 OFFCURVE",
"1270 47 OFFCURVE",
"1273 10 CURVE",
"1189 18 OFFCURVE",
"1101 23 OFFCURVE",
"1018 27 CURVE",
"1013 27 OFFCURVE",
"1008 27 OFFCURVE",
"1003 27 CURVE SMOOTH",
"998 27 OFFCURVE",
"993 27 OFFCURVE",
"989 28 CURVE"
);
}
);
width = 1509;
}
);
unicode = 004E;
},
{
glyphname = O;
lastChange = "2012-07-01 20:33:04 +0000";
layers = (
{
anchors = (
{
name = top;
position = "{740, 1399}";
}
);
layerId = "0F287C55-347F-439B-BC0E-FB0B2C3C2256";
name = Bold;
paths = (
{
closed = 1;
nodes = (
"1350 705 LINE",
"1346 649 OFFCURVE",
"1338 595 OFFCURVE",
"1329 547 CURVE SMOOTH",
"1302 422 OFFCURVE",
"1252 296 OFFCURVE",
"1176 205 CURVE",
"1108 134 OFFCURVE",
"1031 88 OFFCURVE",
"954 58 CURVE SMOOTH",
"877 28 OFFCURVE",
"799 15 OFFCURVE",
"728 15 CURVE SMOOTH",
"713 15 LINE SMOOTH",
"710 15 OFFCURVE",
"708 15 OFFCURVE",
"706 16 CURVE",
"703 16 OFFCURVE",
"701 16 OFFCURVE",
"699 16 CURVE SMOOTH",
"689 16 LINE SMOOTH",
"609 16 OFFCURVE",
"528 28 OFFCURVE",
"453 55 CURVE SMOOTH",
"378 82 OFFCURVE",
"311 122 OFFCURVE",
"258 181 CURVE",
"211 241 OFFCURVE",
"178 314 OFFCURVE",
"158 392 CURVE SMOOTH",
"137 470 OFFCURVE",
"127 554 OFFCURVE",
"127 635 CURVE SMOOTH",
"127 660 OFFCURVE",
"128 690 OFFCURVE",
"129 714 CURVE",
"136 774 OFFCURVE",
"142 833 OFFCURVE",
"153 881 CURVE SMOOTH",
"166 942 OFFCURVE",
"186 1006 OFFCURVE",
"212 1064 CURVE SMOOTH",
"238 1122 OFFCURVE",
"270 1174 OFFCURVE",
"313 1217 CURVE SMOOTH",
"381 1285 OFFCURVE",
"458 1328 OFFCURVE",
"538 1356 CURVE SMOOTH",
"618 1383 OFFCURVE",
"699 1392 OFFCURVE",
"772 1392 CURVE SMOOTH",
"793 1392 LINE SMOOTH",
"872 1392 OFFCURVE",
"953 1378 OFFCURVE",
"1028 1350 CURVE SMOOTH",
"1103 1321 OFFCURVE",
"1170 1278 OFFCURVE",
"1225 1219 CURVE",
"1269 1166 OFFCURVE",
"1302 1098 OFFCURVE",
"1323 1026 CURVE SMOOTH",
"1344 953 OFFCURVE",
"1355 874 OFFCURVE",
"1355 797 CURVE SMOOTH",
"1355 762 OFFCURVE",
"1353 733 OFFCURVE",
"1350 704 CURVE"
);
},
{
closed = 1;
nodes = (
"1184 766 LINE",
"1187 790 OFFCURVE",
"1188 811 OFFCURVE",
"1188 831 CURVE SMOOTH",
"1188 915 OFFCURVE",
"1165 999 OFFCURVE",
"1102 1070 CURVE",
"1070 1109 OFFCURVE",
"1022 1135 OFFCURVE",
"967 1152 CURVE SMOOTH",
"912 1169 OFFCURVE",
"848 1176 OFFCURVE",
"784 1176 CURVE SMOOTH",
"772 1176 LINE SMOOTH",
"712 1176 OFFCURVE",
"650 1170 OFFCURVE",
"591 1154 CURVE SMOOTH",
"532 1138 OFFCURVE",
"477 1112 OFFCURVE",
"436 1069 CURVE SMOOTH",
"367 1000 OFFCURVE",
"331 926 OFFCURVE",
"316 858 CURVE",
"309 819 OFFCURVE",
"304 785 OFFCURVE",
"301 754 CURVE SMOOTH",
"299 734 OFFCURVE",
"298 716 OFFCURVE",
"298 701 CURVE SMOOTH",
"298 622 OFFCURVE",
"322 539 OFFCURVE",
"391 486 CURVE",
"430 459 OFFCURVE",
"480 441 OFFCURVE",
"536 429 CURVE SMOOTH",
"591 417 OFFCURVE",
"652 411 OFFCURVE",
"712 411 CURVE SMOOTH",
"769 411 OFFCURVE",
"830 414 OFFCURVE",
"887 424 CURVE SMOOTH",
"944 434 OFFCURVE",
"1000 452 OFFCURVE",
"1048 483 CURVE",
"1047 482 LINE",
"1123 537 OFFCURVE",
"1155 606 OFFCURVE",
"1170 667 CURVE",
"1178 706 OFFCURVE",
"1181 736 OFFCURVE",
"1184 764 CURVE"
);
}
);
width = 1480;
}
);
unicode = 004F;
},
{
glyphname = P;
lastChange = "2012-07-01 20:33:04 +0000";
layers = (
{
layerId = "0F287C55-347F-439B-BC0E-FB0B2C3C2256";
name = Bold;
paths = (
{
closed = 1;
nodes = (
"1193 930 OFFCURVE",
"1191 912 OFFCURVE",
"1188 897 CURVE SMOOTH",
"1164 792 OFFCURVE",
"1118 689 OFFCURVE",
"1045 624 CURVE",
"1045 625 LINE",
"996 581 OFFCURVE",
"940 551 OFFCURVE",
"884 532 CURVE SMOOTH",
"828 512 OFFCURVE",
"771 504 OFFCURVE",
"720 504 CURVE SMOOTH",
"715 504 LINE SMOOTH",
"671 504 OFFCURVE",
"630 504 OFFCURVE",
"593 504 CURVE SMOOTH",
"555 504 OFFCURVE",
"514 504 OFFCURVE",
"470 503 CURVE",
"458 412 OFFCURVE",
"444 317 OFFCURVE",
"431 229 CURVE SMOOTH",
"427 205 OFFCURVE",
"424 184 OFFCURVE",
"421 161 CURVE SMOOTH",
"400 13 LINE",
"360 12 OFFCURVE",
"310 10 OFFCURVE",
"259 7 CURVE SMOOTH",
"234 5 OFFCURVE",
"209 3 OFFCURVE",
"184 2 CURVE SMOOTH",
"159 1 OFFCURVE",
"137 -1 OFFCURVE",
"117 -3 CURVE",
"218 476 OFFCURVE",
"291 946 OFFCURVE",
"312 1415 CURVE",
"471 1392 OFFCURVE",
"618 1387 OFFCURVE",
"765 1386 CURVE SMOOTH",
"822 1386 OFFCURVE",
"884 1380 OFFCURVE",
"943 1364 CURVE SMOOTH",
"1002 1348 OFFCURVE",
"1058 1322 OFFCURVE",
"1106 1282 CURVE",
"1106 1283 LINE",
"1174 1228 OFFCURVE",
"1200 1128 OFFCURVE",
"1200 1020 CURVE SMOOTH",
"1200 997 OFFCURVE",
"1199 974 OFFCURVE",
"1196 955 CURVE"
);
},
{
closed = 1;
nodes = (
"1035 1000 LINE",
"1036 1009 OFFCURVE",
"1037 1017 OFFCURVE",
"1037 1021 CURVE SMOOTH",
"1037 1052 OFFCURVE",
"1017 1088 OFFCURVE",
"974 1120 CURVE",
"975 1117 LINE",
"923 1146 OFFCURVE",
"843 1154 OFFCURVE",
"764 1154 CURVE SMOOTH",
"725 1154 OFFCURVE",
"688 1154 OFFCURVE",
"654 1154 CURVE SMOOTH",
"620 1154 OFFCURVE",
"584 1155 OFFCURVE",
"545 1156 CURVE",
"540 1096 OFFCURVE",
"535 1046 OFFCURVE",
"531 995 CURVE",
"528 969 OFFCURVE",
"525 942 OFFCURVE",
"522 915 CURVE SMOOTH",
"519 888 OFFCURVE",
"515 857 OFFCURVE",
"511 824 CURVE",
"741 824 LINE SMOOTH",
"778 824 OFFCURVE",
"817 826 OFFCURVE",
"856 834 CURVE SMOOTH",
"895 841 OFFCURVE",
"933 854 OFFCURVE",
"965 877 CURVE",
"965 874 LINE",
"1005 907 OFFCURVE",
"1023 942 OFFCURVE",
"1030 969 CURVE",
"1031 976 OFFCURVE",
"1032 982 OFFCURVE",
"1033 987 CURVE SMOOTH",
"1034 992 OFFCURVE",
"1034 996 OFFCURVE",
"1035 999 CURVE"
);
}
);
width = 1241;
}
);
unicode = 0050;
},
{
glyphname = Q;
lastChange = "2012-07-01 20:33:04 +0000";
layers = (
{
layerId = "0F287C55-347F-439B-BC0E-FB0B2C3C2256";
name = Bold;
paths = (
{
closed = 1;
nodes = (
"1308 667 LINE",
"1305 651 LINE",
"1301 624 OFFCURVE",
"1297 597 OFFCURVE",
"1294 570 CURVE SMOOTH",
"1287 516 OFFCURVE",
"1274 455 OFFCURVE",
"1249 379 CURVE SMOOTH",
"1224 302 OFFCURVE",
"1191 245 OFFCURVE",
"1150 203 CURVE SMOOTH",
"1109 161 OFFCURVE",
"1061 129 OFFCURVE",
"1010 108 CURVE SMOOTH",
"984 97 OFFCURVE",
"959 89 OFFCURVE",
"934 83 CURVE",
"947 43 OFFCURVE",
"967 2 OFFCURVE",
"1024 -22 CURVE",
"1022 -20 LINE",
"1067 -31 OFFCURVE",
"1122 -35 OFFCURVE",
"1177 -38 CURVE",
"1182 -39 OFFCURVE",
"1187 -39 OFFCURVE",
"1194 -39 CURVE SMOOTH",
"1201 -39 OFFCURVE",
"1207 -39 OFFCURVE",
"1212 -39 CURVE SMOOTH",
"1227 -39 OFFCURVE",
"1264 -36 OFFCURVE",
"1311 -31 CURVE",
"1238 -172 LINE",
"1234 -179 OFFCURVE",
"1230 -186 OFFCURVE",
"1227 -193 CURVE",
"1227 -191 LINE",
"1223 -198 OFFCURVE",
"1219 -207 OFFCURVE",
"1214 -216 CURVE",
"1209 -226 OFFCURVE",
"1203 -236 OFFCURVE",
"1198 -247 CURVE",
"1186 -268 OFFCURVE",
"1176 -289 OFFCURVE",
"1169 -304 CURVE",
"1132 -311 OFFCURVE",
"1095 -313 OFFCURVE",
"1062 -313 CURVE SMOOTH",
"1055 -313 OFFCURVE",
"1048 -313 OFFCURVE",
"1040 -313 CURVE SMOOTH",
"1032 -313 OFFCURVE",
"1025 -313 OFFCURVE",
"1020 -312 CURVE",
"940 -305 OFFCURVE",
"856 -275 OFFCURVE",
"788 -215 CURVE SMOOTH",
"723 -155 OFFCURVE",
"673 -61 OFFCURVE",
"626 46 CURVE",
"635 18 LINE",
"518 21 OFFCURVE",
"396 45 OFFCURVE",
"297 110 CURVE",
"298 110 LINE",
"219 162 OFFCURVE",
"166 240 OFFCURVE",
"133 332 CURVE SMOOTH",
"100 424 OFFCURVE",
"85 528 OFFCURVE",
"85 635 CURVE SMOOTH",
"85 660 OFFCURVE",
"85 689 OFFCURVE",
"88 714 CURVE",
"91 770 OFFCURVE",
"98 837 OFFCURVE",
"109 889 CURVE SMOOTH",
"136 1009 OFFCURVE",
"186 1132 OFFCURVE",
"267 1215 CURVE SMOOTH",
"334 1283 OFFCURVE",
"413 1327 OFFCURVE",
"494 1352 CURVE SMOOTH",
"575 1377 OFFCURVE",
"657 1386 OFFCURVE",
"732 1386 CURVE SMOOTH",
"738 1386 LINE SMOOTH",
"819 1386 OFFCURVE",
"904 1374 OFFCURVE",
"981 1346 CURVE SMOOTH",
"1058 1318 OFFCURVE",
"1130 1275 OFFCURVE",
"1187 1215 CURVE SMOOTH",
"1235 1163 OFFCURVE",
"1267 1099 OFFCURVE",
"1288 1029 CURVE SMOOTH",
"1309 959 OFFCURVE",
"1318 882 OFFCURVE",
"1318 805 CURVE SMOOTH",
"1318 768 OFFCURVE",
"1316 733 OFFCURVE",
"1312 699 CURVE SMOOTH"
);
},
{
closed = 1;
nodes = (
"1143 745 LINE",
"1146 769 OFFCURVE",
"1147 790 OFFCURVE",
"1147 811 CURVE SMOOTH",
"1147 900 OFFCURVE",
"1124 987 OFFCURVE",
"1061 1059 CURVE",
"1061 1058 LINE",
"1028 1098 OFFCURVE",
"979 1126 OFFCURVE",
"923 1143 CURVE SMOOTH",
"866 1160 OFFCURVE",
"800 1169 OFFCURVE",
"735 1169 CURVE SMOOTH",
"729 1169 LINE SMOOTH",
"670 1169 OFFCURVE",
"606 1163 OFFCURVE",
"546 1147 CURVE SMOOTH",
"486 1130 OFFCURVE",
"431 1102 OFFCURVE",
"390 1059 CURVE SMOOTH",
"327 995 OFFCURVE",
"287 913 OFFCURVE",
"272 849 CURVE SMOOTH",
"263 806 OFFCURVE",
"259 766 OFFCURVE",
"256 734 CURVE",
"255 727 OFFCURVE",
"255 721 OFFCURVE",
"255 714 CURVE SMOOTH",
"255 707 OFFCURVE",
"255 700 OFFCURVE",
"255 693 CURVE SMOOTH",
"255 652 OFFCURVE",
"261 608 OFFCURVE",
"274 568 CURVE SMOOTH",
"287 527 OFFCURVE",
"310 488 OFFCURVE",
"343 459 CURVE",
"342 461 LINE",
"390 422 OFFCURVE",
"462 395 OFFCURVE",
"554 392 CURVE",
"553 401 OFFCURVE",
"552 410 OFFCURVE",
"551 419 CURVE SMOOTH",
"550 427 OFFCURVE",
"548 435 OFFCURVE",
"547 442 CURVE",
"547 440 LINE",
"546 445 OFFCURVE",
"544 457 OFFCURVE",
"543 472 CURVE",
"543 477 OFFCURVE",
"542 494 OFFCURVE",
"540 511 CURVE SMOOTH",
"538 527 OFFCURVE",
"536 545 OFFCURVE",
"536 550 CURVE",
"558 554 OFFCURVE",
"581 558 OFFCURVE",
"605 563 CURVE",
"653 571 OFFCURVE",
"688 579 OFFCURVE",
"728 588 CURVE SMOOTH",
"747 592 OFFCURVE",
"767 596 OFFCURVE",
"786 599 CURVE",
"812 418 LINE",
"832 425 OFFCURVE",
"854 432 OFFCURVE",
"878 440 CURVE",
"902 447 OFFCURVE",
"924 454 OFFCURVE",
"943 461 CURVE",
"942 460 LINE",
"997 484 OFFCURVE",
"1041 520 OFFCURVE",
"1073 560 CURVE SMOOTH",
"1105 600 OFFCURVE",
"1126 645 OFFCURVE",
"1135 689 CURVE SMOOTH",
"1140 712 OFFCURVE",
"1143 729 OFFCURVE",
"1143 741 CURVE SMOOTH"
);
}
);
width = 1456;
}
);
unicode = 0051;
},
{
glyphname = R;
lastChange = "2012-07-01 20:33:04 +0000";
layers = (
{
anchors = (
{
name = bottom;
position = "{708, 0}";
},
{
name = top;
position = "{708, 1399}";
}
);
layerId = "0F287C55-347F-439B-BC0E-FB0B2C3C2256";
name = Bold;
paths = (
{
closed = 1;
nodes = (
"1275 11 OFFCURVE",
"1194 17 OFFCURVE",
"1112 22 CURVE SMOOTH",
"1030 26 OFFCURVE",
"947 29 OFFCURVE",
"878 32 CURVE",
"879 63 LINE",
"878 50 LINE",
"794 179 OFFCURVE",
"712 324 OFFCURVE",
"636 457 CURVE SMOOTH",
"581 557 LINE",
"589 533 LINE",
"424 533 LINE",
"427 437 OFFCURVE",
"427 327 OFFCURVE",
"427 234 CURVE SMOOTH",
"427 33 LINE",
"420 33 OFFCURVE",
"411 33 OFFCURVE",
"401 33 CURVE",
"391 32 OFFCURVE",
"383 32 OFFCURVE",
"376 32 CURVE",
"300 29 OFFCURVE",
"214 26 OFFCURVE",
"135 21 CURVE",
"199 421 OFFCURVE",
"242 801 OFFCURVE",
"242 1149 CURVE SMOOTH",
"242 1182 OFFCURVE",
"241 1229 OFFCURVE",
"240 1275 CURVE SMOOTH",
"239 1298 OFFCURVE",
"239 1320 OFFCURVE",
"238 1342 CURVE SMOOTH",
"237 1363 OFFCURVE",
"236 1382 OFFCURVE",
"235 1399 CURVE",
"408 1383 OFFCURVE",
"596 1376 OFFCURVE",
"775 1375 CURVE",
"778 1376 OFFCURVE",
"783 1376 OFFCURVE",
"788 1376 CURVE SMOOTH",
"793 1376 OFFCURVE",
"797 1376 OFFCURVE",
"801 1376 CURVE SMOOTH",
"885 1376 OFFCURVE",
"955 1338 OFFCURVE",
"1004 1278 CURVE SMOOTH",
"1052 1218 OFFCURVE",
"1079 1134 OFFCURVE",
"1079 1045 CURVE SMOOTH",
"1079 1014 OFFCURVE",
"1076 990 OFFCURVE",
"1072 966 CURVE",
"1072 969 LINE",
"1071 962 OFFCURVE",
"1070 954 OFFCURVE",
"1069 945 CURVE SMOOTH",
"1068 936 OFFCURVE",
"1066 928 OFFCURVE",
"1065 921 CURVE",
"1049 849 OFFCURVE",
"1021 786 OFFCURVE",
"990 734 CURVE",
"959 687 OFFCURVE",
"919 632 OFFCURVE",
"876 599 CURVE",
"945 507 OFFCURVE",
"1029 400 OFFCURVE",
"1111 295 CURVE SMOOTH",
"1193 190 OFFCURVE",
"1275 87 OFFCURVE",
"1343 6 CURVE"
);
},
{
closed = 1;
nodes = (
"908 990 OFFCURVE",
"908 995 OFFCURVE",
"908 1000 CURVE SMOOTH",
"908 1004 OFFCURVE",
"908 1008 OFFCURVE",
"909 1011 CURVE",
"909 1006 LINE",
"909 1007 OFFCURVE",
"909 1009 OFFCURVE",
"910 1010 CURVE",
"910 1011 OFFCURVE",
"910 1013 OFFCURVE",
"910 1014 CURVE SMOOTH",
"910 1049 OFFCURVE",
"892 1089 OFFCURVE",
"856 1122 CURVE SMOOTH",
"825 1149 OFFCURVE",
"777 1170 OFFCURVE",
"717 1170 CURVE SMOOTH",
"625 1171 OFFCURVE",
"531 1173 OFFCURVE",
"439 1177 CURVE",
"436 1053 OFFCURVE",
"432 943 OFFCURVE",
"424 814 CURVE",
"482 814 LINE SMOOTH",
"495 814 OFFCURVE",
"507 814 OFFCURVE",
"519 814 CURVE",
"531 813 OFFCURVE",
"543 813 OFFCURVE",
"555 813 CURVE SMOOTH",
"691 813 LINE SMOOTH",
"750 813 OFFCURVE",
"798 836 OFFCURVE",
"833 868 CURVE SMOOTH",
"876 907 OFFCURVE",
"907 951 OFFCURVE",
"908 983 CURVE SMOOTH"
);
}
);
width = 1416;
}
);
unicode = 0052;
},
{
glyphname = S;
lastChange = "2012-07-01 20:33:04 +0000";
layers = (
{
anchors = (
{
name = bottom;
position = "{654, 0}";
},
{
name = top;
position = "{654, 1399}";
}
);
layerId = "0F287C55-347F-439B-BC0E-FB0B2C3C2256";
name = Bold;
paths = (
{
closed = 1;
nodes = (
"1151 400 LINE SMOOTH",
"1151 373 OFFCURVE",
"1148 347 OFFCURVE",
"1144 326 CURVE",
"1133 282 OFFCURVE",
"1119 237 OFFCURVE",
"1097 198 CURVE SMOOTH",
"1075 159 OFFCURVE",
"1047 126 OFFCURVE",
"1014 105 CURVE SMOOTH",
"947 62 OFFCURVE",
"881 41 OFFCURVE",
"814 30 CURVE SMOOTH",
"747 18 OFFCURVE",
"683 16 OFFCURVE",
"620 16 CURVE SMOOTH",
"589 16 LINE SMOOTH",
"516 16 OFFCURVE",
"440 26 OFFCURVE",
"370 50 CURVE SMOOTH",
"300 73 OFFCURVE",
"235 112 OFFCURVE",
"187 169 CURVE SMOOTH",
"139 225 OFFCURVE",
"107 300 OFFCURVE",
"102 399 CURVE",
"113 404 OFFCURVE",
"124 410 OFFCURVE",
"137 415 CURVE SMOOTH",
"149 420 OFFCURVE",
"160 424 OFFCURVE",
"169 429 CURVE",
"196 442 OFFCURVE",
"222 454 OFFCURVE",
"249 467 CURVE SMOOTH",
"275 480 OFFCURVE",
"302 492 OFFCURVE",
"329 503 CURVE",
"338 479 OFFCURVE",
"351 454 OFFCURVE",
"370 433 CURVE SMOOTH",
"389 412 OFFCURVE",
"411 396 OFFCURVE",
"442 389 CURVE",
"493 381 OFFCURVE",
"559 380 OFFCURVE",
"620 379 CURVE SMOOTH",
"636 379 LINE",
"643 380 OFFCURVE",
"652 380 OFFCURVE",
"662 380 CURVE SMOOTH",
"672 380 OFFCURVE",
"681 380 OFFCURVE",
"689 380 CURVE SMOOTH",
"742 380 OFFCURVE",
"796 380 OFFCURVE",
"847 397 CURVE",
"846 395 LINE",
"885 412 OFFCURVE",
"909 435 OFFCURVE",
"920 455 CURVE",
"920 448 LINE",
"920 449 OFFCURVE",
"920 449 OFFCURVE",
"921 448 CURVE",
"921 447 OFFCURVE",
"921 445 OFFCURVE",
"921 443 CURVE",
"921 444 OFFCURVE",
"921 444 OFFCURVE",
"922 445 CURVE",
"922 445 OFFCURVE",
"922 446 OFFCURVE",
"922 447 CURVE SMOOTH",
"922 448 OFFCURVE",
"922 450 OFFCURVE",
"923 453 CURVE",
"923 456 OFFCURVE",
"923 458 OFFCURVE",
"923 459 CURVE",
"924 474 OFFCURVE",
"925 483 OFFCURVE",
"925 490 CURVE SMOOTH",
"925 491 OFFCURVE",
"924 494 OFFCURVE",
"923 497 CURVE",
"920 503 OFFCURVE",
"917 511 OFFCURVE",
"902 524 CURVE",
"887 536 OFFCURVE",
"870 553 OFFCURVE",
"834 565 CURVE SMOOTH",
"798 576 OFFCURVE",
"767 585 OFFCURVE",
"741 591 CURVE SMOOTH",
"715 597 OFFCURVE",
"689 602 OFFCURVE",
"664 609 CURVE",
"651 612 OFFCURVE",
"639 616 OFFCURVE",
"626 619 CURVE",
"627 618 LINE",
"625 619 OFFCURVE",
"623 619 OFFCURVE",
"620 620 CURVE",
"617 620 OFFCURVE",
"615 620 OFFCURVE",
"614 621 CURVE",
"549 637 OFFCURVE",
"479 654 OFFCURVE",
"407 686 CURVE SMOOTH",
"376 701 OFFCURVE",
"336 728 OFFCURVE",
"293 771 CURVE",
"244 824 OFFCURVE",
"216 906 OFFCURVE",
"216 1003 CURVE SMOOTH",
"216 1008 OFFCURVE",
"216 1014 OFFCURVE",
"216 1020 CURVE SMOOTH",
"216 1026 OFFCURVE",
"216 1031 OFFCURVE",
"217 1035 CURVE",
"217 1091 OFFCURVE",
"227 1134 OFFCURVE",
"247 1183 CURVE SMOOTH",
"266 1231 OFFCURVE",
"293 1274 OFFCURVE",
"329 1306 CURVE SMOOTH",
"347 1321 OFFCURVE",
"367 1333 OFFCURVE",
"389 1342 CURVE SMOOTH",
"497 1385 OFFCURVE",
"591 1391 OFFCURVE",
"683 1391 CURVE SMOOTH",
"706 1391 LINE SMOOTH",
"762 1390 OFFCURVE",
"821 1388 OFFCURVE",
"878 1378 CURVE SMOOTH",
"934 1368 OFFCURVE",
"991 1351 OFFCURVE",
"1043 1323 CURVE",
"1079 1300 OFFCURVE",
"1108 1262 OFFCURVE",
"1132 1212 CURVE SMOOTH",
"1156 1162 OFFCURVE",
"1173 1100 OFFCURVE",
"1184 1033 CURVE",
"1012 1000 LINE",
"1001 1068 OFFCURVE",
"962 1115 OFFCURVE",
"909 1144 CURVE SMOOTH",
"856 1173 OFFCURVE",
"788 1186 OFFCURVE",
"723 1186 CURVE SMOOTH",
"686 1186 LINE SMOOTH",
"613 1186 OFFCURVE",
"540 1181 OFFCURVE",
"480 1152 CURVE SMOOTH",
"416 1121 OFFCURVE",
"387 1084 OFFCURVE",
"380 1053 CURVE",
"378 1040 OFFCURVE",
"377 1031 OFFCURVE",
"377 1027 CURVE SMOOTH",
"377 1015 LINE SMOOTH",
"377 996 OFFCURVE",
"383 974 OFFCURVE",
"402 950 CURVE",
"410 939 OFFCURVE",
"447 918 OFFCURVE",
"486 897 CURVE",
"485 899 LINE",
"528 880 OFFCURVE",
"595 862 OFFCURVE",
"656 847 CURVE",
"664 846 OFFCURVE",
"673 844 OFFCURVE",
"682 841 CURVE SMOOTH",
"691 838 OFFCURVE",
"699 836 OFFCURVE",
"708 834 CURVE SMOOTH",
"723 831 OFFCURVE",
"737 828 OFFCURVE",
"752 824 CURVE",
"751 825 LINE",
"754 824 OFFCURVE",
"756 824 OFFCURVE",
"758 823 CURVE SMOOTH",
"760 822 OFFCURVE",
"762 822 OFFCURVE",
"765 821 CURVE",
"842 804 OFFCURVE",
"927 782 OFFCURVE",
"1011 731 CURVE SMOOTH",
"1107 672 OFFCURVE",
"1152 562 OFFCURVE",
"1152 437 CURVE SMOOTH",
"1152 432 OFFCURVE",
"1152 426 OFFCURVE",
"1152 421 CURVE SMOOTH",
"1152 415 OFFCURVE",
"1152 410 OFFCURVE",
"1151 405 CURVE"
);
}
);
width = 1308;
}
);
unicode = 0053;
},
{
glyphname = T;
lastChange = "2012-07-01 20:33:04 +0000";
layers = (
{
anchors = (
{
name = bottom;
position = "{617, 0}";
},
{
name = center;
position = "{617, 700}";
},
{
name = top;
position = "{617, 1399}";
}
);
layerId = "0F287C55-347F-439B-BC0E-FB0B2C3C2256";
name = Bold;
paths = (
{
closed = 1;
nodes = (
"692 1003 LINE",
"692 1005 LINE",
"680 789 OFFCURVE",
"672 575 OFFCURVE",
"672 358 CURVE SMOOTH",
"672 310 OFFCURVE",
"673 251 OFFCURVE",
"674 192 CURVE SMOOTH",
"675 162 OFFCURVE",
"676 133 OFFCURVE",
"677 105 CURVE SMOOTH",
"678 76 OFFCURVE",
"678 50 OFFCURVE",
"679 27 CURVE",
"591 32 OFFCURVE",
"490 34 OFFCURVE",
"402 35 CURVE",
"406 74 OFFCURVE",
"410 116 OFFCURVE",
"415 161 CURVE SMOOTH",
"423 250 OFFCURVE",
"434 344 OFFCURVE",
"444 434 CURVE SMOOTH",
"449 479 OFFCURVE",
"453 521 OFFCURVE",
"457 560 CURVE SMOOTH",
"459 577 OFFCURVE",
"461 593 OFFCURVE",
"463 609 CURVE SMOOTH",
"465 624 OFFCURVE",
"467 640 OFFCURVE",
"468 657 CURVE",
"473 702 OFFCURVE",
"479 746 OFFCURVE",
"484 787 CURVE SMOOTH",
"494 869 OFFCURVE",
"503 947 OFFCURVE",
"512 1028 CURVE SMOOTH",
"516 1069 OFFCURVE",
"520 1112 OFFCURVE",
"524 1157 CURVE",
"449 1154 OFFCURVE",
"367 1154 OFFCURVE",
"294 1154 CURVE SMOOTH",
"230 1154 OFFCURVE",
"157 1154 OFFCURVE",
"94 1157 CURVE",
"94 1161 OFFCURVE",
"94 1167 OFFCURVE",
"94 1176 CURVE SMOOTH",
"94 1184 OFFCURVE",
"94 1193 OFFCURVE",
"94 1203 CURVE",
"93 1212 OFFCURVE",
"93 1221 OFFCURVE",
"93 1230 CURVE SMOOTH",
"93 1238 OFFCURVE",
"93 1244 OFFCURVE",
"93 1248 CURVE SMOOTH",
"93 1279 OFFCURVE",
"92 1307 OFFCURVE",
"91 1336 CURVE",
"91 1400 LINE",
"274 1381 OFFCURVE",
"442 1373 OFFCURVE",
"622 1373 CURVE SMOOTH",
"801 1373 OFFCURVE",
"985 1382 OFFCURVE",
"1178 1399 CURVE",
"1176 1388 OFFCURVE",
"1173 1373 OFFCURVE",
"1170 1356 CURVE SMOOTH",
"1163 1321 OFFCURVE",
"1157 1284 OFFCURVE",
"1152 1251 CURVE SMOOTH",
"1149 1234 OFFCURVE",
"1147 1221 OFFCURVE",
"1145 1210 CURVE",
"1145 1207 OFFCURVE",
"1145 1202 OFFCURVE",
"1145 1197 CURVE",
"1144 1191 OFFCURVE",
"1144 1185 OFFCURVE",
"1144 1180 CURVE SMOOTH",
"1144 1175 OFFCURVE",
"1144 1170 OFFCURVE",
"1144 1166 CURVE",
"1143 1161 OFFCURVE",
"1143 1159 OFFCURVE",
"1143 1158 CURVE",
"1063 1155 OFFCURVE",
"983 1155 OFFCURVE",
"902 1155 CURVE SMOOTH",
"834 1155 OFFCURVE",
"776 1155 OFFCURVE",
"708 1158 CURVE"
);
}
);
width = 1234;
}
);
unicode = 0054;
},
{
glyphname = U;
lastChange = "2012-07-01 20:33:04 +0000";
layers = (
{
anchors = (
{
name = ogonek;
position = "{1260, 10}";
},
{
name = top;
position = "{700, 1399}";
}
);
layerId = "0F287C55-347F-439B-BC0E-FB0B2C3C2256";
name = Bold;
paths = (
{
closed = 1;
nodes = (
"630 15 LINE SMOOTH",
"502 16 OFFCURVE",
"365 54 OFFCURVE",
"261 141 CURVE",
"182 217 OFFCURVE",
"149 334 OFFCURVE",
"149 461 CURVE SMOOTH",
"149 486 OFFCURVE",
"150 509 OFFCURVE",
"152 531 CURVE SMOOTH",
"175 755 OFFCURVE",
"189 974 OFFCURVE",
"189 1193 CURVE SMOOTH",
"189 1206 OFFCURVE",
"189 1222 OFFCURVE",
"189 1241 CURVE",
"188 1259 OFFCURVE",
"188 1278 OFFCURVE",
"188 1297 CURVE",
"187 1336 OFFCURVE",
"186 1373 OFFCURVE",
"185 1400 CURVE",
"202 1397 OFFCURVE",
"221 1395 OFFCURVE",
"241 1394 CURVE SMOOTH",
"260 1393 OFFCURVE",
"278 1391 OFFCURVE",
"295 1390 CURVE",
"302 1389 OFFCURVE",
"311 1389 OFFCURVE",
"321 1388 CURVE SMOOTH",
"331 1387 OFFCURVE",
"340 1387 OFFCURVE",
"348 1386 CURVE",
"348 1282 LINE SMOOTH",
"348 1090 OFFCURVE",
"340 896 OFFCURVE",
"328 701 CURVE",
"327 695 OFFCURVE",
"327 689 OFFCURVE",
"327 684 CURVE SMOOTH",
"327 679 OFFCURVE",
"327 673 OFFCURVE",
"327 667 CURVE SMOOTH",
"327 607 OFFCURVE",
"341 545 OFFCURVE",
"380 489 CURVE",
"380 492 LINE",
"408 457 OFFCURVE",
"447 434 OFFCURVE",
"492 420 CURVE SMOOTH",
"537 406 OFFCURVE",
"588 400 OFFCURVE",
"640 400 CURVE SMOOTH",
"647 400 LINE SMOOTH",
"692 400 OFFCURVE",
"741 404 OFFCURVE",
"786 415 CURVE SMOOTH",
"830 426 OFFCURVE",
"872 445 OFFCURVE",
"907 474 CURVE SMOOTH",
"970 526 OFFCURVE",
"996 583 OFFCURVE",
"1007 636 CURVE",
"1011 651 OFFCURVE",
"1014 665 OFFCURVE",
"1015 678 CURVE SMOOTH",
"1016 691 OFFCURVE",
"1018 704 OFFCURVE",
"1019 715 CURVE SMOOTH",
"1027 818 OFFCURVE",
"1039 933 OFFCURVE",
"1051 1047 CURVE SMOOTH",
"1063 1161 OFFCURVE",
"1076 1274 OFFCURVE",
"1091 1378 CURVE",
"1138 1381 OFFCURVE",
"1181 1383 OFFCURVE",
"1224 1386 CURVE",
"1232 1386 OFFCURVE",
"1243 1387 OFFCURVE",
"1255 1388 CURVE SMOOTH",
"1267 1389 OFFCURVE",
"1278 1390 OFFCURVE",
"1285 1390 CURVE",
"1258 1242 OFFCURVE",
"1237 1091 OFFCURVE",
"1220 945 CURVE SMOOTH",
"1203 799 OFFCURVE",
"1190 659 OFFCURVE",
"1181 538 CURVE SMOOTH",
"1178 501 OFFCURVE",
"1173 465 OFFCURVE",
"1168 438 CURVE",
"1168 439 LINE",
"1144 328 OFFCURVE",
"1104 224 OFFCURVE",
"1029 153 CURVE SMOOTH",
"966 96 OFFCURVE",
"901 61 OFFCURVE",
"836 41 CURVE SMOOTH",
"771 21 OFFCURVE",
"706 15 OFFCURVE",
"646 15 CURVE SMOOTH"
);
}
);
width = 1400;
}
);
unicode = 0055;
},
{
glyphname = V;
lastChange = "2012-07-01 20:33:04 +0000";
layers = (
{
layerId = "0F287C55-347F-439B-BC0E-FB0B2C3C2256";
name = Bold;
paths = (
{
closed = 1;
nodes = (
"748 22 LINE",
"688 33 OFFCURVE",
"609 34 OFFCURVE",
"530 35 CURVE",
"499 122 OFFCURVE",
"469 217 OFFCURVE",
"439 313 CURVE SMOOTH",
"409 408 OFFCURVE",
"380 504 OFFCURVE",
"353 593 CURVE SMOOTH",
"320 702 OFFCURVE",
"279 838 OFFCURVE",
"232 979 CURVE SMOOTH",
"185 1119 OFFCURVE",
"133 1266 OFFCURVE",
"80 1401 CURVE",
"140 1394 OFFCURVE",
"211 1388 OFFCURVE",
"271 1385 CURVE",
"326 1270 OFFCURVE",
"382 1143 OFFCURVE",
"438 1013 CURVE SMOOTH",
"465 948 OFFCURVE",
"492 883 OFFCURVE",
"518 819 CURVE SMOOTH",
"544 754 OFFCURVE",
"569 693 OFFCURVE",
"593 634 CURVE SMOOTH",
"616 581 OFFCURVE",
"634 535 OFFCURVE",
"657 479 CURVE",
"665 494 OFFCURVE",
"673 508 OFFCURVE",
"681 523 CURVE",
"688 538 OFFCURVE",
"696 552 OFFCURVE",
"703 566 CURVE SMOOTH",
"774 697 OFFCURVE",
"849 837 OFFCURVE",
"929 977 CURVE SMOOTH",
"1009 1116 OFFCURVE",
"1093 1256 OFFCURVE",
"1178 1387 CURVE",
"1199 1388 OFFCURVE",
"1218 1390 OFFCURVE",
"1235 1391 CURVE SMOOTH",
"1252 1392 OFFCURVE",
"1271 1394 OFFCURVE",
"1292 1395 CURVE SMOOTH",
"1393 1402 LINE",
"1250 1154 OFFCURVE",
"1134 921 OFFCURVE",
"1032 698 CURVE SMOOTH",
"930 475 OFFCURVE",
"842 260 OFFCURVE",
"758 51 CURVE"
);
}
);
width = 1444;
}
);
unicode = 0056;
},
{
glyphname = W;
lastChange = "2012-07-01 20:33:04 +0000";
layers = (
{
anchors = (
{
name = top;
position = "{1023, 1399}";
}
);
layerId = "0F287C55-347F-439B-BC0E-FB0B2C3C2256";
name = Bold;
paths = (
{
closed = 1;
nodes = (
"1433 21 LINE SMOOTH",
"1385 22 OFFCURVE",
"1337 24 OFFCURVE",
"1289 26 CURVE SMOOTH",
"1241 28 OFFCURVE",
"1193 30 OFFCURVE",
"1145 31 CURVE",
"1077 254 OFFCURVE",
"1036 480 OFFCURVE",
"997 687 CURVE SMOOTH",
"985 752 LINE",
"982 752 OFFCURVE",
"980 752 OFFCURVE",
"978 751 CURVE",
"975 750 OFFCURVE",
"973 750 OFFCURVE",
"971 750 CURVE",
"979 781 LINE",
"943 682 OFFCURVE",
"907 584 OFFCURVE",
"872 486 CURVE SMOOTH",
"837 388 OFFCURVE",
"801 289 OFFCURVE",
"765 190 CURVE SMOOTH",
"757 169 OFFCURVE",
"747 140 OFFCURVE",
"737 112 CURVE SMOOTH",
"727 84 OFFCURVE",
"716 55 OFFCURVE",
"708 35 CURVE",
"649 35 OFFCURVE",
"601 34 OFFCURVE",
"545 33 CURVE SMOOTH",
"526 33 LINE SMOOTH",
"519 33 OFFCURVE",
"511 33 OFFCURVE",
"504 33 CURVE",
"496 32 OFFCURVE",
"488 32 OFFCURVE",
"481 32 CURVE SMOOTH",
"433 32 LINE",
"389 280 LINE SMOOTH",
"358 455 OFFCURVE",
"326 636 OFFCURVE",
"283 824 CURVE SMOOTH",
"240 1011 OFFCURVE",
"186 1204 OFFCURVE",
"114 1401 CURVE",
"174 1396 OFFCURVE",
"242 1392 OFFCURVE",
"302 1389 CURVE",
"366 1234 OFFCURVE",
"419 1076 OFFCURVE",
"467 915 CURVE SMOOTH",
"514 754 OFFCURVE",
"556 592 OFFCURVE",
"597 429 CURVE",
"642 510 OFFCURVE",
"688 593 OFFCURVE",
"734 679 CURVE SMOOTH",
"780 765 OFFCURVE",
"825 848 OFFCURVE",
"868 929 CURVE",
"868 928 LINE",
"874 939 OFFCURVE",
"881 952 OFFCURVE",
"889 966 CURVE SMOOTH",
"904 994 OFFCURVE",
"920 1024 OFFCURVE",
"936 1053 CURVE",
"943 1067 OFFCURVE",
"950 1080 OFFCURVE",
"956 1091 CURVE",
"1056 1091 LINE",
"1146 858 LINE SMOOTH",
"1202 713 OFFCURVE",
"1259 568 OFFCURVE",
"1320 425 CURVE",
"1441 758 OFFCURVE",
"1572 1082 OFFCURVE",
"1743 1390 CURVE",
"1764 1391 OFFCURVE",
"1784 1393 OFFCURVE",
"1801 1394 CURVE SMOOTH",
"1818 1395 OFFCURVE",
"1837 1396 OFFCURVE",
"1857 1397 CURVE",
"1861 1397 OFFCURVE",
"1868 1397 OFFCURVE",
"1877 1398 CURVE SMOOTH",
"1886 1399 OFFCURVE",
"1895 1399 OFFCURVE",
"1905 1400 CURVE SMOOTH",
"1915 1401 OFFCURVE",
"1925 1401 OFFCURVE",
"1934 1402 CURVE SMOOTH",
"1943 1403 OFFCURVE",
"1949 1403 OFFCURVE",
"1953 1403 CURVE",
"1697 930 OFFCURVE",
"1529 462 OFFCURVE",
"1445 21 CURVE"
);
}
);
width = 2045;
}
);
unicode = 0057;
},
{
glyphname = X;
lastChange = "2012-07-01 20:33:04 +0000";
layers = (
{
layerId = "0F287C55-347F-439B-BC0E-FB0B2C3C2256";
name = Bold;
paths = (
{
closed = 1;
nodes = (
"1421 10 OFFCURVE",
"1355 14 OFFCURVE",
"1290 18 CURVE SMOOTH",
"1225 22 OFFCURVE",
"1158 25 OFFCURVE",
"1105 28 CURVE",
"1104 46 LINE",
"1001 207 OFFCURVE",
"911 371 OFFCURVE",
"820 542 CURVE",
"765 459 OFFCURVE",
"705 372 OFFCURVE",
"644 285 CURVE SMOOTH",
"583 197 OFFCURVE",
"522 110 OFFCURVE",
"463 31 CURVE",
"383 28 OFFCURVE",
"312 25 OFFCURVE",
"233 21 CURVE",
"227 21 OFFCURVE",
"217 21 OFFCURVE",
"204 20 CURVE SMOOTH",
"190 19 OFFCURVE",
"176 19 OFFCURVE",
"161 18 CURVE SMOOTH",
"146 17 OFFCURVE",
"133 17 OFFCURVE",
"120 16 CURVE SMOOTH",
"107 15 OFFCURVE",
"99 14 OFFCURVE",
"95 14 CURVE",
"183 107 OFFCURVE",
"284 221 OFFCURVE",
"383 335 CURVE SMOOTH",
"482 449 OFFCURVE",
"579 563 OFFCURVE",
"659 662 CURVE SMOOTH",
"719 736 LINE",
"654 840 OFFCURVE",
"578 958 OFFCURVE",
"502 1074 CURVE SMOOTH",
"426 1190 OFFCURVE",
"349 1305 OFFCURVE",
"281 1404 CURVE",
"288 1403 OFFCURVE",
"297 1402 OFFCURVE",
"310 1401 CURVE",
"335 1398 OFFCURVE",
"363 1396 OFFCURVE",
"387 1394 CURVE SMOOTH",
"398 1393 OFFCURVE",
"407 1392 OFFCURVE",
"412 1392 CURVE SMOOTH",
"427 1392 OFFCURVE",
"444 1391 OFFCURVE",
"464 1389 CURVE",
"471 1388 OFFCURVE",
"477 1388 OFFCURVE",
"483 1388 CURVE",
"489 1387 OFFCURVE",
"496 1387 OFFCURVE",
"503 1386 CURVE",
"616 1225 OFFCURVE",
"730 1044 OFFCURVE",
"834 877 CURVE",
"865 917 OFFCURVE",
"898 958 OFFCURVE",
"931 1001 CURVE SMOOTH",
"998 1086 OFFCURVE",
"1066 1172 OFFCURVE",
"1135 1256 CURVE SMOOTH",
"1169 1298 OFFCURVE",
"1202 1338 OFFCURVE",
"1235 1376 CURVE",
"1362 1376 LINE",
"1375 1379 LINE",
"1379 1379 OFFCURVE",
"1387 1380 OFFCURVE",
"1399 1382 CURVE",
"1411 1383 OFFCURVE",
"1424 1385 OFFCURVE",
"1438 1386 CURVE SMOOTH",
"1451 1387 OFFCURVE",
"1464 1389 OFFCURVE",
"1476 1391 CURVE",
"1488 1392 OFFCURVE",
"1496 1393 OFFCURVE",
"1499 1393 CURVE",
"1415 1298 OFFCURVE",
"1315 1182 OFFCURVE",
"1218 1063 CURVE SMOOTH",
"1121 944 OFFCURVE",
"1025 826 OFFCURVE",
"948 727 CURVE SMOOTH",
"944 722 LINE",
"951 711 OFFCURVE",
"959 701 OFFCURVE",
"967 691 CURVE",
"975 680 OFFCURVE",
"983 670 OFFCURVE",
"990 659 CURVE",
"1058 563 OFFCURVE",
"1142 444 OFFCURVE",
"1229 328 CURVE SMOOTH",
"1316 211 OFFCURVE",
"1402 95 OFFCURVE",
"1474 6 CURVE"
);
}
);
width = 1621;
}
);
unicode = 0058;
},
{
glyphname = Y;
lastChange = "2012-07-01 20:33:04 +0000";
layers = (
{
anchors = (
{
name = top;
position = "{699, 1399}";
}
);
layerId = "0F287C55-347F-439B-BC0E-FB0B2C3C2256";
name = Bold;
paths = (
{
closed = 1;
nodes = (
"746 499 LINE",
"750 427 OFFCURVE",
"755 343 OFFCURVE",
"762 260 CURVE SMOOTH",
"769 176 OFFCURVE",
"777 94 OFFCURVE",
"785 26 CURVE",
"677 33 OFFCURVE",
"548 35 OFFCURVE",
"440 35 CURVE",
"442 46 OFFCURVE",
"444 59 OFFCURVE",
"447 75 CURVE SMOOTH",
"450 91 OFFCURVE",
"453 108 OFFCURVE",
"456 125 CURVE SMOOTH",
"459 142 OFFCURVE",
"461 158 OFFCURVE",
"464 174 CURVE SMOOTH",
"467 190 OFFCURVE",
"469 203 OFFCURVE",
"471 213 CURVE",
"471 212 LINE",
"474 235 OFFCURVE",
"478 259 OFFCURVE",
"483 282 CURVE",
"487 305 OFFCURVE",
"491 328 OFFCURVE",
"495 351 CURVE",
"495 350 LINE",
"500 380 OFFCURVE",
"505 407 OFFCURVE",
"510 432 CURVE SMOOTH",
"515 456 OFFCURVE",
"520 483 OFFCURVE",
"525 512 CURVE",
"517 529 OFFCURVE",
"509 547 OFFCURVE",
"500 565 CURVE SMOOTH",
"491 582 OFFCURVE",
"482 600 OFFCURVE",
"474 617 CURVE",
"474 616 LINE",
"467 629 OFFCURVE",
"461 643 OFFCURVE",
"455 656 CURVE SMOOTH",
"449 669 OFFCURVE",
"443 682 OFFCURVE",
"436 695 CURVE",
"385 803 OFFCURVE",
"325 927 OFFCURVE",
"263 1051 CURVE SMOOTH",
"201 1175 OFFCURVE",
"137 1298 OFFCURVE",
"80 1403 CURVE",
"143 1396 OFFCURVE",
"224 1387 OFFCURVE",
"288 1384 CURVE",
"413 1184 OFFCURVE",
"539 966 OFFCURVE",
"655 761 CURVE",
"662 772 OFFCURVE",
"670 784 OFFCURVE",
"679 796 CURVE SMOOTH",
"687 807 OFFCURVE",
"695 819 OFFCURVE",
"703 830 CURVE SMOOTH",
"735 875 OFFCURVE",
"768 921 OFFCURVE",
"802 968 CURVE SMOOTH",
"869 1063 OFFCURVE",
"939 1158 OFFCURVE",
"1010 1251 CURVE SMOOTH",
"1045 1298 OFFCURVE",
"1080 1343 OFFCURVE",
"1114 1386 CURVE",
"1133 1387 OFFCURVE",
"1151 1389 OFFCURVE",
"1167 1390 CURVE SMOOTH",
"1182 1391 OFFCURVE",
"1199 1392 OFFCURVE",
"1218 1393 CURVE",
"1224 1394 OFFCURVE",
"1233 1395 OFFCURVE",
"1246 1396 CURVE SMOOTH",
"1259 1397 OFFCURVE",
"1272 1398 OFFCURVE",
"1285 1399 CURVE SMOOTH",
"1298 1400 OFFCURVE",
"1311 1402 OFFCURVE",
"1323 1403 CURVE SMOOTH",
"1335 1404 OFFCURVE",
"1344 1404 OFFCURVE",
"1349 1405 CURVE",
"1258 1282 OFFCURVE",
"1158 1135 OFFCURVE",
"1059 987 CURVE SMOOTH",
"960 838 OFFCURVE",
"863 687 OFFCURVE",
"782 556 CURVE SMOOTH"
);
}
);
width = 1398;
}
);
unicode = 0059;
},
{
glyphname = Z;
lastChange = "2012-07-01 20:33:04 +0000";
layers = (
{
anchors = (
{
name = top;
position = "{685, 1399}";
}
);
layerId = "0F287C55-347F-439B-BC0E-FB0B2C3C2256";
name = Bold;
paths = (
{
closed = 1;
nodes = (
"1174 9 LINE",
"985 28 OFFCURVE",
"797 35 OFFCURVE",
"605 35 CURVE SMOOTH",
"449 35 OFFCURVE",
"274 30 OFFCURVE",
"118 19 CURVE",
"126 68 OFFCURVE",
"137 135 OFFCURVE",
"147 202 CURVE SMOOTH",
"157 269 OFFCURVE",
"165 336 OFFCURVE",
"172 385 CURVE",
"224 440 OFFCURVE",
"277 495 OFFCURVE",
"330 551 CURVE SMOOTH",
"383 606 OFFCURVE",
"435 661 OFFCURVE",
"486 716 CURVE SMOOTH",
"615 853 OFFCURVE",
"753 999 OFFCURVE",
"888 1140 CURVE",
"827 1140 LINE SMOOTH",
"648 1140 OFFCURVE",
"465 1145 OFFCURVE",
"290 1158 CURVE",
"290 1162 OFFCURVE",
"290 1168 OFFCURVE",
"290 1177 CURVE SMOOTH",
"290 1185 OFFCURVE",
"290 1194 OFFCURVE",
"290 1203 CURVE",
"289 1212 OFFCURVE",
"289 1221 OFFCURVE",
"289 1230 CURVE SMOOTH",
"289 1238 OFFCURVE",
"289 1244 OFFCURVE",
"289 1248 CURVE SMOOTH",
"289 1279 OFFCURVE",
"288 1307 OFFCURVE",
"287 1336 CURVE",
"287 1400 LINE",
"474 1381 OFFCURVE",
"649 1374 OFFCURVE",
"833 1374 CURVE SMOOTH",
"893 1374 OFFCURVE",
"962 1375 OFFCURVE",
"1031 1377 CURVE SMOOTH",
"1100 1379 OFFCURVE",
"1169 1380 OFFCURVE",
"1229 1383 CURVE",
"1224 1360 OFFCURVE",
"1220 1342 OFFCURVE",
"1217 1329 CURVE SMOOTH",
"1214 1316 OFFCURVE",
"1213 1309 OFFCURVE",
"1213 1308 CURVE",
"1212 1305 OFFCURVE",
"1212 1303 OFFCURVE",
"1212 1300 CURVE SMOOTH",
"1212 1297 OFFCURVE",
"1212 1293 OFFCURVE",
"1211 1290 CURVE",
"1209 1274 OFFCURVE",
"1207 1254 OFFCURVE",
"1204 1231 CURVE SMOOTH",
"1201 1208 OFFCURVE",
"1198 1188 OFFCURVE",
"1196 1172 CURVE",
"1047 1004 OFFCURVE",
"908 838 OFFCURVE",
"764 666 CURVE",
"761 661 OFFCURVE",
"757 657 OFFCURVE",
"753 653 CURVE",
"749 648 OFFCURVE",
"745 643 OFFCURVE",
"741 638 CURVE SMOOTH",
"730 625 OFFCURVE",
"718 611 OFFCURVE",
"705 596 CURVE SMOOTH",
"680 567 OFFCURVE",
"649 530 OFFCURVE",
"633 510 CURVE SMOOTH",
"616 489 OFFCURVE",
"603 473 OFFCURVE",
"587 454 CURVE SMOOTH",
"578 444 OFFCURVE",
"567 430 OFFCURVE",
"552 413 CURVE",
"658 413 LINE SMOOTH",
"826 413 OFFCURVE",
"1000 410 OFFCURVE",
"1167 402 CURVE",
"1167 394 OFFCURVE",
"1167 384 OFFCURVE",
"1167 371 CURVE",
"1166 346 OFFCURVE",
"1165 317 OFFCURVE",
"1165 292 CURVE SMOOTH",
"1165 279 OFFCURVE",
"1165 269 OFFCURVE",
"1165 261 CURVE SMOOTH",
"1165 193 OFFCURVE",
"1167 129 OFFCURVE",
"1184 69 CURVE"
);
}
);
width = 1369;
}
);
unicode = 005A;
},
{
glyphname = bracketleft;
lastChange = "2012-07-01 20:33:04 +0000";
layers = (
{
layerId = "0F287C55-347F-439B-BC0E-FB0B2C3C2256";
name = Bold;
paths = (
{
closed = 1;
nodes = (
"75 -276 LINE",
"119 0 OFFCURVE",
"161 289 OFFCURVE",
"199 578 CURVE SMOOTH",
"237 866 OFFCURVE",
"271 1155 OFFCURVE",
"296 1434 CURVE",
"392 1399 OFFCURVE",
"499 1388 OFFCURVE",
"608 1388 CURVE SMOOTH",
"629 1388 OFFCURVE",
"667 1389 OFFCURVE",
"687 1390 CURVE",
"687 1385 OFFCURVE",
"684 1367 OFFCURVE",
"681 1351 CURVE",
"677 1334 OFFCURVE",
"674 1317 OFFCURVE",
"674 1313 CURVE",
"673 1306 OFFCURVE",
"672 1298 OFFCURVE",
"672 1291 CURVE",
"671 1283 OFFCURVE",
"670 1277 OFFCURVE",
"669 1272 CURVE",
"669 1273 LINE",
"668 1268 OFFCURVE",
"666 1260 OFFCURVE",
"665 1251 CURVE SMOOTH",
"664 1242 OFFCURVE",
"662 1232 OFFCURVE",
"661 1222 CURVE",
"659 1212 OFFCURVE",
"658 1202 OFFCURVE",
"657 1193 CURVE SMOOTH",
"656 1183 OFFCURVE",
"655 1176 OFFCURVE",
"654 1171 CURVE",
"643 1170 OFFCURVE",
"632 1170 OFFCURVE",
"623 1170 CURVE SMOOTH",
"613 1170 OFFCURVE",
"602 1170 OFFCURVE",
"591 1170 CURVE SMOOTH",
"546 1170 OFFCURVE",
"501 1172 OFFCURVE",
"455 1176 CURVE",
"442 1068 OFFCURVE",
"428 957 OFFCURVE",
"414 843 CURVE SMOOTH",
"399 729 OFFCURVE",
"385 618 OFFCURVE",
"372 511 CURVE SMOOTH",
"359 408 OFFCURVE",
"347 316 OFFCURVE",
"336 224 CURVE SMOOTH",
"324 131 OFFCURVE",
"313 39 OFFCURVE",
"301 -64 CURVE",
"361 -71 OFFCURVE",
"423 -80 OFFCURVE",
"495 -99 CURVE",
"491 -131 OFFCURVE",
"486 -183 OFFCURVE",
"482 -235 CURVE",
"479 -261 OFFCURVE",
"477 -286 OFFCURVE",
"475 -310 CURVE SMOOTH",
"473 -335 OFFCURVE",
"471 -355 OFFCURVE",
"470 -371 CURVE",
"370 -339 OFFCURVE",
"264 -327 OFFCURVE",
"152 -327 CURVE SMOOTH",
"129 -327 OFFCURVE",
"108 -328 OFFCURVE",
"85 -329 CURVE"
);
}
);
width = 747;
}
);
unicode = 005B;
},
{
glyphname = backslash;
lastChange = "2012-07-01 20:33:04 +0000";
layers = (
{
layerId = "0F287C55-347F-439B-BC0E-FB0B2C3C2256";
name = Bold;
paths = (
{
closed = 1;
nodes = (
"317 41 LINE",
"265 269 OFFCURVE",
"221 496 OFFCURVE",
"178 725 CURVE SMOOTH",
"157 834 OFFCURVE",
"132 958 OFFCURVE",
"108 1080 CURVE SMOOTH",
"83 1202 OFFCURVE",
"56 1323 OFFCURVE",
"32 1430 CURVE",
"61 1425 OFFCURVE",
"86 1421 OFFCURVE",
"108 1419 CURVE SMOOTH",
"130 1417 OFFCURVE",
"152 1415 OFFCURVE",
"174 1413 CURVE",
"179 1412 OFFCURVE",
"185 1412 OFFCURVE",
"190 1412 CURVE",
"195 1411 OFFCURVE",
"201 1411 OFFCURVE",
"206 1410 CURVE",
"227 1321 OFFCURVE",
"248 1224 OFFCURVE",
"268 1126 CURVE SMOOTH",
"288 1028 OFFCURVE",
"308 928 OFFCURVE",
"325 839 CURVE SMOOTH",
"343 746 LINE SMOOTH",
"346 727 OFFCURVE",
"350 707 OFFCURVE",
"355 688 CURVE",
"359 669 OFFCURVE",
"363 649 OFFCURVE",
"366 630 CURVE",
"385 534 OFFCURVE",
"408 421 OFFCURVE",
"432 309 CURVE SMOOTH",
"456 196 OFFCURVE",
"480 84 OFFCURVE",
"503 -8 CURVE",
"448 0 OFFCURVE",
"395 6 OFFCURVE",
"350 6 CURVE SMOOTH",
"348 6 OFFCURVE",
"346 6 OFFCURVE",
"344 6 CURVE",
"341 5 OFFCURVE",
"339 5 OFFCURVE",
"338 5 CURVE SMOOTH",
"327 5 LINE"
);
}
);
width = 533;
}
);
unicode = 005C;
},
{
glyphname = bracketright;
lastChange = "2012-07-01 20:33:04 +0000";
layers = (
{
layerId = "0F287C55-347F-439B-BC0E-FB0B2C3C2256";
name = Bold;
paths = (
{
closed = 1;
nodes = (
"65 -268 LINE",
"80 -233 OFFCURVE",
"83 -202 OFFCURVE",
"86 -170 CURVE SMOOTH",
"100 -61 LINE",
"159 -61 LINE SMOOTH",
"204 -61 OFFCURVE",
"253 -63 OFFCURVE",
"298 -66 CURVE",
"303 -15 OFFCURVE",
"308 39 OFFCURVE",
"314 94 CURVE SMOOTH",
"320 149 OFFCURVE",
"326 205 OFFCURVE",
"332 261 CURVE SMOOTH",
"338 317 OFFCURVE",
"344 373 OFFCURVE",
"350 428 CURVE SMOOTH",
"356 483 OFFCURVE",
"362 535 OFFCURVE",
"367 585 CURVE SMOOTH",
"373 638 OFFCURVE",
"379 688 OFFCURVE",
"384 737 CURVE SMOOTH",
"389 785 OFFCURVE",
"395 833 OFFCURVE",
"400 880 CURVE SMOOTH",
"411 975 OFFCURVE",
"420 1071 OFFCURVE",
"431 1176 CURVE",
"371 1181 OFFCURVE",
"310 1192 OFFCURVE",
"234 1212 CURVE",
"241 1263 OFFCURVE",
"245 1295 OFFCURVE",
"246 1310 CURVE",
"247 1315 OFFCURVE",
"247 1321 OFFCURVE",
"247 1326 CURVE SMOOTH",
"247 1331 OFFCURVE",
"247 1336 OFFCURVE",
"247 1341 CURVE SMOOTH",
"247 1346 OFFCURVE",
"247 1353 OFFCURVE",
"248 1362 CURVE",
"248 1371 OFFCURVE",
"248 1380 OFFCURVE",
"248 1389 CURVE SMOOTH",
"248 1398 OFFCURVE",
"248 1407 OFFCURVE",
"249 1416 CURVE",
"249 1424 OFFCURVE",
"249 1430 OFFCURVE",
"249 1434 CURVE",
"349 1403 OFFCURVE",
"457 1391 OFFCURVE",
"566 1391 CURVE SMOOTH",
"586 1391 OFFCURVE",
"622 1392 OFFCURVE",
"642 1393 CURVE",
"594 987 LINE SMOOTH",
"567 767 OFFCURVE",
"541 537 OFFCURVE",
"517 307 CURVE SMOOTH",
"493 77 OFFCURVE",
"472 -153 OFFCURVE",
"457 -370 CURVE",
"357 -339 OFFCURVE",
"250 -330 OFFCURVE",
"137 -330 CURVE SMOOTH",
"126 -330 OFFCURVE",
"115 -330 OFFCURVE",
"105 -330 CURVE SMOOTH",
"94 -330 OFFCURVE",
"84 -330 OFFCURVE",
"73 -331 CURVE"
);
}
);
width = 724;
}
);
unicode = 005D;
},
{
glyphname = asciicircum;
lastChange = "2012-07-01 20:33:04 +0000";
layers = (
{
layerId = "0F287C55-347F-439B-BC0E-FB0B2C3C2256";
name = Bold;
paths = (
{
closed = 1;
nodes = (
"762 644 LINE",
"723 757 OFFCURVE",
"690 877 OFFCURVE",
"657 994 CURVE SMOOTH",
"636 1074 OFFCURVE",
"615 1146 OFFCURVE",
"591 1223 CURVE",
"590 1222 OFFCURVE",
"589 1220 OFFCURVE",
"588 1218 CURVE",
"587 1215 OFFCURVE",
"586 1213 OFFCURVE",
"585 1211 CURVE SMOOTH",
"578 1198 OFFCURVE",
"572 1184 OFFCURVE",
"566 1169 CURVE",
"559 1154 OFFCURVE",
"553 1142 OFFCURVE",
"548 1131 CURVE SMOOTH",
"511 1047 OFFCURVE",
"470 955 OFFCURVE",
"427 866 CURVE SMOOTH",
"384 777 OFFCURVE",
"340 689 OFFCURVE",
"299 613 CURVE",
"283 612 OFFCURVE",
"265 612 OFFCURVE",
"244 611 CURVE SMOOTH",
"223 610 OFFCURVE",
"201 609 OFFCURVE",
"179 608 CURVE SMOOTH",
"157 607 OFFCURVE",
"136 605 OFFCURVE",
"115 604 CURVE SMOOTH",
"94 603 OFFCURVE",
"75 602 OFFCURVE",
"59 601 CURVE",
"160 744 OFFCURVE",
"238 867 OFFCURVE",
"303 980 CURVE SMOOTH",
"367 1092 OFFCURVE",
"420 1195 OFFCURVE",
"473 1299 CURVE SMOOTH",
"500 1351 LINE",
"503 1351 OFFCURVE",
"506 1351 OFFCURVE",
"509 1351 CURVE",
"512 1350 OFFCURVE",
"515 1350 OFFCURVE",
"519 1350 CURVE SMOOTH",
"538 1350 LINE",
"556 1349 OFFCURVE",
"574 1349 OFFCURVE",
"592 1349 CURVE SMOOTH",
"610 1349 OFFCURVE",
"628 1349 OFFCURVE",
"646 1349 CURVE SMOOTH",
"681 1349 LINE",
"696 1317 OFFCURVE",
"712 1279 OFFCURVE",
"728 1240 CURVE SMOOTH",
"744 1200 OFFCURVE",
"760 1162 OFFCURVE",
"773 1130 CURVE SMOOTH",
"776 1123 OFFCURVE",
"779 1115 OFFCURVE",
"782 1108 CURVE SMOOTH",
"785 1101 OFFCURVE",
"787 1093 OFFCURVE",
"790 1086 CURVE",
"815 1021 OFFCURVE",
"844 954 OFFCURVE",
"880 876 CURVE SMOOTH",
"916 798 OFFCURVE",
"961 709 OFFCURVE",
"1024 602 CURVE",
"1010 603 OFFCURVE",
"994 604 OFFCURVE",
"976 605 CURVE SMOOTH",
"939 607 OFFCURVE",
"900 609 OFFCURVE",
"865 610 CURVE SMOOTH",
"847 611 OFFCURVE",
"832 611 OFFCURVE",
"819 612 CURVE",
"815 612 OFFCURVE",
"810 612 OFFCURVE",
"805 613 CURVE",
"800 613 OFFCURVE",
"795 613 OFFCURVE",
"791 613 CURVE SMOOTH",
"780 613 LINE SMOOTH",
"779 613 OFFCURVE",
"777 613 OFFCURVE",
"776 614 CURVE",
"774 614 OFFCURVE",
"772 614 OFFCURVE",
"770 614 CURVE"
);
}
);
width = 1102;
}
);
unicode = 005E;
},
{
glyphname = underscore;
lastChange = "2012-07-01 20:33:04 +0000";
layers = (
{
layerId = "0F287C55-347F-439B-BC0E-FB0B2C3C2256";
name = Bold;
paths = (
{
closed = 1;
nodes = (
"212 -326 LINE SMOOTH",
"221 -310 OFFCURVE",
"225 -289 OFFCURVE",
"225 -271 CURVE SMOOTH",
"225 -262 OFFCURVE",
"225 -254 OFFCURVE",
"224 -247 CURVE SMOOTH",
"223 -240 OFFCURVE",
"223 -234 OFFCURVE",
"223 -230 CURVE SMOOTH",
"223 -227 OFFCURVE",
"218 -216 OFFCURVE",
"207 -198 CURVE SMOOTH",
"196 -180 OFFCURVE",
"180 -156 OFFCURVE",
"160 -126 CURVE",
"203 -126 OFFCURVE",
"247 -126 OFFCURVE",
"293 -126 CURVE SMOOTH",
"339 -127 OFFCURVE",
"386 -127 OFFCURVE",
"433 -127 CURVE SMOOTH",
"480 -128 OFFCURVE",
"526 -128 OFFCURVE",
"572 -128 CURVE SMOOTH",
"618 -129 OFFCURVE",
"663 -129 OFFCURVE",
"706 -129 CURVE SMOOTH",
"752 -129 OFFCURVE",
"802 -129 OFFCURVE",
"856 -128 CURVE SMOOTH",
"909 -128 OFFCURVE",
"964 -128 OFFCURVE",
"1019 -127 CURVE SMOOTH",
"1074 -127 OFFCURVE",
"1128 -127 OFFCURVE",
"1182 -126 CURVE SMOOTH",
"1235 -126 OFFCURVE",
"1285 -126 OFFCURVE",
"1332 -126 CURVE",
"1305 -159 OFFCURVE",
"1283 -185 OFFCURVE",
"1268 -204 CURVE SMOOTH",
"1253 -224 OFFCURVE",
"1245 -235 OFFCURVE",
"1244 -237 CURVE",
"1243 -241 OFFCURVE",
"1242 -243 OFFCURVE",
"1242 -244 CURVE SMOOTH",
"1242 -245 OFFCURVE",
"1242 -247 OFFCURVE",
"1242 -248 CURVE SMOOTH",
"1242 -251 OFFCURVE",
"1247 -261 OFFCURVE",
"1258 -278 CURVE SMOOTH",
"1269 -295 OFFCURVE",
"1285 -319 OFFCURVE",
"1308 -351 CURVE",
"1217 -350 OFFCURVE",
"1119 -349 OFFCURVE",
"1020 -348 CURVE SMOOTH",
"970 -348 OFFCURVE",
"921 -348 OFFCURVE",
"872 -347 CURVE SMOOTH",
"823 -347 OFFCURVE",
"775 -347 OFFCURVE",
"730 -347 CURVE SMOOTH",
"547 -347 OFFCURVE",
"369 -347 OFFCURVE",
"189 -366 CURVE"
);
}
);
width = 1465;
}
);
unicode = 005F;
},
{
glyphname = grave;
lastChange = "2012-07-01 20:33:04 +0000";
layers = (
{
anchors = (
{
name = _top;
position = "{239, 1094}";
}
);
layerId = "0F287C55-347F-439B-BC0E-FB0B2C3C2256";
name = Bold;
paths = (
{
closed = 1;
nodes = (
"433 1070 LINE",
"397 1073 OFFCURVE",
"366 1074 OFFCURVE",
"330 1075 CURVE",
"329 1083 LINE",
"311 1098 OFFCURVE",
"289 1117 OFFCURVE",
"264 1141 CURVE SMOOTH",
"239 1164 OFFCURVE",
"212 1189 OFFCURVE",
"184 1214 CURVE SMOOTH",
"140 1255 LINE",
"140 1254 LINE",
"112 1281 OFFCURVE",
"83 1307 OFFCURVE",
"54 1334 CURVE",
"45 1451 LINE",
"79 1450 OFFCURVE",
"112 1448 OFFCURVE",
"143 1447 CURVE SMOOTH",
"174 1446 OFFCURVE",
"207 1445 OFFCURVE",
"241 1445 CURVE",
"266 1410 OFFCURVE",
"300 1359 OFFCURVE",
"323 1324 CURVE",
"323 1325 LINE",
"326 1321 OFFCURVE",
"329 1316 OFFCURVE",
"332 1311 CURVE",
"335 1305 OFFCURVE",
"337 1300 OFFCURVE",
"340 1295 CURVE",
"350 1276 LINE",
"349 1281 LINE",
"360 1266 OFFCURVE",
"371 1249 OFFCURVE",
"383 1232 CURVE",
"394 1215 OFFCURVE",
"409 1194 OFFCURVE",
"428 1169 CURVE",
"428 1168 OFFCURVE",
"428 1165 OFFCURVE",
"428 1160 CURVE SMOOTH",
"428 1155 OFFCURVE",
"428 1151 OFFCURVE",
"429 1147 CURVE",
"430 1144 OFFCURVE",
"430 1142 OFFCURVE",
"431 1141 CURVE",
"431 1139 OFFCURVE",
"431 1137 OFFCURVE",
"432 1135 CURVE"
);
}
);
width = 506;
}
);
unicode = 0060;
},
{
glyphname = a;
lastChange = "2012-07-01 20:33:04 +0000";
layers = (
{
anchors = (
{
name = ogonek;
position = "{1040, 10}";
},
{
name = top;
position = "{578, 1094}";
}
);
layerId = "0F287C55-347F-439B-BC0E-FB0B2C3C2256";
name = Bold;
paths = (
{
closed = 1;
nodes = (
"313 8 OFFCURVE",
"237 21 OFFCURVE",
"177 82 CURVE SMOOTH",
"134 126 OFFCURVE",
"121 195 OFFCURVE",
"121 267 CURVE SMOOTH",
"121 290 OFFCURVE",
"123 312 OFFCURVE",
"126 332 CURVE",
"126 337 LINE",
"127 346 OFFCURVE",
"129 355 OFFCURVE",
"130 364 CURVE SMOOTH",
"131 372 OFFCURVE",
"132 379 OFFCURVE",
"134 384 CURVE",
"133 378 LINE",
"142 426 OFFCURVE",
"159 474 OFFCURVE",
"183 516 CURVE SMOOTH",
"207 558 OFFCURVE",
"239 592 OFFCURVE",
"276 613 CURVE",
"384 666 OFFCURVE",
"474 678 OFFCURVE",
"554 678 CURVE SMOOTH",
"766 678 LINE",
"767 685 OFFCURVE",
"767 692 OFFCURVE",
"768 698 CURVE",
"768 704 OFFCURVE",
"768 710 OFFCURVE",
"769 717 CURVE SMOOTH",
"770 725 OFFCURVE",
"771 733 OFFCURVE",
"771 738 CURVE SMOOTH",
"771 769 OFFCURVE",
"764 802 OFFCURVE",
"740 834 CURVE",
"740 831 LINE",
"708 868 OFFCURVE",
"648 876 OFFCURVE",
"584 877 CURVE SMOOTH",
"567 877 LINE SMOOTH",
"523 877 OFFCURVE",
"481 874 OFFCURVE",
"446 859 CURVE",
"447 859 LINE",
"387 828 OFFCURVE",
"365 776 OFFCURVE",
"357 729 CURVE",
"344 730 OFFCURVE",
"333 732 OFFCURVE",
"322 734 CURVE",
"311 735 OFFCURVE",
"301 737 OFFCURVE",
"290 738 CURVE",
"287 739 OFFCURVE",
"283 739 OFFCURVE",
"280 740 CURVE",
"276 740 OFFCURVE",
"273 740 OFFCURVE",
"270 741 CURVE",
"262 743 OFFCURVE",
"256 744 OFFCURVE",
"253 745 CURVE SMOOTH",
"250 746 OFFCURVE",
"247 746 OFFCURVE",
"246 746 CURVE SMOOTH",
"244 746 OFFCURVE",
"243 746 OFFCURVE",
"242 746 CURVE SMOOTH",
"241 746 OFFCURVE",
"239 746 OFFCURVE",
"236 747 CURVE SMOOTH",
"233 748 OFFCURVE",
"230 748 OFFCURVE",
"227 748 CURVE SMOOTH",
"224 748 OFFCURVE",
"220 748 OFFCURVE",
"215 749 CURVE",
"195 749 LINE",
"203 806 OFFCURVE",
"222 866 OFFCURVE",
"247 917 CURVE SMOOTH",
"272 968 OFFCURVE",
"305 1008 OFFCURVE",
"341 1027 CURVE",
"425 1062 OFFCURVE",
"508 1072 OFFCURVE",
"572 1072 CURVE SMOOTH",
"588 1072 LINE SMOOTH",
"664 1072 OFFCURVE",
"741 1058 OFFCURVE",
"814 1019 CURVE",
"855 994 OFFCURVE",
"884 956 OFFCURVE",
"903 912 CURVE SMOOTH",
"922 867 OFFCURVE",
"930 815 OFFCURVE",
"930 760 CURVE SMOOTH",
"930 741 OFFCURVE",
"929 724 OFFCURVE",
"928 708 CURVE",
"928 709 LINE",
"917 594 OFFCURVE",
"908 480 OFFCURVE",
"901 365 CURVE",
"901 362 OFFCURVE",
"901 360 OFFCURVE",
"902 358 CURVE",
"902 356 OFFCURVE",
"902 354 OFFCURVE",
"902 353 CURVE",
"905 326 OFFCURVE",
"905 303 OFFCURVE",
"916 272 CURVE",
"923 264 OFFCURVE",
"949 258 OFFCURVE",
"980 258 CURVE SMOOTH",
"991 258 LINE SMOOTH",
"1002 258 OFFCURVE",
"1016 259 OFFCURVE",
"1033 261 CURVE",
"1033 186 LINE SMOOTH",
"1033 163 OFFCURVE",
"1034 133 OFFCURVE",
"1035 101 CURVE SMOOTH",
"1036 85 OFFCURVE",
"1037 70 OFFCURVE",
"1038 55 CURVE SMOOTH",
"1039 40 OFFCURVE",
"1039 27 OFFCURVE",
"1040 16 CURVE",
"1006 10 OFFCURVE",
"979 7 OFFCURVE",
"958 7 CURVE SMOOTH",
"947 7 OFFCURVE",
"931 8 OFFCURVE",
"920 9 CURVE",
"910 9 LINE SMOOTH",
"862 9 OFFCURVE",
"822 32 OFFCURVE",
"794 69 CURVE SMOOTH",
"765 105 OFFCURVE",
"747 155 OFFCURVE",
"743 210 CURVE",
"732 210 LINE",
"700 150 OFFCURVE",
"649 100 OFFCURVE",
"590 64 CURVE SMOOTH",
"530 28 OFFCURVE",
"463 7 OFFCURVE",
"403 7 CURVE SMOOTH",
"393 7 LINE SMOOTH",
"392 7 OFFCURVE",
"390 7 OFFCURVE",
"388 8 CURVE",
"386 8 OFFCURVE",
"384 8 OFFCURVE",
"382 8 CURVE SMOOTH"
);
},
{
closed = 1;
nodes = (
"481 328 OFFCURVE",
"533 334 OFFCURVE",
"576 357 CURVE",
"623 380 OFFCURVE",
"664 403 OFFCURVE",
"683 422 CURVE",
"707 449 OFFCURVE",
"720 469 OFFCURVE",
"723 484 CURVE",
"723 476 LINE",
"723 478 OFFCURVE",
"723 480 OFFCURVE",
"724 483 CURVE",
"724 485 OFFCURVE",
"724 486 OFFCURVE",
"724 487 CURVE",
"725 492 OFFCURVE",
"726 498 OFFCURVE",
"727 503 CURVE SMOOTH",
"728 508 OFFCURVE",
"728 509 OFFCURVE",
"728 508 CURVE",
"728 513 OFFCURVE",
"728 516 OFFCURVE",
"729 518 CURVE",
"729 519 OFFCURVE",
"729 521 OFFCURVE",
"729 522 CURVE SMOOTH",
"729 523 OFFCURVE",
"729 525 OFFCURVE",
"729 528 CURVE SMOOTH",
"729 530 OFFCURVE",
"729 534 OFFCURVE",
"730 540 CURVE",
"575 540 LINE SMOOTH",
"574 540 OFFCURVE",
"572 540 OFFCURVE",
"571 540 CURVE",
"569 539 OFFCURVE",
"567 539 OFFCURVE",
"566 539 CURVE SMOOTH",
"558 539 LINE",
"510 536 OFFCURVE",
"459 532 OFFCURVE",
"414 517 CURVE",
"343 498 OFFCURVE",
"301 448 OFFCURVE",
"290 403 CURVE",
"289 398 OFFCURVE",
"288 395 OFFCURVE",
"288 394 CURVE",
"287 393 OFFCURVE",
"287 390 OFFCURVE",
"286 385 CURVE",
"289 368 OFFCURVE",
"297 351 OFFCURVE",
"322 336 CURVE",
"321 339 LINE",
"348 328 OFFCURVE",
"387 327 OFFCURVE",
"426 327 CURVE SMOOTH"
);
}
);
width = 1156;
}
);
unicode = 0061;
},
{
glyphname = b;
lastChange = "2012-07-01 20:33:04 +0000";
layers = (
{
layerId = "0F287C55-347F-439B-BC0E-FB0B2C3C2256";
name = Bold;
paths = (
{
closed = 1;
nodes = (
"995 546 LINE SMOOTH",
"995 545 OFFCURVE",
"995 544 OFFCURVE",
"995 541 CURVE",
"994 538 OFFCURVE",
"994 536 OFFCURVE",
"994 534 CURVE",
"991 512 LINE SMOOTH",
"988 487 OFFCURVE",
"984 461 OFFCURVE",
"981 435 CURVE SMOOTH",
"974 382 OFFCURVE",
"963 332 OFFCURVE",
"947 276 CURVE SMOOTH",
"930 220 OFFCURVE",
"905 162 OFFCURVE",
"862 116 CURVE SMOOTH",
"818 70 OFFCURVE",
"769 40 OFFCURVE",
"717 25 CURVE SMOOTH",
"691 18 OFFCURVE",
"666 14 OFFCURVE",
"642 14 CURVE SMOOTH",
"639 14 OFFCURVE",
"634 14 OFFCURVE",
"629 14 CURVE SMOOTH",
"624 14 OFFCURVE",
"619 14 OFFCURVE",
"615 15 CURVE",
"608 15 LINE SMOOTH",
"549 15 OFFCURVE",
"492 32 OFFCURVE",
"441 65 CURVE SMOOTH",
"389 97 OFFCURVE",
"343 145 OFFCURVE",
"310 205 CURVE",
"307 188 OFFCURVE",
"304 168 OFFCURVE",
"301 159 CURVE",
"300 144 OFFCURVE",
"298 133 OFFCURVE",
"296 125 CURVE",
"296 126 LINE",
"296 123 OFFCURVE",
"296 119 OFFCURVE",
"295 115 CURVE SMOOTH",
"294 111 OFFCURVE",
"293 107 OFFCURVE",
"292 104 CURVE",
"291 95 OFFCURVE",
"289 84 OFFCURVE",
"288 71 CURVE",
"286 58 OFFCURVE",
"284 44 OFFCURVE",
"281 30 CURVE",
"256 29 OFFCURVE",
"228 27 OFFCURVE",
"197 26 CURVE SMOOTH",
"166 25 OFFCURVE",
"137 23 OFFCURVE",
"112 21 CURVE",
"125 78 OFFCURVE",
"134 119 OFFCURVE",
"139 149 CURVE SMOOTH",
"142 164 OFFCURVE",
"144 177 OFFCURVE",
"145 188 CURVE SMOOTH",
"146 199 OFFCURVE",
"148 209 OFFCURVE",
"149 219 CURVE",
"150 222 OFFCURVE",
"150 224 OFFCURVE",
"150 225 CURVE",
"149 226 OFFCURVE",
"149 229 OFFCURVE",
"150 232 CURVE",
"151 240 OFFCURVE",
"154 257 OFFCURVE",
"154 264 CURVE",
"163 325 OFFCURVE",
"171 387 OFFCURVE",
"179 451 CURVE SMOOTH",
"200 608 OFFCURVE",
"223 769 OFFCURVE",
"241 933 CURVE SMOOTH",
"259 1097 OFFCURVE",
"272 1265 OFFCURVE",
"277 1441 CURVE",
"313 1436 OFFCURVE",
"353 1432 OFFCURVE",
"386 1429 CURVE SMOOTH",
"396 1428 OFFCURVE",
"407 1427 OFFCURVE",
"419 1426 CURVE",
"420 1426 OFFCURVE",
"420 1426 OFFCURVE",
"421 1426 CURVE",
"422 1425 OFFCURVE",
"422 1425 OFFCURVE",
"423 1425 CURVE SMOOTH",
"440 1425 LINE",
"437 1393 OFFCURVE",
"433 1359 OFFCURVE",
"430 1323 CURVE SMOOTH",
"423 1250 OFFCURVE",
"416 1174 OFFCURVE",
"408 1102 CURVE SMOOTH",
"403 1065 OFFCURVE",
"399 1031 OFFCURVE",
"395 999 CURVE",
"395 966 OFFCURVE",
"392 937 OFFCURVE",
"387 908 CURVE",
"388 908 LINE",
"380 877 LINE",
"403 942 OFFCURVE",
"445 994 OFFCURVE",
"494 1027 CURVE SMOOTH",
"543 1060 OFFCURVE",
"599 1078 OFFCURVE",
"651 1078 CURVE SMOOTH",
"654 1078 OFFCURVE",
"659 1078 OFFCURVE",
"664 1078 CURVE SMOOTH",
"669 1078 OFFCURVE",
"673 1078 OFFCURVE",
"677 1077 CURVE",
"683 1077 LINE SMOOTH",
"779 1077 OFFCURVE",
"875 1033 OFFCURVE",
"930 938 CURVE SMOOTH",
"958 887 OFFCURVE",
"973 829 OFFCURVE",
"982 767 CURVE SMOOTH",
"986 736 OFFCURVE",
"989 704 OFFCURVE",
"990 672 CURVE SMOOTH",
"991 640 OFFCURVE",
"993 608 OFFCURVE",
"994 577 CURVE SMOOTH"
);
},
{
closed = 1;
nodes = (
"891 632 LINE SMOOTH",
"891 705 OFFCURVE",
"887 780 OFFCURVE",
"846 848 CURVE SMOOTH",
"834 867 OFFCURVE",
"812 880 OFFCURVE",
"784 888 CURVE SMOOTH",
"756 896 OFFCURVE",
"722 900 OFFCURVE",
"689 900 CURVE SMOOTH",
"676 900 LINE SMOOTH",
"640 900 OFFCURVE",
"600 895 OFFCURVE",
"565 884 CURVE SMOOTH",
"529 872 OFFCURVE",
"497 854 OFFCURVE",
"477 827 CURVE",
"477 829 LINE",
"442 780 OFFCURVE",
"428 739 OFFCURVE",
"421 706 CURVE SMOOTH",
"413 670 OFFCURVE",
"411 641 OFFCURVE",
"408 617 CURVE SMOOTH",
"407 606 OFFCURVE",
"406 596 OFFCURVE",
"406 586 CURVE SMOOTH",
"406 575 OFFCURVE",
"406 566 OFFCURVE",
"406 557 CURVE SMOOTH",
"406 517 OFFCURVE",
"411 476 OFFCURVE",
"434 433 CURVE SMOOTH",
"450 402 OFFCURVE",
"479 384 OFFCURVE",
"515 372 CURVE SMOOTH",
"551 360 OFFCURVE",
"593 356 OFFCURVE",
"636 356 CURVE SMOOTH",
"641 356 LINE SMOOTH",
"673 356 OFFCURVE",
"708 359 OFFCURVE",
"738 368 CURVE SMOOTH",
"768 376 OFFCURVE",
"794 389 OFFCURVE",
"811 412 CURVE SMOOTH",
"851 465 OFFCURVE",
"866 517 OFFCURVE",
"877 562 CURVE SMOOTH",
"881 579 OFFCURVE",
"884 593 OFFCURVE",
"887 612 CURVE",
"888 615 OFFCURVE",
"888 619 OFFCURVE",
"889 622 CURVE SMOOTH",
"890 625 OFFCURVE",
"890 628 OFFCURVE",
"891 631 CURVE",
"891 626 LINE",
"891 631 LINE"
);
}
);
width = 1066;
}
);
unicode = 0062;
},
{
glyphname = c;
lastChange = "2012-07-01 20:33:04 +0000";
layers = (
{
anchors = (
{
name = bottom;
position = "{506, 0}";
},
{
name = top;
position = "{506, 1094}";
}
);
layerId = "0F287C55-347F-439B-BC0E-FB0B2C3C2256";
name = Bold;
paths = (
{
closed = 1;
nodes = (
"293 542 LINE SMOOTH",
"293 539 OFFCURVE",
"293 537 OFFCURVE",
"293 534 CURVE",
"292 531 OFFCURVE",
"292 529 OFFCURVE",
"292 526 CURVE SMOOTH",
"292 510 LINE SMOOTH",
"292 466 OFFCURVE",
"303 419 OFFCURVE",
"344 382 CURVE",
"343 384 LINE",
"382 356 OFFCURVE",
"448 339 OFFCURVE",
"513 339 CURVE SMOOTH",
"522 339 LINE SMOOTH",
"523 339 OFFCURVE",
"524 339 OFFCURVE",
"525 340 CURVE",
"526 340 OFFCURVE",
"528 340 OFFCURVE",
"529 340 CURVE",
"548 341 OFFCURVE",
"568 343 OFFCURVE",
"587 344 CURVE SMOOTH",
"606 345 OFFCURVE",
"621 346 OFFCURVE",
"632 347 CURVE",
"631 347 LINE",
"670 354 OFFCURVE",
"690 373 OFFCURVE",
"707 390 CURVE",
"734 366 OFFCURVE",
"767 332 OFFCURVE",
"800 299 CURVE SMOOTH",
"816 282 OFFCURVE",
"832 266 OFFCURVE",
"848 250 CURVE SMOOTH",
"863 234 OFFCURVE",
"877 220 OFFCURVE",
"890 207 CURVE",
"858 172 OFFCURVE",
"826 137 OFFCURVE",
"796 107 CURVE SMOOTH",
"766 77 OFFCURVE",
"740 52 OFFCURVE",
"721 43 CURVE SMOOTH",
"656 12 OFFCURVE",
"603 11 OFFCURVE",
"548 10 CURVE SMOOTH",
"543 10 LINE SMOOTH",
"537 10 OFFCURVE",
"530 10 OFFCURVE",
"522 10 CURVE SMOOTH",
"514 10 OFFCURVE",
"507 10 OFFCURVE",
"501 9 CURVE",
"446 10 OFFCURVE",
"391 20 OFFCURVE",
"341 38 CURVE SMOOTH",
"291 56 OFFCURVE",
"246 83 OFFCURVE",
"214 123 CURVE",
"149 222 OFFCURVE",
"127 341 OFFCURVE",
"127 458 CURVE SMOOTH",
"127 489 OFFCURVE",
"127 520 OFFCURVE",
"130 547 CURVE SMOOTH",
"135 600 OFFCURVE",
"142 658 OFFCURVE",
"151 705 CURVE",
"170 784 OFFCURVE",
"193 857 OFFCURVE",
"230 914 CURVE",
"275 974 OFFCURVE",
"328 1013 OFFCURVE",
"383 1038 CURVE SMOOTH",
"438 1062 OFFCURVE",
"493 1071 OFFCURVE",
"544 1071 CURVE SMOOTH",
"561 1071 LINE SMOOTH",
"637 1070 OFFCURVE",
"721 1053 OFFCURVE",
"789 1002 CURVE",
"829 969 OFFCURVE",
"872 901 OFFCURVE",
"911 804 CURVE",
"856 771 LINE SMOOTH",
"845 764 OFFCURVE",
"832 757 OFFCURVE",
"820 750 CURVE SMOOTH",
"813 746 OFFCURVE",
"805 742 OFFCURVE",
"797 738 CURVE",
"788 733 OFFCURVE",
"781 729 OFFCURVE",
"774 725 CURVE",
"753 765 OFFCURVE",
"726 803 OFFCURVE",
"690 838 CURVE",
"690 837 LINE",
"663 864 OFFCURVE",
"611 872 OFFCURVE",
"552 872 CURVE SMOOTH",
"544 872 LINE SMOOTH",
"509 872 OFFCURVE",
"472 868 OFFCURVE",
"440 858 CURVE SMOOTH",
"408 848 OFFCURVE",
"379 830 OFFCURVE",
"363 805 CURVE SMOOTH",
"332 760 OFFCURVE",
"317 721 OFFCURVE",
"310 685 CURVE SMOOTH",
"306 666 OFFCURVE",
"303 649 OFFCURVE",
"302 635 CURVE",
"300 621 OFFCURVE",
"298 607 OFFCURVE",
"296 593 CURVE",
"296 594 LINE",
"295 589 OFFCURVE",
"295 585 OFFCURVE",
"295 580 CURVE",
"294 575 OFFCURVE",
"294 570 OFFCURVE",
"293 565 CURVE"
);
}
);
width = 1012;
}
);
unicode = 0063;
},
{
glyphname = d;
lastChange = "2012-07-01 20:33:04 +0000";
layers = (
{
anchors = (
{
name = center;
position = "{552, 547}";
}
);
layerId = "0F287C55-347F-439B-BC0E-FB0B2C3C2256";
name = Bold;
paths = (
{
closed = 1;
nodes = (
"672 181 LINE",
"653 126 OFFCURVE",
"613 85 OFFCURVE",
"564 58 CURVE SMOOTH",
"515 30 OFFCURVE",
"459 16 OFFCURVE",
"408 16 CURVE SMOOTH",
"381 16 LINE",
"374 16 LINE SMOOTH",
"327 16 OFFCURVE",
"281 25 OFFCURVE",
"238 44 CURVE SMOOTH",
"195 63 OFFCURVE",
"158 90 OFFCURVE",
"130 126 CURVE",
"73 229 OFFCURVE",
"59 348 OFFCURVE",
"59 461 CURVE SMOOTH",
"59 488 OFFCURVE",
"60 519 OFFCURVE",
"61 546 CURVE",
"68 595 OFFCURVE",
"74 642 OFFCURVE",
"83 687 CURVE SMOOTH",
"98 754 OFFCURVE",
"118 820 OFFCURVE",
"143 876 CURVE",
"175 940 OFFCURVE",
"220 990 OFFCURVE",
"271 1025 CURVE SMOOTH",
"322 1060 OFFCURVE",
"376 1078 OFFCURVE",
"425 1078 CURVE SMOOTH",
"428 1078 OFFCURVE",
"432 1078 OFFCURVE",
"436 1078 CURVE SMOOTH",
"440 1078 OFFCURVE",
"444 1078 OFFCURVE",
"447 1077 CURVE",
"459 1077 LINE SMOOTH",
"512 1077 OFFCURVE",
"566 1062 OFFCURVE",
"611 1034 CURVE SMOOTH",
"655 1006 OFFCURVE",
"694 964 OFFCURVE",
"718 911 CURVE",
"721 912 OFFCURVE",
"723 913 OFFCURVE",
"726 913 CURVE SMOOTH",
"728 913 OFFCURVE",
"730 914 OFFCURVE",
"733 915 CURVE",
"739 955 OFFCURVE",
"745 997 OFFCURVE",
"752 1040 CURVE SMOOTH",
"764 1126 OFFCURVE",
"779 1213 OFFCURVE",
"793 1298 CURVE SMOOTH",
"800 1340 OFFCURVE",
"806 1380 OFFCURVE",
"813 1419 CURVE",
"872 1421 LINE SMOOTH",
"899 1422 OFFCURVE",
"940 1426 OFFCURVE",
"984 1431 CURVE",
"909 1012 OFFCURVE",
"858 620 OFFCURVE",
"839 248 CURVE SMOOTH",
"836 201 OFFCURVE",
"836 159 OFFCURVE",
"836 112 CURVE SMOOTH",
"836 107 OFFCURVE",
"836 100 OFFCURVE",
"836 91 CURVE SMOOTH",
"836 81 OFFCURVE",
"836 71 OFFCURVE",
"836 60 CURVE",
"835 49 OFFCURVE",
"835 39 OFFCURVE",
"835 30 CURVE SMOOTH",
"835 21 OFFCURVE",
"835 14 OFFCURVE",
"835 9 CURVE",
"803 13 LINE SMOOTH",
"766 17 OFFCURVE",
"722 21 OFFCURVE",
"682 24 CURVE",
"680 51 OFFCURVE",
"679 70 OFFCURVE",
"679 81 CURVE",
"678 92 OFFCURVE",
"678 101 OFFCURVE",
"678 108 CURVE SMOOTH",
"678 134 LINE",
"679 141 OFFCURVE",
"679 146 OFFCURVE",
"680 149 CURVE",
"680 151 OFFCURVE",
"680 153 OFFCURVE",
"680 155 CURVE SMOOTH",
"680 157 OFFCURVE",
"680 160 OFFCURVE",
"681 163 CURVE",
"681 166 OFFCURVE",
"681 172 OFFCURVE",
"681 181 CURVE"
);
},
{
closed = 1;
nodes = (
"185 540 OFFCURVE",
"186 471 OFFCURVE",
"230 414 CURVE",
"229 417 LINE",
"260 384 OFFCURVE",
"325 373 OFFCURVE",
"393 373 CURVE SMOOTH",
"398 373 LINE SMOOTH",
"433 373 OFFCURVE",
"471 375 OFFCURVE",
"505 382 CURVE SMOOTH",
"539 389 OFFCURVE",
"568 400 OFFCURVE",
"588 421 CURVE SMOOTH",
"631 468 OFFCURVE",
"645 505 OFFCURVE",
"653 538 CURVE",
"653 537 LINE",
"661 576 OFFCURVE",
"663 606 OFFCURVE",
"666 634 CURVE SMOOTH",
"667 644 OFFCURVE",
"667 654 OFFCURVE",
"668 664 CURVE SMOOTH",
"669 674 OFFCURVE",
"669 683 OFFCURVE",
"669 692 CURVE SMOOTH",
"669 733 OFFCURVE",
"661 777 OFFCURVE",
"641 821 CURVE",
"641 817 LINE",
"625 846 OFFCURVE",
"597 866 OFFCURVE",
"562 878 CURVE SMOOTH",
"527 890 OFFCURVE",
"487 895 OFFCURVE",
"447 895 CURVE SMOOTH",
"438 895 LINE SMOOTH",
"407 895 OFFCURVE",
"372 891 OFFCURVE",
"341 882 CURVE SMOOTH",
"310 873 OFFCURVE",
"282 857 OFFCURVE",
"266 836 CURVE SMOOTH",
"227 783 OFFCURVE",
"208 731 OFFCURVE",
"199 687 CURVE",
"194 668 OFFCURVE",
"190 641 OFFCURVE",
"187 621 CURVE",
"186 620 OFFCURVE",
"186 618 OFFCURVE",
"186 616 CURVE SMOOTH",
"186 613 OFFCURVE",
"186 611 OFFCURVE",
"186 610 CURVE",
"185 609 OFFCURVE",
"185 608 OFFCURVE",
"185 607 CURVE SMOOTH"
);
}
);
width = 1103;
}
);
unicode = 0064;
},
{
glyphname = e;
lastChange = "2012-07-01 20:33:04 +0000";
layers = (
{
anchors = (
{
name = bottom;
position = "{530, 0}";
},
{
name = ogonek;
position = "{954, 10}";
},
{
name = top;
position = "{530, 1094}";
}
);
layerId = "0F287C55-347F-439B-BC0E-FB0B2C3C2256";
name = Bold;
paths = (
{
closed = 1;
nodes = (
"291 575 LINE",
"292 512 OFFCURVE",
"306 449 OFFCURVE",
"359 408 CURVE SMOOTH",
"415 365 OFFCURVE",
"505 351 OFFCURVE",
"598 347 CURVE",
"637 352 OFFCURVE",
"676 357 OFFCURVE",
"699 365 CURVE",
"699 364 LINE",
"723 372 OFFCURVE",
"750 383 OFFCURVE",
"779 395 CURVE",
"788 398 OFFCURVE",
"797 402 OFFCURVE",
"806 406 CURVE SMOOTH",
"815 410 OFFCURVE",
"824 414 OFFCURVE",
"833 417 CURVE",
"881 436 LINE",
"878 400 OFFCURVE",
"877 354 OFFCURVE",
"875 308 CURVE SMOOTH",
"873 262 OFFCURVE",
"871 217 OFFCURVE",
"871 182 CURVE SMOOTH",
"871 105 LINE",
"811 66 OFFCURVE",
"752 44 OFFCURVE",
"693 31 CURVE SMOOTH",
"633 18 OFFCURVE",
"576 13 OFFCURVE",
"523 9 CURVE",
"467 10 OFFCURVE",
"408 21 OFFCURVE",
"353 42 CURVE SMOOTH",
"298 62 OFFCURVE",
"249 95 OFFCURVE",
"209 140 CURVE",
"178 179 OFFCURVE",
"157 228 OFFCURVE",
"144 281 CURVE SMOOTH",
"131 333 OFFCURVE",
"126 391 OFFCURVE",
"126 448 CURVE SMOOTH",
"126 483 OFFCURVE",
"128 513 OFFCURVE",
"131 544 CURVE SMOOTH",
"138 600 OFFCURVE",
"144 656 OFFCURVE",
"153 701 CURVE SMOOTH",
"172 785 OFFCURVE",
"197 864 OFFCURVE",
"242 924 CURVE",
"291 983 OFFCURVE",
"347 1020 OFFCURVE",
"403 1042 CURVE SMOOTH",
"459 1064 OFFCURVE",
"516 1071 OFFCURVE",
"568 1071 CURVE SMOOTH",
"579 1071 LINE SMOOTH",
"628 1070 OFFCURVE",
"679 1063 OFFCURVE",
"727 1045 CURVE SMOOTH",
"774 1027 OFFCURVE",
"817 998 OFFCURVE",
"853 957 CURVE SMOOTH",
"888 917 OFFCURVE",
"909 866 OFFCURVE",
"921 811 CURVE SMOOTH",
"933 755 OFFCURVE",
"937 696 OFFCURVE",
"937 636 CURVE SMOOTH",
"937 581 LINE",
"773 576 OFFCURVE",
"603 575 OFFCURVE",
"439 575 CURVE SMOOTH"
);
},
{
closed = 1;
nodes = (
"603 739 OFFCURVE",
"645 739 OFFCURVE",
"686 739 CURVE SMOOTH",
"727 739 OFFCURVE",
"768 740 OFFCURVE",
"810 741 CURVE",
"799 776 OFFCURVE",
"778 808 OFFCURVE",
"750 843 CURVE SMOOTH",
"719 882 OFFCURVE",
"651 897 OFFCURVE",
"578 897 CURVE SMOOTH",
"566 897 LINE SMOOTH",
"498 897 OFFCURVE",
"426 879 OFFCURVE",
"387 834 CURVE SMOOTH",
"360 803 OFFCURVE",
"340 769 OFFCURVE",
"325 740 CURVE",
"364 739 OFFCURVE",
"403 739 OFFCURVE",
"444 739 CURVE SMOOTH",
"485 739 OFFCURVE",
"524 739 OFFCURVE",
"562 739 CURVE SMOOTH"
);
},
{
closed = 1;
nodes = (
"814 741 LINE",
"810 741 LINE",
"810 740 OFFCURVE",
"811 738 OFFCURVE",
"812 735 CURVE"
);
}
);
width = 1060;
}
);
unicode = 0065;
},
{
glyphname = f;
lastChange = "2012-07-01 20:33:04 +0000";
layers = (
{
layerId = "0F287C55-347F-439B-BC0E-FB0B2C3C2256";
name = Bold;
paths = (
{
closed = 1;
nodes = (
"398 882 LINE",
"397 833 OFFCURVE",
"395 784 OFFCURVE",
"392 735 CURVE SMOOTH",
"384 547 OFFCURVE",
"379 364 OFFCURVE",
"379 177 CURVE SMOOTH",
"379 168 OFFCURVE",
"379 156 OFFCURVE",
"379 142 CURVE SMOOTH",
"379 113 OFFCURVE",
"380 81 OFFCURVE",
"381 53 CURVE",
"381 38 OFFCURVE",
"381 26 OFFCURVE",
"381 17 CURVE",
"309 30 OFFCURVE",
"235 35 OFFCURVE",
"160 35 CURVE SMOOTH",
"98 35 LINE",
"101 58 OFFCURVE",
"104 85 OFFCURVE",
"108 114 CURVE SMOOTH",
"111 143 OFFCURVE",
"115 172 OFFCURVE",
"119 202 CURVE SMOOTH",
"126 261 OFFCURVE",
"133 320 OFFCURVE",
"140 367 CURVE",
"143 383 OFFCURVE",
"145 398 OFFCURVE",
"146 413 CURVE",
"166 566 OFFCURVE",
"186 724 OFFCURVE",
"205 877 CURVE",
"205 876 LINE",
"206 885 OFFCURVE",
"205 881 OFFCURVE",
"205 878 CURVE SMOOTH",
"205 874 OFFCURVE",
"204 871 OFFCURVE",
"205 880 CURVE",
"190 881 OFFCURVE",
"174 881 OFFCURVE",
"155 882 CURVE SMOOTH",
"136 883 OFFCURVE",
"119 884 OFFCURVE",
"105 885 CURVE",
"116 1088 LINE",
"153 1081 OFFCURVE",
"188 1079 OFFCURVE",
"223 1078 CURVE",
"227 1110 OFFCURVE",
"230 1148 OFFCURVE",
"233 1177 CURVE",
"234 1195 OFFCURVE",
"236 1209 OFFCURVE",
"239 1218 CURVE",
"239 1217 LINE",
"251 1272 OFFCURVE",
"267 1319 OFFCURVE",
"298 1344 CURVE",
"337 1373 OFFCURVE",
"373 1390 OFFCURVE",
"406 1400 CURVE SMOOTH",
"439 1410 OFFCURVE",
"471 1412 OFFCURVE",
"500 1415 CURVE",
"515 1415 LINE SMOOTH",
"518 1415 OFFCURVE",
"521 1415 OFFCURVE",
"524 1416 CURVE",
"527 1416 OFFCURVE",
"529 1416 OFFCURVE",
"532 1416 CURVE",
"541 1417 OFFCURVE",
"550 1417 OFFCURVE",
"560 1417 CURVE SMOOTH",
"570 1417 OFFCURVE",
"579 1417 OFFCURVE",
"587 1417 CURVE SMOOTH",
"631 1417 LINE",
"623 1325 LINE",
"622 1322 OFFCURVE",
"622 1318 OFFCURVE",
"622 1313 CURVE",
"621 1308 OFFCURVE",
"621 1304 OFFCURVE",
"620 1300 CURVE",
"619 1293 OFFCURVE",
"617 1276 OFFCURVE",
"616 1260 CURVE",
"615 1251 OFFCURVE",
"615 1243 OFFCURVE",
"614 1236 CURVE SMOOTH",
"613 1229 OFFCURVE",
"613 1224 OFFCURVE",
"613 1221 CURVE",
"604 1221 LINE SMOOTH",
"594 1221 OFFCURVE",
"584 1221 OFFCURVE",
"574 1221 CURVE SMOOTH",
"554 1221 OFFCURVE",
"527 1220 OFFCURVE",
"496 1213 CURVE SMOOTH",
"480 1209 OFFCURVE",
"467 1203 OFFCURVE",
"458 1196 CURVE",
"459 1199 LINE",
"442 1182 OFFCURVE",
"431 1168 OFFCURVE",
"426 1158 CURVE",
"421 1147 OFFCURVE",
"418 1138 OFFCURVE",
"417 1130 CURVE SMOOTH",
"412 1075 LINE",
"441 1076 OFFCURVE",
"472 1078 OFFCURVE",
"505 1079 CURVE SMOOTH",
"537 1080 OFFCURVE",
"568 1083 OFFCURVE",
"597 1086 CURVE",
"580 885 LINE",
"517 881 OFFCURVE",
"462 879 OFFCURVE",
"401 878 CURVE"
);
}
);
width = 685;
}
);
unicode = 0066;
},
{
glyphname = g;
lastChange = "2012-07-01 20:33:04 +0000";
layers = (
{
anchors = (
{
name = top;
position = "{567, 1094}";
}
);
layerId = "0F287C55-347F-439B-BC0E-FB0B2C3C2256";
name = Bold;
paths = (
{
closed = 1;
nodes = (
"828 854 LINE",
"829 856 OFFCURVE",
"829 858 OFFCURVE",
"829 860 CURVE SMOOTH",
"829 862 OFFCURVE",
"829 864 OFFCURVE",
"830 866 CURVE",
"828 855 LINE"
);
},
{
closed = 1;
nodes = (
"428 -398 OFFCURVE",
"371 -396 OFFCURVE",
"315 -385 CURVE SMOOTH",
"258 -374 OFFCURVE",
"200 -356 OFFCURVE",
"144 -324 CURVE",
"145 -305 OFFCURVE",
"148 -276 OFFCURVE",
"152 -247 CURVE",
"153 -233 OFFCURVE",
"155 -219 OFFCURVE",
"156 -206 CURVE SMOOTH",
"157 -193 OFFCURVE",
"159 -181 OFFCURVE",
"160 -172 CURVE",
"163 -155 OFFCURVE",
"166 -126 OFFCURVE",
"169 -97 CURVE SMOOTH",
"172 -69 OFFCURVE",
"175 -40 OFFCURVE",
"178 -20 CURVE",
"286 -57 OFFCURVE",
"402 -78 OFFCURVE",
"526 -83 CURVE",
"523 -85 LINE",
"580 -68 OFFCURVE",
"625 -32 OFFCURVE",
"660 10 CURVE SMOOTH",
"695 52 OFFCURVE",
"718 100 OFFCURVE",
"733 147 CURVE",
"705 106 OFFCURVE",
"674 79 OFFCURVE",
"645 60 CURVE",
"581 23 OFFCURVE",
"518 15 OFFCURVE",
"463 14 CURVE SMOOTH",
"453 14 LINE SMOOTH",
"361 14 OFFCURVE",
"268 58 OFFCURVE",
"212 147 CURVE",
"183 200 OFFCURVE",
"166 268 OFFCURVE",
"157 340 CURVE SMOOTH",
"148 411 OFFCURVE",
"145 487 OFFCURVE",
"145 559 CURVE",
"147 583 LINE",
"147 579 LINE",
"147 580 OFFCURVE",
"147 582 OFFCURVE",
"148 583 CURVE",
"148 584 OFFCURVE",
"148 585 OFFCURVE",
"148 586 CURVE",
"151 608 LINE SMOOTH",
"154 629 OFFCURVE",
"156 651 OFFCURVE",
"159 673 CURVE SMOOTH",
"162 694 OFFCURVE",
"165 714 OFFCURVE",
"168 731 CURVE",
"188 815 OFFCURVE",
"213 893 OFFCURVE",
"258 950 CURVE",
"297 994 OFFCURVE",
"341 1022 OFFCURVE",
"386 1039 CURVE SMOOTH",
"431 1056 OFFCURVE",
"476 1062 OFFCURVE",
"519 1062 CURVE SMOOTH",
"542 1062 LINE SMOOTH",
"603 1062 OFFCURVE",
"663 1044 OFFCURVE",
"712 1009 CURVE SMOOTH",
"761 974 OFFCURVE",
"802 924 OFFCURVE",
"825 860 CURVE",
"818 883 LINE",
"823 884 OFFCURVE",
"829 886 OFFCURVE",
"834 887 CURVE",
"839 912 OFFCURVE",
"844 935 OFFCURVE",
"848 957 CURVE",
"850 962 OFFCURVE",
"851 966 OFFCURVE",
"852 969 CURVE SMOOTH",
"853 972 OFFCURVE",
"853 974 OFFCURVE",
"854 975 CURVE",
"854 968 LINE",
"854 971 OFFCURVE",
"854 973 OFFCURVE",
"855 976 CURVE",
"855 978 OFFCURVE",
"855 979 OFFCURVE",
"855 980 CURVE",
"856 985 OFFCURVE",
"860 999 OFFCURVE",
"864 1014 CURVE SMOOTH",
"866 1021 OFFCURVE",
"868 1028 OFFCURVE",
"870 1035 CURVE",
"871 1041 OFFCURVE",
"873 1046 OFFCURVE",
"874 1049 CURVE",
"898 1050 OFFCURVE",
"925 1052 OFFCURVE",
"954 1054 CURVE SMOOTH",
"983 1055 OFFCURVE",
"1009 1057 OFFCURVE",
"1033 1058 CURVE",
"966 698 OFFCURVE",
"927 376 OFFCURVE",
"902 71 CURVE SMOOTH",
"898 24 OFFCURVE",
"892 -24 OFFCURVE",
"884 -63 CURVE SMOOTH",
"869 -134 OFFCURVE",
"847 -200 OFFCURVE",
"812 -251 CURVE",
"764 -312 OFFCURVE",
"708 -349 OFFCURVE",
"652 -371 CURVE SMOOTH",
"595 -393 OFFCURVE",
"536 -401 OFFCURVE",
"484 -401 CURVE"
);
},
{
closed = 1;
nodes = (
"772 620 LINE",
"775 635 OFFCURVE",
"776 650 OFFCURVE",
"776 663 CURVE SMOOTH",
"776 719 OFFCURVE",
"755 773 OFFCURVE",
"716 813 CURVE SMOOTH",
"676 852 OFFCURVE",
"620 877 OFFCURVE",
"548 877 CURVE SMOOTH",
"530 877 LINE SMOOTH",
"465 877 OFFCURVE",
"396 867 OFFCURVE",
"352 826 CURVE",
"352 830 LINE",
"311 785 OFFCURVE",
"295 745 OFFCURVE",
"287 706 CURVE",
"280 681 OFFCURVE",
"277 650 OFFCURVE",
"274 625 CURVE",
"273 623 OFFCURVE",
"273 622 OFFCURVE",
"274 621 CURVE",
"274 620 OFFCURVE",
"274 619 OFFCURVE",
"273 618 CURVE",
"273 596 LINE",
"272 588 OFFCURVE",
"271 580 OFFCURVE",
"271 577 CURVE SMOOTH",
"271 522 OFFCURVE",
"281 463 OFFCURVE",
"312 410 CURVE SMOOTH",
"325 389 OFFCURVE",
"351 374 OFFCURVE",
"383 366 CURVE SMOOTH",
"415 357 OFFCURVE",
"453 354 OFFCURVE",
"492 354 CURVE SMOOTH",
"497 354 LINE SMOOTH",
"550 355 OFFCURVE",
"603 358 OFFCURVE",
"638 383 CURVE SMOOTH",
"714 434 OFFCURVE",
"750 501 OFFCURVE",
"763 564 CURVE SMOOTH",
"768 585 OFFCURVE",
"771 604 OFFCURVE",
"772 615 CURVE"
);
}
);
width = 1133;
}
);
unicode = 0067;
},
{
glyphname = h;
lastChange = "2012-07-01 20:33:04 +0000";
layers = (
{
anchors = (
{
name = center;
position = "{539, 547}";
},
{
name = top;
position = "{539, 1094}";
}
);
layerId = "0F287C55-347F-439B-BC0E-FB0B2C3C2256";
name = Bold;
paths = (
{
closed = 1;
nodes = (
"386 885 LINE",
"386 884 OFFCURVE",
"386 883 OFFCURVE",
"386 882 CURVE",
"385 881 OFFCURVE",
"385 881 OFFCURVE",
"385 880 CURVE",
"424 943 OFFCURVE",
"469 1001 OFFCURVE",
"516 1029 CURVE SMOOTH",
"576 1064 OFFCURVE",
"641 1077 OFFCURVE",
"697 1077 CURVE SMOOTH",
"704 1077 LINE SMOOTH",
"780 1077 OFFCURVE",
"859 1057 OFFCURVE",
"918 989 CURVE",
"918 990 LINE",
"943 959 OFFCURVE",
"958 918 OFFCURVE",
"966 872 CURVE SMOOTH",
"974 826 OFFCURVE",
"976 774 OFFCURVE",
"976 725 CURVE SMOOTH",
"976 704 LINE SMOOTH",
"974 631 OFFCURVE",
"973 558 OFFCURVE",
"973 487 CURVE SMOOTH",
"973 344 OFFCURVE",
"979 188 OFFCURVE",
"995 9 CURVE",
"915 18 OFFCURVE",
"820 27 OFFCURVE",
"739 30 CURVE",
"747 131 OFFCURVE",
"758 244 OFFCURVE",
"771 357 CURVE SMOOTH",
"783 469 OFFCURVE",
"798 581 OFFCURVE",
"811 684 CURVE",
"811 687 OFFCURVE",
"811 691 OFFCURVE",
"812 695 CURVE",
"812 703 OFFCURVE",
"813 713 OFFCURVE",
"814 725 CURVE",
"814 731 OFFCURVE",
"814 738 OFFCURVE",
"814 745 CURVE SMOOTH",
"814 766 OFFCURVE",
"811 791 OFFCURVE",
"805 818 CURVE SMOOTH",
"800 842 OFFCURVE",
"778 858 OFFCURVE",
"750 868 CURVE SMOOTH",
"722 878 OFFCURVE",
"686 881 OFFCURVE",
"650 881 CURVE SMOOTH",
"635 881 LINE SMOOTH",
"568 881 OFFCURVE",
"498 864 OFFCURVE",
"459 817 CURVE SMOOTH",
"422 770 OFFCURVE",
"401 726 OFFCURVE",
"393 689 CURVE SMOOTH",
"388 666 OFFCURVE",
"383 641 OFFCURVE",
"382 629 CURVE",
"382 606 OFFCURVE",
"381 579 OFFCURVE",
"380 558 CURVE SMOOTH",
"377 492 OFFCURVE",
"373 427 OFFCURVE",
"370 363 CURVE SMOOTH",
"367 298 OFFCURVE",
"363 233 OFFCURVE",
"360 168 CURVE",
"360 160 OFFCURVE",
"360 150 OFFCURVE",
"359 138 CURVE SMOOTH",
"358 126 OFFCURVE",
"358 114 OFFCURVE",
"357 101 CURVE",
"356 75 OFFCURVE",
"354 49 OFFCURVE",
"353 33 CURVE",
"278 32 OFFCURVE",
"186 28 OFFCURVE",
"111 21 CURVE",
"198 502 OFFCURVE",
"258 974 OFFCURVE",
"270 1441 CURVE",
"314 1434 OFFCURVE",
"349 1431 OFFCURVE",
"392 1428 CURVE",
"404 1428 OFFCURVE",
"427 1426 OFFCURVE",
"442 1425 CURVE",
"438 1372 OFFCURVE",
"432 1309 OFFCURVE",
"425 1245 CURVE SMOOTH",
"418 1181 OFFCURVE",
"412 1118 OFFCURVE",
"405 1065 CURVE SMOOTH",
"402 1042 OFFCURVE",
"400 1018 OFFCURVE",
"397 994 CURVE SMOOTH",
"394 969 OFFCURVE",
"392 946 OFFCURVE",
"389 923 CURVE",
"389 920 OFFCURVE",
"389 916 OFFCURVE",
"389 913 CURVE",
"388 909 OFFCURVE",
"388 906 OFFCURVE",
"388 903 CURVE",
"387 901 OFFCURVE",
"387 898 OFFCURVE",
"387 895 CURVE",
"390 895 LINE"
);
}
);
width = 1077;
}
);
unicode = 0068;
},
